<svg width="61" height="58" viewBox="0 0 61 58" fill="none" xmlns="http://www.w3.org/2000/svg">
<g clip-path="url(#clip0_34_9)">
<path d="M47.8836 2.02613C51.005 0.0927977 53.9968 -0.325769 56.3071 0.847764C61.4875 3.4771 60.7374 13.2646 58.6175 17.5054C57.4207 19.8998 55.2999 21.6495 52.308 22.7128C51.148 26.3852 49.5202 29.5413 47.4418 32.1513C48.8191 33.3014 50.5572 33.93 52.3515 33.9271H52.4385L55.3579 31.0445C56.0935 30.3195 57.2854 30.3185 58.0201 31.0445C58.7547 31.7695 58.7547 32.9469 58.0201 33.6719L57.7619 33.9271H58.3497C59.3889 33.9271 60.2318 34.7594 60.2318 35.786C60.2318 36.8116 59.3889 37.6439 58.3497 37.6439H57.7619L58.0201 37.8991C58.7547 38.6241 58.7547 39.8015 58.0201 40.5275C57.6527 40.89 57.1713 41.0717 56.6899 41.0717C56.2075 41.0717 55.7261 40.89 55.3588 40.5275L52.4376 37.6439H52.3505C49.6112 37.6479 46.9614 36.6678 44.884 34.8822C44.4829 35.2466 44.0691 35.5956 43.6428 35.9291C40.0352 38.7517 35.6253 40.3922 30.47 40.8417C31.1272 42.822 31.2417 44.9423 30.8016 46.9819L30.7823 47.0689L33.0298 50.6069C33.3017 51.0349 33.3944 51.5526 33.2878 52.0484C33.1813 52.5441 32.8841 52.9781 32.4604 53.2566C32.1567 53.4553 31.8017 53.5615 31.4386 53.562C31.1198 53.5618 30.8063 53.4808 30.5272 53.3267C30.2481 53.1725 30.0126 52.9502 29.8427 52.6804L29.6435 52.3672L29.5179 52.9521C29.4286 53.3772 29.1964 53.7589 28.8599 54.0336C28.5235 54.3084 28.103 54.4596 27.6686 54.462C27.5324 54.4619 27.3966 54.4469 27.2636 54.4175C26.77 54.3053 26.3409 54.0025 26.0696 53.5752C25.7983 53.1478 25.707 52.6306 25.8155 52.1362L25.9412 51.5514L25.6319 51.7534C25.4227 51.8894 25.1884 51.9825 24.9429 52.0271C24.6973 52.0717 24.4454 52.0671 24.2017 52.0133C23.9579 51.9596 23.7273 51.858 23.5233 51.7143C23.3193 51.5706 23.1459 51.3877 23.0132 51.1763C22.7417 50.7483 22.6493 50.2307 22.756 49.7352C22.8627 49.2397 23.1599 48.806 23.5835 48.5276L27.0799 46.2531L27.0993 46.1661C27.4798 44.4006 27.2362 42.5578 26.41 40.9519C24.8585 40.9062 23.3106 40.7771 21.7729 40.5652C17.2451 39.9523 14.6766 41.9504 13.9971 42.5768C8.66301 47.5001 7.63061 56.1991 7.62095 56.2871C7.56873 56.7534 7.34677 57.1842 6.99737 57.4974C6.64796 57.8107 6.19553 57.9844 5.72628 57.9855C5.41516 57.9851 5.10887 57.9086 4.83419 57.7625C4.55951 57.6164 4.32481 57.4052 4.15061 57.1474C4.06651 57.0217 2.05875 54.0212 1.17811 49.7862C-0.0176524 44.0346 1.40818 38.7595 5.30191 34.5293C7.6105 32.0317 10.5176 30.1636 13.7486 29.1015L13.3552 29.204C12.3334 28.7281 11.2199 28.4816 10.0927 28.4819H10.0057L7.07478 31.3654C6.71836 31.7155 6.2384 31.911 5.73885 31.9097C5.25551 31.9097 4.77218 31.7279 4.40291 31.3654C4.22768 31.1943 4.08844 30.99 3.99337 30.7643C3.89829 30.5386 3.84932 30.2961 3.84932 30.0512C3.84932 29.8063 3.89829 29.5639 3.99337 29.3382C4.08844 29.1125 4.22768 28.9081 4.40291 28.7371L4.66198 28.4819H4.07231C3.02831 28.4819 2.18345 27.6505 2.18345 26.6239C2.18345 25.5973 3.02928 24.766 4.07231 24.766H4.66198L4.40291 24.5108C4.22754 24.3397 4.08816 24.1352 3.993 23.9095C3.89784 23.6837 3.84882 23.4411 3.84882 23.1961C3.84882 22.9511 3.89784 22.7086 3.993 22.4828C4.08816 22.257 4.22754 22.0526 4.40291 21.8815C5.14048 21.1565 6.33625 21.1565 7.07478 21.8815L10.0057 24.765H10.0927C11.6603 24.7617 13.2119 25.0795 14.6518 25.699C16.0918 26.3185 17.3895 27.2264 18.465 28.3668L18.2552 28.1513C19.9774 27.9796 21.7138 28.0105 23.4288 28.2431C28.21 28.8908 32.1192 28.2257 35.1381 26.2595C33.4371 24.1522 32.5122 21.5243 32.5184 18.8162V18.7272L29.63 15.7441C29.28 15.3782 29.0846 14.8913 29.0846 14.385C29.0846 13.8786 29.28 13.3917 29.63 13.0258C29.8001 12.8479 30.0046 12.7063 30.2309 12.6095C30.4573 12.5127 30.7009 12.4629 30.9471 12.4629C31.1933 12.4629 31.4369 12.5127 31.6633 12.6095C31.8896 12.7063 32.0941 12.8479 32.2642 13.0258L32.5203 13.2897V12.6894C32.5203 11.6271 33.3536 10.7667 34.3821 10.7667C35.4107 10.7667 36.2449 11.6271 36.2449 12.6894V13.2888L36.5011 13.0258C36.6712 12.8479 36.8756 12.7063 37.102 12.6095C37.3284 12.5127 37.572 12.4629 37.8182 12.4629C38.0643 12.4629 38.308 12.5127 38.5343 12.6095C38.7607 12.7063 38.9651 12.8479 39.1352 13.0258C40.243 14.1694 39.4446 15.4261 39.1352 15.7441L36.2449 18.7272V18.8152C36.2449 20.6306 36.8587 22.3658 37.9569 23.7433C39.3218 22.1135 40.3948 20.0622 41.1711 17.5953C40.6036 16.0244 39.721 12.3047 41.9714 8.08616C43.1508 5.87733 45.4167 3.5554 47.8846 2.02613H47.8836Z" fill="#3B4262"/>
</g>
<defs>
<clipPath id="clip0_34_9">
<rect width="60.9" height="58" fill="white" transform="translate(0.0499878)"/>
</clipPath>
</defs>
</svg>
