<svg width="115" height="114" viewBox="0 0 115 114" fill="none" xmlns="http://www.w3.org/2000/svg">
<g clip-path="url(#clip0_1_50)">
<g filter="url(#filter0_d_1_50)">
<path d="M7.096 20C7.14026 20.0008 7.18422 19.9925 7.22515 19.9756C7.26608 19.9588 7.30313 19.9337 7.334 19.902C7.36573 19.8711 7.39079 19.8341 7.40765 19.7931C7.4245 19.7522 7.43279 19.7083 7.432 19.664V12.02C7.432 11.927 7.479 11.88 7.572 11.88H9.336C9.392 11.88 9.439 11.917 9.476 11.992L12.304 19.72C12.36 19.907 12.491 20 12.696 20H16.112C16.317 20 16.42 19.916 16.42 19.748C16.4216 19.6998 16.412 19.6519 16.392 19.608L13.2 11.572C13.163 11.479 13.19 11.413 13.284 11.376C14.2087 10.9709 14.9825 10.2852 15.496 9.41599C16.019 8.53899 16.28 7.503 16.28 6.30799C16.28 5.15099 16.047 4.12399 15.58 3.22799C15.1344 2.35407 14.4435 1.62913 13.592 1.14199C12.733 0.646994 11.753 0.399994 10.652 0.399994H3.82C3.77574 0.399203 3.73179 0.407492 3.69085 0.424347C3.64992 0.441202 3.61287 0.466266 3.582 0.497993C3.55028 0.528865 3.52521 0.565912 3.50836 0.606846C3.4915 0.64778 3.48321 0.691733 3.484 0.735994V19.664C3.484 19.757 3.517 19.837 3.582 19.902C3.61287 19.9337 3.64992 19.9588 3.69085 19.9756C3.73179 19.9925 3.77574 20.0008 3.82 20H7.096ZM10.008 8.856H7.572C7.479 8.856 7.432 8.80899 7.432 8.71599V3.92799C7.432 3.83499 7.479 3.78799 7.572 3.78799H10.008C10.698 3.78799 11.258 4.017 11.688 4.474C12.118 4.93099 12.332 5.55199 12.332 6.33599C12.332 7.10099 12.117 7.71299 11.688 8.16999C11.258 8.62699 10.698 8.856 10.008 8.856ZM24.848 20.252C26.136 20.252 27.275 19.991 28.264 19.468C29.2282 18.9696 30.0261 18.2009 30.56 17.256C31.101 16.304 31.372 15.193 31.372 13.924V6.47599C31.372 5.22599 31.102 4.124 30.56 3.172C30.0261 2.22706 29.2282 1.45834 28.264 0.959993C27.274 0.436993 26.136 0.175995 24.848 0.175995C23.56 0.175995 22.426 0.436993 21.446 0.959993C20.4877 1.46157 19.6952 2.22983 19.164 3.172C18.623 4.124 18.352 5.22499 18.352 6.47599V13.924C18.352 15.194 18.622 16.304 19.164 17.256C19.6952 18.1982 20.4877 18.9664 21.446 19.468C22.426 19.991 23.56 20.252 24.848 20.252ZM24.848 16.864C24.083 16.864 23.467 16.607 23 16.094C22.533 15.581 22.3 14.914 22.3 14.092V6.36399C22.3 5.52399 22.533 4.84699 23 4.33399C23.467 3.82099 24.083 3.56399 24.848 3.56399C25.632 3.56399 26.258 3.82099 26.724 4.33399C27.191 4.84699 27.424 5.52399 27.424 6.36399V14.092C27.424 14.913 27.191 15.581 26.724 16.094C26.257 16.607 25.632 16.864 24.848 16.864ZM40.08 20.224C41.35 20.224 42.47 19.977 43.44 19.482C44.3825 19.0138 45.1664 18.2786 45.694 17.368C46.226 16.453 46.492 15.398 46.492 14.204V14.12C46.4928 14.0757 46.4845 14.0318 46.4676 13.9908C46.4508 13.9499 46.4257 13.9129 46.394 13.882C46.3631 13.8503 46.3261 13.8252 46.2852 13.8083C46.2442 13.7915 46.2003 13.7832 46.156 13.784L42.88 13.644C42.656 13.644 42.544 13.747 42.544 13.952V14.316C42.544 15.081 42.32 15.693 41.872 16.15C41.424 16.607 40.827 16.836 40.08 16.836C39.333 16.836 38.736 16.607 38.288 16.15C37.84 15.693 37.616 15.081 37.616 14.316V6.11199C37.616 5.34699 37.84 4.73099 38.288 4.26399C38.736 3.79699 39.333 3.56399 40.08 3.56399C40.827 3.56399 41.424 3.79699 41.872 4.26399C42.32 4.73099 42.544 5.34699 42.544 6.11199V6.47599C42.544 6.68099 42.656 6.78399 42.88 6.78399L46.156 6.64399C46.2015 6.64427 46.2465 6.63435 46.2877 6.61497C46.3289 6.59559 46.3652 6.56724 46.394 6.53199C46.457 6.46321 46.492 6.3733 46.492 6.27999V6.13999C46.492 4.94499 46.226 3.89999 45.694 3.00399C45.162 2.10799 44.411 1.41299 43.44 0.917994C42.47 0.422994 41.35 0.175995 40.08 0.175995C38.81 0.175995 37.69 0.427993 36.72 0.931993C35.7758 1.41081 34.9923 2.15539 34.466 3.07399C33.934 3.99799 33.668 5.06699 33.668 6.27999V14.064C33.668 15.296 33.934 16.379 34.466 17.312C34.989 18.2367 35.773 18.9866 36.72 19.468C37.69 19.972 38.81 20.224 40.08 20.224ZM52.624 20C52.6683 20.0008 52.7122 19.9925 52.7532 19.9756C52.7941 19.9588 52.8311 19.9337 52.862 19.902C52.8937 19.8711 52.9188 19.8341 52.9356 19.7931C52.9525 19.7522 52.9608 19.7083 52.96 19.664V14.064C52.9668 14.0047 52.9859 13.9475 53.016 13.896L54.276 12.076C54.313 12.02 54.351 11.992 54.388 11.992C54.425 11.992 54.453 12.02 54.472 12.076L58.448 19.748C58.541 19.916 58.672 20 58.84 20H62.424C62.629 20 62.732 19.925 62.732 19.776C62.7252 19.7167 62.7061 19.6595 62.676 19.608L57.188 9.02399C57.1692 8.96001 57.1692 8.89198 57.188 8.82799L62.368 0.791994C62.443 0.679994 62.457 0.586993 62.41 0.511993C62.363 0.436993 62.275 0.399994 62.144 0.399994H58.532C58.4525 0.398328 58.374 0.418287 58.305 0.457739C58.236 0.497191 58.1789 0.554656 58.14 0.623995L53.128 8.23999C53.109 8.29599 53.077 8.31499 53.03 8.29599C52.983 8.27699 52.96 8.23999 52.96 8.18399V0.735994C52.9608 0.691733 52.9525 0.64778 52.9356 0.606846C52.9188 0.565912 52.8937 0.528865 52.862 0.497993C52.8311 0.466266 52.7941 0.441202 52.7532 0.424347C52.7122 0.407492 52.6683 0.399203 52.624 0.399994H49.348C49.3037 0.399203 49.2598 0.407492 49.2189 0.424347C49.1779 0.441202 49.1409 0.466266 49.11 0.497993C49.0783 0.528865 49.0532 0.565912 49.0364 0.606846C49.0195 0.64778 49.0112 0.691733 49.012 0.735994V19.664C49.012 19.757 49.045 19.837 49.11 19.902C49.1409 19.9337 49.1779 19.9588 49.2189 19.9756C49.2598 19.9925 49.3037 20.0008 49.348 20H52.624ZM7.012 42C7.05626 42.0008 7.10022 41.9925 7.14115 41.9756C7.18208 41.9588 7.21913 41.9337 7.25 41.902C7.28173 41.8711 7.30679 41.8341 7.32365 41.7931C7.3405 41.7522 7.34879 41.7083 7.348 41.664V34.384C7.348 34.291 7.395 34.244 7.488 34.244H10.512C11.632 34.244 12.626 34.001 13.494 33.516C14.352 33.0408 15.0526 32.3256 15.51 31.458C15.986 30.571 16.224 29.549 16.224 28.392C16.224 27.216 15.986 26.171 15.51 25.256C15.0579 24.3666 14.3577 23.6274 13.494 23.128C12.626 22.624 11.632 22.372 10.512 22.372H3.736C3.69174 22.3712 3.64779 22.3795 3.60685 22.3963C3.56592 22.4132 3.52887 22.4383 3.498 22.47C3.46628 22.5009 3.44121 22.5379 3.42435 22.5788C3.4075 22.6198 3.39921 22.6637 3.4 22.708V41.664C3.4 41.757 3.433 41.837 3.498 41.902C3.52887 41.9337 3.56592 41.9588 3.60685 41.9756C3.64779 41.9925 3.69174 42.0008 3.736 42H7.012ZM9.868 31.108H7.488C7.395 31.108 7.348 31.061 7.348 30.968V25.928C7.348 25.835 7.395 25.788 7.488 25.788H9.868C10.596 25.788 11.179 26.031 11.618 26.516C12.057 27.001 12.276 27.655 12.276 28.476C12.276 29.279 12.056 29.918 11.618 30.394C11.179 30.87 10.596 31.108 9.868 31.108ZM21.152 42C21.339 42 21.46 41.907 21.516 41.72L22.16 38.976C22.179 38.901 22.225 38.864 22.3 38.864H27.536C27.611 38.864 27.657 38.901 27.676 38.976L28.32 41.72C28.376 41.907 28.507 42 28.712 42H32.128C32.333 42 32.436 41.916 32.436 41.748L32.408 41.636L27.368 22.68C27.312 22.493 27.181 22.4 26.976 22.4H22.916C22.711 22.4 22.58 22.493 22.524 22.68L17.484 41.636C17.428 41.879 17.521 42 17.764 42H21.152ZM26.752 35.812H23.056C23.0151 35.8107 22.9757 35.7959 22.944 35.77C22.907 35.742 22.897 35.7 22.916 35.644L24.792 27.524C24.811 27.449 24.839 27.412 24.876 27.412C24.913 27.412 24.941 27.449 24.96 27.524L26.892 35.644C26.911 35.7 26.902 35.742 26.864 35.77C26.8323 35.7959 26.7929 35.8107 26.752 35.812ZM38.036 42C38.0803 42.0008 38.1242 41.9925 38.1651 41.9756C38.2061 41.9588 38.2431 41.9337 38.274 41.902C38.3057 41.8711 38.3308 41.8341 38.3477 41.7931C38.3645 41.7522 38.3728 41.7083 38.372 41.664V34.384C38.372 34.291 38.419 34.244 38.512 34.244H41.536C42.656 34.244 43.65 34.001 44.518 33.516C45.376 33.0408 46.0766 32.3256 46.534 31.458C47.01 30.571 47.248 29.549 47.248 28.392C47.248 27.216 47.01 26.171 46.534 25.256C46.0819 24.3666 45.3817 23.6274 44.518 23.128C43.65 22.624 42.656 22.372 41.536 22.372H34.76C34.7157 22.3712 34.6718 22.3795 34.6309 22.3963C34.5899 22.4132 34.5529 22.4383 34.522 22.47C34.4903 22.5009 34.4652 22.5379 34.4484 22.5788C34.4315 22.6198 34.4232 22.6637 34.424 22.708V41.664C34.424 41.757 34.457 41.837 34.522 41.902C34.5529 41.9337 34.5899 41.9588 34.6309 41.9756C34.6718 41.9925 34.7157 42.0008 34.76 42H38.036ZM40.892 31.108H38.512C38.419 31.108 38.372 31.061 38.372 30.968V25.928C38.372 25.835 38.419 25.788 38.512 25.788H40.892C41.62 25.788 42.203 26.031 42.642 26.516C43.081 27.001 43.3 27.655 43.3 28.476C43.3 29.279 43.08 29.918 42.642 30.394C42.203 30.87 41.62 31.108 40.892 31.108ZM60.968 42C61.0123 42.0008 61.0562 41.9925 61.0972 41.9756C61.1381 41.9588 61.1751 41.9337 61.206 41.902C61.2377 41.8711 61.2628 41.8341 61.2797 41.7931C61.2965 41.7522 61.3048 41.7083 61.304 41.664V38.948C61.3048 38.9037 61.2965 38.8598 61.2797 38.8188C61.2628 38.7779 61.2377 38.7409 61.206 38.71C61.1751 38.6783 61.1381 38.6532 61.0972 38.6363C61.0562 38.6195 61.0123 38.6112 60.968 38.612H53.464C53.371 38.612 53.324 38.565 53.324 38.472V33.964C53.324 33.871 53.371 33.824 53.464 33.824H58.14C58.1843 33.8248 58.2282 33.8165 58.2692 33.7996C58.3101 33.7828 58.3471 33.7577 58.378 33.726C58.4097 33.6951 58.4348 33.6581 58.4516 33.6171C58.4685 33.5762 58.4768 33.5323 58.476 33.488V30.772C58.4768 30.7277 58.4685 30.6838 58.4516 30.6428C58.4348 30.6019 58.4097 30.5649 58.378 30.534C58.3471 30.5023 58.3101 30.4772 58.2692 30.4603C58.2282 30.4435 58.1843 30.4352 58.14 30.436H53.464C53.371 30.436 53.324 30.389 53.324 30.296V25.928C53.324 25.835 53.371 25.788 53.464 25.788H60.968C61.0123 25.7888 61.0562 25.7805 61.0972 25.7636C61.1381 25.7468 61.1751 25.7217 61.206 25.69C61.2377 25.6591 61.2628 25.6221 61.2797 25.5811C61.2965 25.5402 61.3048 25.4963 61.304 25.452V22.736C61.3048 22.6917 61.2965 22.6478 61.2797 22.6068C61.2628 22.5659 61.2377 22.5289 61.206 22.498C61.1751 22.4663 61.1381 22.4412 61.0972 22.4243C61.0562 22.4075 61.0123 22.3992 60.968 22.4H49.712C49.6677 22.3992 49.6238 22.4075 49.5829 22.4243C49.5419 22.4412 49.5049 22.4663 49.474 22.498C49.4423 22.5289 49.4172 22.5659 49.4004 22.6068C49.3835 22.6478 49.3752 22.6917 49.376 22.736V41.664C49.376 41.757 49.409 41.837 49.474 41.902C49.5049 41.9337 49.5419 41.9588 49.5829 41.9756C49.6238 41.9925 49.6677 42.0008 49.712 42H60.968ZM67.296 42C67.3403 42.0008 67.3842 41.9925 67.4251 41.9756C67.4661 41.9588 67.5031 41.9337 67.534 41.902C67.5657 41.8711 67.5908 41.8341 67.6077 41.7931C67.6245 41.7522 67.6328 41.7083 67.632 41.664V34.02C67.632 33.927 67.679 33.88 67.772 33.88H69.536C69.592 33.88 69.639 33.917 69.676 33.992L72.504 41.72C72.56 41.907 72.691 42 72.896 42H76.312C76.517 42 76.62 41.916 76.62 41.748C76.6216 41.6998 76.612 41.6519 76.592 41.608L73.4 33.572C73.363 33.479 73.39 33.413 73.484 33.376C74.4087 32.9709 75.1825 32.2852 75.696 31.416C76.219 30.539 76.48 29.503 76.48 28.308C76.48 27.151 76.247 26.124 75.78 25.228C75.3344 24.3541 74.6435 23.6291 73.792 23.142C72.933 22.647 71.953 22.4 70.852 22.4H64.02C63.9757 22.3992 63.9318 22.4075 63.8909 22.4243C63.8499 22.4412 63.8129 22.4663 63.782 22.498C63.7503 22.5289 63.7252 22.5659 63.7084 22.6068C63.6915 22.6478 63.6832 22.6917 63.684 22.736V41.664C63.684 41.757 63.717 41.837 63.782 41.902C63.8129 41.9337 63.8499 41.9588 63.8909 41.9756C63.9318 41.9925 63.9757 42.0008 64.02 42H67.296ZM70.208 30.856H67.772C67.679 30.856 67.632 30.809 67.632 30.716V25.928C67.632 25.835 67.679 25.788 67.772 25.788H70.208C70.898 25.788 71.458 26.017 71.888 26.474C72.318 26.931 72.532 27.552 72.532 28.336C72.532 29.101 72.317 29.713 71.888 30.17C71.458 30.627 70.898 30.856 70.208 30.856ZM9.364 64.224C11.268 64.224 12.794 63.724 13.942 62.726C15.09 61.727 15.664 60.379 15.664 58.68C15.664 57.728 15.459 56.916 15.048 56.244C14.6559 55.5922 14.137 55.0257 13.522 54.578C12.915 54.139 12.071 53.621 10.988 53.024L10.4 52.688C9.448 52.221 8.739 51.843 8.272 51.554C7.805 51.264 7.46 50.961 7.236 50.644C7.00855 50.3155 6.89093 49.9234 6.9 49.524C6.9 48.908 7.091 48.427 7.474 48.082C7.857 47.737 8.384 47.564 9.056 47.564C9.859 47.564 10.493 47.788 10.96 48.236C11.427 48.684 11.66 49.244 11.66 49.916V50.42C11.66 50.513 11.693 50.593 11.758 50.658C11.7889 50.6897 11.8259 50.7148 11.8669 50.7316C11.9078 50.7485 11.9517 50.7568 11.996 50.756H15.216C15.2603 50.7568 15.3042 50.7485 15.3452 50.7316C15.3861 50.7148 15.4231 50.6897 15.454 50.658C15.4857 50.6271 15.5108 50.5901 15.5277 50.5491C15.5445 50.5082 15.5528 50.4643 15.552 50.42V49.86C15.552 48.74 15.282 47.75 14.74 46.892C14.199 46.033 13.443 45.366 12.472 44.89C11.502 44.414 10.391 44.176 9.14 44.176C7.945 44.176 6.881 44.396 5.948 44.834C5.015 45.273 4.291 45.898 3.778 46.71C3.265 47.522 3.008 48.47 3.008 49.552C3.008 50.635 3.26 51.559 3.764 52.324C4.24191 53.0625 4.8603 53.6999 5.584 54.2C6.294 54.685 7.208 55.208 8.328 55.768C9.243 56.235 9.919 56.603 10.358 56.874C10.797 57.144 11.138 57.434 11.38 57.742C11.623 58.05 11.744 58.419 11.744 58.848C11.744 59.427 11.553 59.903 11.17 60.276C10.787 60.649 10.232 60.836 9.504 60.836C8.683 60.836 8.029 60.616 7.544 60.178C7.31028 59.9748 7.12396 59.7228 6.99818 59.4398C6.8724 59.1568 6.81021 58.8496 6.816 58.54V58.008C6.81679 57.9637 6.80851 57.9198 6.79165 57.8788C6.7748 57.8379 6.74973 57.8009 6.718 57.77C6.68713 57.7383 6.65009 57.7132 6.60915 57.6963C6.56822 57.6795 6.52426 57.6712 6.48 57.672H3.26C3.21574 57.6712 3.17179 57.6795 3.13085 57.6963C3.08992 57.7132 3.05287 57.7383 3.022 57.77C2.99027 57.8009 2.96521 57.8379 2.94835 57.8788C2.9315 57.9198 2.92321 57.9637 2.924 58.008V58.736C2.924 59.819 3.19 60.776 3.722 61.606C4.254 62.436 5.005 63.081 5.976 63.538C6.946 63.995 8.076 64.224 9.364 64.224ZM24.12 64.224C25.39 64.224 26.51 63.977 27.48 63.482C28.4225 63.0138 29.2064 62.2786 29.734 61.368C30.266 60.453 30.532 59.398 30.532 58.204V58.12C30.5328 58.0757 30.5245 58.0318 30.5077 57.9908C30.4908 57.9499 30.4657 57.9129 30.434 57.882C30.4031 57.8503 30.3661 57.8252 30.3252 57.8083C30.2842 57.7915 30.2403 57.7832 30.196 57.784L26.92 57.644C26.696 57.644 26.584 57.747 26.584 57.952V58.316C26.584 59.081 26.36 59.693 25.912 60.15C25.464 60.607 24.867 60.836 24.12 60.836C23.373 60.836 22.776 60.607 22.328 60.15C21.88 59.693 21.656 59.081 21.656 58.316V50.112C21.656 49.347 21.88 48.731 22.328 48.264C22.776 47.797 23.373 47.564 24.12 47.564C24.867 47.564 25.464 47.797 25.912 48.264C26.36 48.731 26.584 49.347 26.584 50.112V50.476C26.584 50.681 26.696 50.784 26.92 50.784L30.196 50.644C30.2415 50.6443 30.2865 50.6343 30.3277 50.615C30.3689 50.5956 30.4052 50.5672 30.434 50.532C30.497 50.4632 30.532 50.3733 30.532 50.28V50.14C30.532 48.945 30.266 47.9 29.734 47.004C29.202 46.108 28.451 45.413 27.48 44.918C26.51 44.423 25.39 44.176 24.12 44.176C22.85 44.176 21.73 44.428 20.76 44.932C19.8158 45.4108 19.0323 46.1554 18.506 47.074C17.974 47.998 17.708 49.067 17.708 50.28V58.064C17.708 59.296 17.974 60.379 18.506 61.312C19.029 62.2367 19.813 62.9866 20.76 63.468C21.73 63.972 22.85 64.224 24.12 64.224ZM36.664 64C36.7083 64.0008 36.7522 63.9925 36.7932 63.9756C36.8341 63.9588 36.8711 63.9337 36.902 63.902C36.9337 63.8711 36.9588 63.8341 36.9757 63.7931C36.9925 63.7522 37.0008 63.7083 37 63.664V44.736C37.0008 44.6917 36.9925 44.6478 36.9757 44.6068C36.9588 44.5659 36.9337 44.5289 36.902 44.498C36.8711 44.4663 36.8341 44.4412 36.7932 44.4243C36.7522 44.4075 36.7083 44.3992 36.664 44.4H33.388C33.3437 44.3992 33.2998 44.4075 33.2589 44.4243C33.2179 44.4412 33.1809 44.4663 33.15 44.498C33.1183 44.5289 33.0932 44.5659 33.0764 44.6068C33.0595 44.6478 33.0512 44.6917 33.052 44.736V63.664C33.052 63.757 33.085 63.837 33.15 63.902C33.1809 63.9337 33.2179 63.9588 33.2589 63.9756C33.2998 63.9925 33.3437 64.0008 33.388 64H36.664ZM45.82 64.224C47.724 64.224 49.25 63.724 50.398 62.726C51.546 61.727 52.12 60.379 52.12 58.68C52.12 57.728 51.915 56.916 51.504 56.244C51.1119 55.5922 50.593 55.0257 49.978 54.578C49.371 54.139 48.527 53.621 47.444 53.024L46.856 52.688C45.904 52.221 45.195 51.843 44.728 51.554C44.261 51.264 43.916 50.961 43.692 50.644C43.4646 50.3155 43.3469 49.9234 43.356 49.524C43.356 48.908 43.547 48.427 43.93 48.082C44.313 47.737 44.84 47.564 45.512 47.564C46.315 47.564 46.949 47.788 47.416 48.236C47.883 48.684 48.116 49.244 48.116 49.916V50.42C48.116 50.513 48.149 50.593 48.214 50.658C48.2449 50.6897 48.2819 50.7148 48.3229 50.7316C48.3638 50.7485 48.4077 50.7568 48.452 50.756H51.672C51.7163 50.7568 51.7602 50.7485 51.8012 50.7316C51.8421 50.7148 51.8791 50.6897 51.91 50.658C51.9417 50.6271 51.9668 50.5901 51.9837 50.5491C52.0005 50.5082 52.0088 50.4643 52.008 50.42V49.86C52.008 48.74 51.738 47.75 51.196 46.892C50.655 46.033 49.899 45.366 48.928 44.89C47.958 44.414 46.847 44.176 45.596 44.176C44.401 44.176 43.337 44.396 42.404 44.834C41.471 45.273 40.747 45.898 40.234 46.71C39.721 47.522 39.464 48.47 39.464 49.552C39.464 50.635 39.716 51.559 40.22 52.324C40.6979 53.0625 41.3163 53.6999 42.04 54.2C42.75 54.685 43.664 55.208 44.784 55.768C45.699 56.235 46.375 56.603 46.814 56.874C47.253 57.144 47.594 57.434 47.836 57.742C48.079 58.05 48.2 58.419 48.2 58.848C48.2 59.427 48.009 59.903 47.626 60.276C47.243 60.649 46.688 60.836 45.96 60.836C45.139 60.836 44.485 60.616 44 60.178C43.7663 59.9748 43.58 59.7228 43.4542 59.4398C43.3284 59.1568 43.2662 58.8496 43.272 58.54V58.008C43.2728 57.9637 43.2645 57.9198 43.2477 57.8788C43.2308 57.8379 43.2057 57.8009 43.174 57.77C43.1431 57.7383 43.1061 57.7132 43.0652 57.6963C43.0242 57.6795 42.9803 57.6712 42.936 57.672H39.716C39.6717 57.6712 39.6278 57.6795 39.5869 57.6963C39.5459 57.7132 39.5089 57.7383 39.478 57.77C39.4463 57.8009 39.4212 57.8379 39.4044 57.8788C39.3875 57.9198 39.3792 57.9637 39.38 58.008V58.736C39.38 59.819 39.646 60.776 40.178 61.606C40.71 62.436 41.461 63.081 42.432 63.538C43.402 63.995 44.532 64.224 45.82 64.224ZM60.38 64.224C62.284 64.224 63.81 63.724 64.958 62.726C66.106 61.727 66.68 60.379 66.68 58.68C66.68 57.728 66.475 56.916 66.064 56.244C65.6719 55.5922 65.153 55.0257 64.538 54.578C63.931 54.139 63.087 53.621 62.004 53.024L61.416 52.688C60.464 52.221 59.755 51.843 59.288 51.554C58.821 51.264 58.476 50.961 58.252 50.644C58.0246 50.3155 57.9069 49.9234 57.916 49.524C57.916 48.908 58.107 48.427 58.49 48.082C58.873 47.737 59.4 47.564 60.072 47.564C60.875 47.564 61.509 47.788 61.976 48.236C62.443 48.684 62.676 49.244 62.676 49.916V50.42C62.676 50.513 62.709 50.593 62.774 50.658C62.8049 50.6897 62.8419 50.7148 62.8829 50.7316C62.9238 50.7485 62.9677 50.7568 63.012 50.756H66.232C66.2763 50.7568 66.3202 50.7485 66.3612 50.7316C66.4021 50.7148 66.4391 50.6897 66.47 50.658C66.5017 50.6271 66.5268 50.5901 66.5437 50.5491C66.5605 50.5082 66.5688 50.4643 66.568 50.42V49.86C66.568 48.74 66.298 47.75 65.756 46.892C65.215 46.033 64.459 45.366 63.488 44.89C62.518 44.414 61.407 44.176 60.156 44.176C58.961 44.176 57.897 44.396 56.964 44.834C56.031 45.273 55.307 45.898 54.794 46.71C54.281 47.522 54.024 48.47 54.024 49.552C54.024 50.635 54.276 51.559 54.78 52.324C55.2579 53.0625 55.8763 53.6999 56.6 54.2C57.31 54.685 58.224 55.208 59.344 55.768C60.259 56.235 60.935 56.603 61.374 56.874C61.813 57.144 62.154 57.434 62.396 57.742C62.639 58.05 62.76 58.419 62.76 58.848C62.76 59.427 62.569 59.903 62.186 60.276C61.803 60.649 61.248 60.836 60.52 60.836C59.699 60.836 59.045 60.616 58.56 60.178C58.3263 59.9748 58.14 59.7228 58.0142 59.4398C57.8884 59.1568 57.8262 58.8496 57.832 58.54V58.008C57.8328 57.9637 57.8245 57.9198 57.8077 57.8788C57.7908 57.8379 57.7657 57.8009 57.734 57.77C57.7031 57.7383 57.6661 57.7132 57.6252 57.6963C57.5842 57.6795 57.5403 57.6712 57.496 57.672H54.276C54.2317 57.6712 54.1878 57.6795 54.1469 57.6963C54.1059 57.7132 54.0689 57.7383 54.038 57.77C54.0063 57.8009 53.9812 57.8379 53.9644 57.8788C53.9475 57.9198 53.9392 57.9637 53.94 58.008V58.736C53.94 59.819 54.206 60.776 54.738 61.606C55.27 62.436 56.021 63.081 56.992 63.538C57.962 63.995 59.092 64.224 60.38 64.224ZM75.22 64.252C76.508 64.252 77.647 63.991 78.636 63.468C79.6002 62.9696 80.3981 62.2009 80.932 61.256C81.473 60.304 81.744 59.193 81.744 57.924V50.476C81.744 49.226 81.474 48.124 80.932 47.172C80.3981 46.2271 79.6002 45.4583 78.636 44.96C77.646 44.437 76.508 44.176 75.22 44.176C73.932 44.176 72.798 44.437 71.818 44.96C70.8597 45.4616 70.0672 46.2298 69.536 47.172C68.995 48.124 68.724 49.225 68.724 50.476V57.924C68.724 59.194 68.994 60.304 69.536 61.256C70.0672 62.1982 70.8597 62.9664 71.818 63.468C72.798 63.991 73.932 64.252 75.22 64.252ZM75.22 60.864C74.455 60.864 73.839 60.607 73.372 60.094C72.905 59.581 72.672 58.914 72.672 58.092V50.364C72.672 49.524 72.905 48.847 73.372 48.334C73.839 47.821 74.455 47.564 75.22 47.564C76.004 47.564 76.63 47.821 77.096 48.334C77.563 48.847 77.796 49.524 77.796 50.364V58.092C77.796 58.913 77.563 59.581 77.096 60.094C76.629 60.607 76.004 60.864 75.22 60.864ZM87.988 64C88.0323 64.0008 88.0762 63.9925 88.1171 63.9756C88.1581 63.9588 88.1951 63.9337 88.226 63.902C88.2577 63.8711 88.2828 63.8341 88.2996 63.7931C88.3165 63.7522 88.3248 63.7083 88.324 63.664V56.02C88.324 55.927 88.371 55.88 88.464 55.88H90.228C90.284 55.88 90.331 55.917 90.368 55.992L93.196 63.72C93.252 63.907 93.383 64 93.588 64H97.004C97.209 64 97.312 63.916 97.312 63.748C97.3136 63.6998 97.304 63.6519 97.284 63.608L94.092 55.572C94.055 55.479 94.082 55.413 94.176 55.376C95.1007 54.9709 95.8745 54.2852 96.388 53.416C96.911 52.539 97.172 51.503 97.172 50.308C97.172 49.151 96.939 48.124 96.472 47.228C96.0264 46.3541 95.3355 45.6291 94.484 45.142C93.625 44.647 92.645 44.4 91.544 44.4H84.712C84.6677 44.3992 84.6238 44.4075 84.5828 44.4243C84.5419 44.4412 84.5049 44.4663 84.474 44.498C84.4423 44.5289 84.4172 44.5659 84.4004 44.6068C84.3835 44.6478 84.3752 44.6917 84.376 44.736V63.664C84.376 63.757 84.409 63.837 84.474 63.902C84.5049 63.9337 84.5419 63.9588 84.5828 63.9756C84.6238 63.9925 84.6677 64.0008 84.712 64H87.988ZM90.9 52.856H88.464C88.371 52.856 88.324 52.809 88.324 52.716V47.928C88.324 47.835 88.371 47.788 88.464 47.788H90.9C91.59 47.788 92.15 48.017 92.58 48.474C93.01 48.931 93.224 49.552 93.224 50.336C93.224 51.101 93.009 51.713 92.58 52.17C92.15 52.627 91.59 52.856 90.9 52.856ZM105.46 64.224C107.364 64.224 108.89 63.724 110.038 62.726C111.186 61.727 111.76 60.379 111.76 58.68C111.76 57.728 111.555 56.916 111.144 56.244C110.752 55.5922 110.233 55.0257 109.618 54.578C109.011 54.139 108.167 53.621 107.084 53.024L106.496 52.688C105.544 52.221 104.835 51.843 104.368 51.554C103.901 51.264 103.556 50.961 103.332 50.644C103.105 50.3155 102.987 49.9234 102.996 49.524C102.996 48.908 103.187 48.427 103.57 48.082C103.953 47.737 104.48 47.564 105.152 47.564C105.955 47.564 106.589 47.788 107.056 48.236C107.523 48.684 107.756 49.244 107.756 49.916V50.42C107.756 50.513 107.789 50.593 107.854 50.658C107.885 50.6897 107.922 50.7148 107.963 50.7316C108.004 50.7485 108.048 50.7568 108.092 50.756H111.312C111.356 50.7568 111.4 50.7485 111.441 50.7316C111.482 50.7148 111.519 50.6897 111.55 50.658C111.582 50.6271 111.607 50.5901 111.624 50.5491C111.64 50.5082 111.649 50.4643 111.648 50.42V49.86C111.648 48.74 111.378 47.75 110.836 46.892C110.295 46.033 109.539 45.366 108.568 44.89C107.598 44.414 106.487 44.176 105.236 44.176C104.041 44.176 102.977 44.396 102.044 44.834C101.111 45.273 100.387 45.898 99.874 46.71C99.361 47.522 99.104 48.47 99.104 49.552C99.104 50.635 99.356 51.559 99.86 52.324C100.338 53.0625 100.956 53.6999 101.68 54.2C102.39 54.685 103.304 55.208 104.424 55.768C105.339 56.235 106.015 56.603 106.454 56.874C106.893 57.144 107.234 57.434 107.476 57.742C107.719 58.05 107.84 58.419 107.84 58.848C107.84 59.427 107.649 59.903 107.266 60.276C106.883 60.649 106.328 60.836 105.6 60.836C104.779 60.836 104.125 60.616 103.64 60.178C103.406 59.9748 103.22 59.7228 103.094 59.4398C102.968 59.1568 102.906 58.8496 102.912 58.54V58.008C102.913 57.9637 102.905 57.9198 102.888 57.8788C102.871 57.8379 102.846 57.8009 102.814 57.77C102.783 57.7383 102.746 57.7132 102.705 57.6963C102.664 57.6795 102.62 57.6712 102.576 57.672H99.356C99.3117 57.6712 99.2678 57.6795 99.2269 57.6963C99.1859 57.7132 99.1489 57.7383 99.118 57.77C99.0863 57.8009 99.0612 57.8379 99.0444 57.8788C99.0275 57.9198 99.0192 57.9637 99.02 58.008V58.736C99.02 59.819 99.286 60.776 99.818 61.606C100.35 62.436 101.101 63.081 102.072 63.538C103.042 63.995 104.172 64.224 105.46 64.224ZM15.076 86C15.1203 86.0008 15.1642 85.9925 15.2052 85.9756C15.2461 85.9588 15.2831 85.9337 15.314 85.902C15.3457 85.8711 15.3708 85.8341 15.3876 85.7931C15.4045 85.7522 15.4128 85.7083 15.412 85.664V82.948C15.4128 82.9037 15.4045 82.8598 15.3876 82.8188C15.3708 82.7779 15.3457 82.7409 15.314 82.71C15.2831 82.6783 15.2461 82.6532 15.2052 82.6363C15.1642 82.6195 15.1203 82.6112 15.076 82.612H7.572C7.479 82.612 7.432 82.565 7.432 82.472V66.736C7.43279 66.6917 7.4245 66.6478 7.40765 66.6068C7.39079 66.5659 7.36573 66.5289 7.334 66.498C7.30313 66.4663 7.26608 66.4412 7.22515 66.4243C7.18422 66.4075 7.14026 66.3992 7.096 66.4H3.82C3.77574 66.3992 3.73179 66.4075 3.69085 66.4243C3.64992 66.4412 3.61287 66.4663 3.582 66.498C3.55028 66.5289 3.52521 66.5659 3.50836 66.6068C3.4915 66.6478 3.48321 66.6917 3.484 66.736V85.664C3.484 85.757 3.517 85.837 3.582 85.902C3.61287 85.9337 3.64992 85.9588 3.69085 85.9756C3.73179 85.9925 3.77574 86.0008 3.82 86H15.076ZM21.068 86C21.1123 86.0008 21.1562 85.9925 21.1971 85.9756C21.2381 85.9588 21.2751 85.9337 21.306 85.902C21.3377 85.8711 21.3628 85.8341 21.3796 85.7931C21.3965 85.7522 21.4048 85.7083 21.404 85.664V66.736C21.4048 66.6917 21.3965 66.6478 21.3796 66.6068C21.3628 66.5659 21.3377 66.5289 21.306 66.498C21.2751 66.4663 21.2381 66.4412 21.1971 66.4243C21.1562 66.4075 21.1123 66.3992 21.068 66.4H17.792C17.7477 66.3992 17.7038 66.4075 17.6629 66.4243C17.6219 66.4412 17.5849 66.4663 17.554 66.498C17.5223 66.5289 17.4972 66.5659 17.4804 66.6068C17.4635 66.6478 17.4552 66.6917 17.456 66.736V85.664C17.456 85.757 17.489 85.837 17.554 85.902C17.5849 85.9337 17.6219 85.9588 17.6629 85.9756C17.7038 85.9925 17.7477 86.0008 17.792 86H21.068ZM35.236 86C35.2803 86.0008 35.3242 85.9925 35.3652 85.9756C35.4061 85.9588 35.4431 85.9337 35.474 85.902C35.5057 85.8711 35.5308 85.8341 35.5476 85.7931C35.5645 85.7522 35.5728 85.7083 35.572 85.664V82.948C35.5728 82.9037 35.5645 82.8598 35.5476 82.8188C35.5308 82.7779 35.5057 82.7409 35.474 82.71C35.4431 82.6783 35.4061 82.6532 35.3652 82.6363C35.3242 82.6195 35.2803 82.6112 35.236 82.612H28.04C27.928 82.612 27.9 82.556 27.956 82.444L35.46 70.096C35.5338 69.9684 35.5725 69.8234 35.572 69.676V66.736C35.5728 66.6917 35.5645 66.6478 35.5476 66.6068C35.5308 66.5659 35.5057 66.5289 35.474 66.498C35.4431 66.4663 35.4061 66.4412 35.3652 66.4243C35.3242 66.4075 35.2803 66.3992 35.236 66.4H23.924C23.8797 66.3992 23.8358 66.4075 23.7949 66.4243C23.7539 66.4412 23.7169 66.4663 23.686 66.498C23.6543 66.5289 23.6292 66.5659 23.6124 66.6068C23.5955 66.6478 23.5872 66.6917 23.588 66.736V69.452C23.588 69.545 23.621 69.625 23.686 69.69C23.7169 69.7217 23.7539 69.7468 23.7949 69.7636C23.8358 69.7805 23.8797 69.7888 23.924 69.788H31.12C31.232 69.788 31.26 69.844 31.204 69.956L23.7 82.304C23.6262 82.4316 23.5875 82.5765 23.588 82.724V85.664C23.588 85.757 23.621 85.837 23.686 85.902C23.7169 85.9337 23.7539 85.9588 23.7949 85.9756C23.8358 85.9925 23.8797 86.0008 23.924 86H35.236ZM40.724 86C40.911 86 41.032 85.907 41.088 85.72L41.732 82.976C41.751 82.901 41.797 82.864 41.872 82.864H47.108C47.183 82.864 47.229 82.901 47.248 82.976L47.892 85.72C47.948 85.907 48.079 86 48.284 86H51.7C51.905 86 52.008 85.916 52.008 85.748L51.98 85.636L46.94 66.68C46.884 66.493 46.753 66.4 46.548 66.4H42.488C42.283 66.4 42.152 66.493 42.096 66.68L37.056 85.636C37 85.879 37.093 86 37.336 86H40.724ZM46.324 79.812H42.628C42.5871 79.8107 42.5477 79.7959 42.516 79.77C42.479 79.742 42.469 79.7 42.488 79.644L44.364 71.524C44.383 71.449 44.411 71.412 44.448 71.412C44.485 71.412 44.513 71.449 44.532 71.524L46.464 79.644C46.483 79.7 46.474 79.742 46.436 79.77C46.4043 79.7959 46.3649 79.8107 46.324 79.812ZM57.692 86C57.7363 86.0008 57.7802 85.9925 57.8212 85.9756C57.8621 85.9588 57.8991 85.9337 57.93 85.902C57.9617 85.8711 57.9868 85.8341 58.0037 85.7931C58.0205 85.7522 58.0288 85.7083 58.028 85.664V78.02C58.028 77.927 58.075 77.88 58.168 77.88H59.932C59.988 77.88 60.035 77.917 60.072 77.992L62.9 85.72C62.956 85.907 63.087 86 63.292 86H66.708C66.913 86 67.016 85.916 67.016 85.748C67.0176 85.6998 67.008 85.6519 66.988 85.608L63.796 77.572C63.759 77.479 63.786 77.413 63.88 77.376C64.8047 76.9709 65.5785 76.2852 66.092 75.416C66.615 74.539 66.876 73.503 66.876 72.308C66.876 71.151 66.643 70.124 66.176 69.228C65.7304 68.3541 65.0395 67.6291 64.188 67.142C63.329 66.647 62.349 66.4 61.248 66.4H54.416C54.3717 66.3992 54.3278 66.4075 54.2869 66.4243C54.2459 66.4412 54.2089 66.4663 54.178 66.498C54.1463 66.5289 54.1212 66.5659 54.1044 66.6068C54.0875 66.6478 54.0792 66.6917 54.08 66.736V85.664C54.08 85.757 54.113 85.837 54.178 85.902C54.2089 85.9337 54.2459 85.9588 54.2869 85.9756C54.3278 85.9925 54.3717 86.0008 54.416 86H57.692ZM60.604 74.856H58.168C58.075 74.856 58.028 74.809 58.028 74.716V69.928C58.028 69.835 58.075 69.788 58.168 69.788H60.604C61.294 69.788 61.854 70.017 62.284 70.474C62.714 70.931 62.928 71.552 62.928 72.336C62.928 73.101 62.713 73.713 62.284 74.17C61.854 74.627 61.294 74.856 60.604 74.856ZM75.64 86C76.89 86 77.997 85.767 78.958 85.3C79.919 84.833 80.661 84.17 81.184 83.312C81.707 82.453 81.968 81.455 81.968 80.316V72.084C81.968 70.945 81.707 69.947 81.184 69.088C80.661 68.229 79.919 67.567 78.958 67.1C77.997 66.633 76.891 66.4 75.64 66.4H69.62C69.5757 66.3992 69.5318 66.4075 69.4909 66.4243C69.4499 66.4412 69.4129 66.4663 69.382 66.498C69.3503 66.5289 69.3252 66.5659 69.3083 66.6068C69.2915 66.6478 69.2832 66.6917 69.284 66.736V85.664C69.284 85.757 69.317 85.837 69.382 85.902C69.4129 85.9337 69.4499 85.9588 69.4909 85.9756C69.5318 85.9925 69.5757 86.0008 69.62 86H75.64ZM73.372 82.612C73.279 82.612 73.232 82.565 73.232 82.472V69.928C73.232 69.835 73.279 69.788 73.372 69.788H75.668C76.378 69.788 76.947 70.035 77.376 70.53C77.806 71.025 78.02 71.692 78.02 72.532V79.868C78.001 80.689 77.777 81.348 77.348 81.842C76.918 82.337 76.358 82.584 75.668 82.584L73.372 82.612ZM9.364 108.224C11.268 108.224 12.794 107.724 13.942 106.726C15.09 105.727 15.664 104.379 15.664 102.68C15.664 101.728 15.459 100.916 15.048 100.244C14.6559 99.5922 14.137 99.0257 13.522 98.578C12.915 98.139 12.071 97.621 10.988 97.024L10.4 96.688C9.448 96.221 8.739 95.843 8.272 95.554C7.805 95.264 7.46 94.961 7.236 94.644C7.00855 94.3155 6.89093 93.9234 6.9 93.524C6.9 92.908 7.091 92.427 7.474 92.082C7.857 91.737 8.384 91.564 9.056 91.564C9.859 91.564 10.493 91.788 10.96 92.236C11.427 92.684 11.66 93.244 11.66 93.916V94.42C11.66 94.513 11.693 94.593 11.758 94.658C11.7889 94.6897 11.8259 94.7148 11.8669 94.7316C11.9078 94.7485 11.9517 94.7568 11.996 94.756H15.216C15.2603 94.7568 15.3042 94.7485 15.3452 94.7316C15.3861 94.7148 15.4231 94.6897 15.454 94.658C15.4857 94.6271 15.5108 94.5901 15.5277 94.5491C15.5445 94.5082 15.5528 94.4642 15.552 94.42V93.86C15.552 92.74 15.282 91.75 14.74 90.892C14.199 90.033 13.443 89.366 12.472 88.89C11.502 88.414 10.391 88.176 9.14 88.176C7.945 88.176 6.881 88.396 5.948 88.834C5.015 89.273 4.291 89.898 3.778 90.71C3.265 91.522 3.008 92.47 3.008 93.552C3.008 94.635 3.26 95.559 3.764 96.324C4.24191 97.0625 4.8603 97.6999 5.584 98.2C6.294 98.685 7.208 99.208 8.328 99.768C9.243 100.235 9.919 100.603 10.358 100.874C10.797 101.144 11.138 101.434 11.38 101.742C11.623 102.05 11.744 102.419 11.744 102.848C11.744 103.427 11.553 103.903 11.17 104.276C10.787 104.649 10.232 104.836 9.504 104.836C8.683 104.836 8.029 104.616 7.544 104.178C7.31028 103.975 7.12396 103.723 6.99818 103.44C6.8724 103.157 6.81021 102.85 6.816 102.54V102.008C6.81679 101.964 6.80851 101.92 6.79165 101.879C6.7748 101.838 6.74973 101.801 6.718 101.77C6.68713 101.738 6.65009 101.713 6.60915 101.696C6.56822 101.679 6.52426 101.671 6.48 101.672H3.26C3.21574 101.671 3.17179 101.679 3.13085 101.696C3.08992 101.713 3.05287 101.738 3.022 101.77C2.99027 101.801 2.96521 101.838 2.94835 101.879C2.9315 101.92 2.92321 101.964 2.924 102.008V102.736C2.924 103.819 3.19 104.776 3.722 105.606C4.254 106.436 5.005 107.081 5.976 107.538C6.946 107.995 8.076 108.224 9.364 108.224ZM21.572 108C21.6163 108.001 21.6602 107.992 21.7012 107.976C21.7421 107.959 21.7791 107.934 21.81 107.902C21.8417 107.871 21.8668 107.834 21.8836 107.793C21.9005 107.752 21.9088 107.708 21.908 107.664V100.384C21.908 100.291 21.955 100.244 22.048 100.244H25.072C26.192 100.244 27.186 100.001 28.054 99.516C28.912 99.0408 29.6126 98.3256 30.07 97.458C30.546 96.571 30.784 95.549 30.784 94.392C30.784 93.216 30.546 92.171 30.07 91.256C29.6179 90.3666 28.9177 89.6274 28.054 89.128C27.186 88.624 26.192 88.372 25.072 88.372H18.296C18.2517 88.3712 18.2078 88.3795 18.1669 88.3963C18.1259 88.4132 18.0889 88.4383 18.058 88.47C18.0263 88.5009 18.0012 88.5379 17.9844 88.5788C17.9675 88.6198 17.9592 88.6637 17.96 88.708V107.664C17.96 107.757 17.993 107.837 18.058 107.902C18.0889 107.934 18.1259 107.959 18.1669 107.976C18.2078 107.992 18.2517 108.001 18.296 108H21.572ZM24.428 97.108H22.048C21.955 97.108 21.908 97.061 21.908 96.968V91.928C21.908 91.835 21.955 91.788 22.048 91.788H24.428C25.156 91.788 25.739 92.031 26.178 92.516C26.617 93.001 26.836 93.655 26.836 94.476C26.836 95.279 26.616 95.918 26.178 96.394C25.739 96.87 25.156 97.108 24.428 97.108ZM39.072 108.252C40.36 108.252 41.499 107.991 42.488 107.468C43.4522 106.97 44.2501 106.201 44.784 105.256C45.325 104.304 45.596 103.193 45.596 101.924V94.476C45.596 93.226 45.326 92.124 44.784 91.172C44.2501 90.2271 43.4522 89.4583 42.488 88.96C41.498 88.437 40.36 88.176 39.072 88.176C37.784 88.176 36.65 88.437 35.67 88.96C34.7117 89.4616 33.9192 90.2298 33.388 91.172C32.847 92.124 32.576 93.225 32.576 94.476V101.924C32.576 103.194 32.846 104.304 33.388 105.256C33.9192 106.198 34.7117 106.966 35.67 107.468C36.65 107.991 37.784 108.252 39.072 108.252ZM39.072 104.864C38.307 104.864 37.691 104.607 37.224 104.094C36.757 103.581 36.524 102.914 36.524 102.092V94.364C36.524 93.524 36.757 92.847 37.224 92.334C37.691 91.821 38.307 91.564 39.072 91.564C39.856 91.564 40.482 91.821 40.948 92.334C41.415 92.847 41.648 93.524 41.648 94.364V102.092C41.648 102.913 41.415 103.581 40.948 104.094C40.481 104.607 39.856 104.864 39.072 104.864ZM54.304 108.224C55.574 108.224 56.694 107.977 57.664 107.482C58.6065 107.014 59.3904 106.279 59.918 105.368C60.45 104.453 60.716 103.398 60.716 102.204V102.12C60.7168 102.076 60.7085 102.032 60.6917 101.991C60.6748 101.95 60.6497 101.913 60.618 101.882C60.5871 101.85 60.5501 101.825 60.5092 101.808C60.4682 101.791 60.4243 101.783 60.38 101.784L57.104 101.644C56.88 101.644 56.768 101.747 56.768 101.952V102.316C56.768 103.081 56.544 103.693 56.096 104.15C55.648 104.607 55.051 104.836 54.304 104.836C53.557 104.836 52.96 104.607 52.512 104.15C52.064 103.693 51.84 103.081 51.84 102.316V94.112C51.84 93.347 52.064 92.731 52.512 92.264C52.96 91.797 53.557 91.564 54.304 91.564C55.051 91.564 55.648 91.797 56.096 92.264C56.544 92.731 56.768 93.347 56.768 94.112V94.476C56.768 94.681 56.88 94.784 57.104 94.784L60.38 94.644C60.4255 94.6443 60.4705 94.6343 60.5117 94.615C60.5529 94.5956 60.5892 94.5672 60.618 94.532C60.681 94.4632 60.716 94.3733 60.716 94.28V94.14C60.716 92.945 60.45 91.9 59.918 91.004C59.386 90.108 58.635 89.413 57.664 88.918C56.694 88.423 55.574 88.176 54.304 88.176C53.034 88.176 51.914 88.428 50.944 88.932C49.9998 89.4108 49.2163 90.1554 48.69 91.074C48.158 91.998 47.892 93.067 47.892 94.28V102.064C47.892 103.296 48.158 104.379 48.69 105.312C49.213 106.237 49.997 106.987 50.944 107.468C51.914 107.972 53.034 108.224 54.304 108.224ZM66.848 108C66.8923 108.001 66.9362 107.992 66.9771 107.976C67.0181 107.959 67.0551 107.934 67.086 107.902C67.1177 107.871 67.1428 107.834 67.1596 107.793C67.1765 107.752 67.1848 107.708 67.184 107.664V102.064C67.1908 102.005 67.2099 101.948 67.24 101.896L68.5 100.076C68.537 100.02 68.575 99.992 68.612 99.992C68.649 99.992 68.677 100.02 68.696 100.076L72.672 107.748C72.765 107.916 72.896 108 73.064 108H76.648C76.853 108 76.956 107.925 76.956 107.776C76.9492 107.717 76.9301 107.66 76.9 107.608L71.412 97.024C71.3932 96.96 71.3932 96.892 71.412 96.828L76.592 88.792C76.667 88.68 76.681 88.587 76.634 88.512C76.587 88.437 76.499 88.4 76.368 88.4H72.756C72.6765 88.3983 72.598 88.4183 72.529 88.4577C72.46 88.4972 72.4029 88.5547 72.364 88.624L67.352 96.24C67.333 96.296 67.301 96.315 67.254 96.296C67.207 96.277 67.184 96.24 67.184 96.184V88.736C67.1848 88.6917 67.1765 88.6478 67.1596 88.6068C67.1428 88.5659 67.1177 88.5289 67.086 88.498C67.0551 88.4663 67.0181 88.4412 66.9771 88.4243C66.9362 88.4075 66.8923 88.3992 66.848 88.4H63.572C63.5277 88.3992 63.4838 88.4075 63.4429 88.4243C63.4019 88.4412 63.3649 88.4663 63.334 88.498C63.3023 88.5289 63.2772 88.5659 63.2604 88.6068C63.2435 88.6478 63.2352 88.6917 63.236 88.736V107.664C63.236 107.757 63.269 107.837 63.334 107.902C63.3649 107.934 63.4019 107.959 63.4429 107.976C63.4838 107.992 63.5277 108.001 63.572 108H66.848Z" fill="black"/>
</g>
<path d="M7.096 20C7.14026 20.0008 7.18422 19.9925 7.22515 19.9756C7.26608 19.9588 7.30313 19.9337 7.334 19.902C7.36573 19.8711 7.39079 19.8341 7.40765 19.7931C7.4245 19.7522 7.43279 19.7083 7.432 19.664V12.02C7.432 11.927 7.479 11.88 7.572 11.88H9.336C9.392 11.88 9.439 11.917 9.476 11.992L12.304 19.72C12.36 19.907 12.491 20 12.696 20H16.112C16.317 20 16.42 19.916 16.42 19.748C16.4216 19.6998 16.412 19.6519 16.392 19.608L13.2 11.572C13.163 11.479 13.19 11.413 13.284 11.376C14.2087 10.9709 14.9825 10.2852 15.496 9.41599C16.019 8.53899 16.28 7.503 16.28 6.30799C16.28 5.15099 16.047 4.12399 15.58 3.22799C15.1344 2.35407 14.4435 1.62913 13.592 1.14199C12.733 0.646994 11.753 0.399994 10.652 0.399994H3.82C3.77574 0.399203 3.73179 0.407492 3.69085 0.424347C3.64992 0.441202 3.61287 0.466266 3.582 0.497993C3.55028 0.528865 3.52521 0.565912 3.50836 0.606846C3.4915 0.64778 3.48321 0.691733 3.484 0.735994V19.664C3.484 19.757 3.517 19.837 3.582 19.902C3.61287 19.9337 3.64992 19.9588 3.69085 19.9756C3.73179 19.9925 3.77574 20.0008 3.82 20H7.096ZM10.008 8.856H7.572C7.479 8.856 7.432 8.80899 7.432 8.71599V3.92799C7.432 3.83499 7.479 3.78799 7.572 3.78799H10.008C10.698 3.78799 11.258 4.017 11.688 4.474C12.118 4.93099 12.332 5.55199 12.332 6.33599C12.332 7.10099 12.117 7.71299 11.688 8.16999C11.258 8.62699 10.698 8.856 10.008 8.856ZM24.848 20.252C26.136 20.252 27.275 19.991 28.264 19.468C29.2282 18.9696 30.0261 18.2009 30.56 17.256C31.101 16.304 31.372 15.193 31.372 13.924V6.47599C31.372 5.22599 31.102 4.124 30.56 3.172C30.0261 2.22706 29.2282 1.45834 28.264 0.959993C27.274 0.436993 26.136 0.175995 24.848 0.175995C23.56 0.175995 22.426 0.436993 21.446 0.959993C20.4877 1.46157 19.6952 2.22983 19.164 3.172C18.623 4.124 18.352 5.22499 18.352 6.47599V13.924C18.352 15.194 18.622 16.304 19.164 17.256C19.6952 18.1982 20.4877 18.9664 21.446 19.468C22.426 19.991 23.56 20.252 24.848 20.252ZM24.848 16.864C24.083 16.864 23.467 16.607 23 16.094C22.533 15.581 22.3 14.914 22.3 14.092V6.36399C22.3 5.52399 22.533 4.84699 23 4.33399C23.467 3.82099 24.083 3.56399 24.848 3.56399C25.632 3.56399 26.258 3.82099 26.724 4.33399C27.191 4.84699 27.424 5.52399 27.424 6.36399V14.092C27.424 14.913 27.191 15.581 26.724 16.094C26.257 16.607 25.632 16.864 24.848 16.864ZM40.08 20.224C41.35 20.224 42.47 19.977 43.44 19.482C44.3825 19.0138 45.1664 18.2786 45.694 17.368C46.226 16.453 46.492 15.398 46.492 14.204V14.12C46.4928 14.0757 46.4845 14.0318 46.4676 13.9908C46.4508 13.9499 46.4257 13.9129 46.394 13.882C46.3631 13.8503 46.3261 13.8252 46.2852 13.8083C46.2442 13.7915 46.2003 13.7832 46.156 13.784L42.88 13.644C42.656 13.644 42.544 13.747 42.544 13.952V14.316C42.544 15.081 42.32 15.693 41.872 16.15C41.424 16.607 40.827 16.836 40.08 16.836C39.333 16.836 38.736 16.607 38.288 16.15C37.84 15.693 37.616 15.081 37.616 14.316V6.11199C37.616 5.34699 37.84 4.73099 38.288 4.26399C38.736 3.79699 39.333 3.56399 40.08 3.56399C40.827 3.56399 41.424 3.79699 41.872 4.26399C42.32 4.73099 42.544 5.34699 42.544 6.11199V6.47599C42.544 6.68099 42.656 6.78399 42.88 6.78399L46.156 6.64399C46.2015 6.64427 46.2465 6.63435 46.2877 6.61497C46.3289 6.59559 46.3652 6.56724 46.394 6.53199C46.457 6.46321 46.492 6.3733 46.492 6.27999V6.13999C46.492 4.94499 46.226 3.89999 45.694 3.00399C45.162 2.10799 44.411 1.41299 43.44 0.917994C42.47 0.422994 41.35 0.175995 40.08 0.175995C38.81 0.175995 37.69 0.427993 36.72 0.931993C35.7758 1.41081 34.9923 2.15539 34.466 3.07399C33.934 3.99799 33.668 5.06699 33.668 6.27999V14.064C33.668 15.296 33.934 16.379 34.466 17.312C34.989 18.2367 35.773 18.9866 36.72 19.468C37.69 19.972 38.81 20.224 40.08 20.224ZM52.624 20C52.6683 20.0008 52.7122 19.9925 52.7532 19.9756C52.7941 19.9588 52.8311 19.9337 52.862 19.902C52.8937 19.8711 52.9188 19.8341 52.9356 19.7931C52.9525 19.7522 52.9608 19.7083 52.96 19.664V14.064C52.9668 14.0047 52.9859 13.9475 53.016 13.896L54.276 12.076C54.313 12.02 54.351 11.992 54.388 11.992C54.425 11.992 54.453 12.02 54.472 12.076L58.448 19.748C58.541 19.916 58.672 20 58.84 20H62.424C62.629 20 62.732 19.925 62.732 19.776C62.7252 19.7167 62.7061 19.6595 62.676 19.608L57.188 9.02399C57.1692 8.96001 57.1692 8.89198 57.188 8.82799L62.368 0.791994C62.443 0.679994 62.457 0.586993 62.41 0.511993C62.363 0.436993 62.275 0.399994 62.144 0.399994H58.532C58.4525 0.398328 58.374 0.418287 58.305 0.457739C58.236 0.497191 58.1789 0.554656 58.14 0.623995L53.128 8.23999C53.109 8.29599 53.077 8.31499 53.03 8.29599C52.983 8.27699 52.96 8.23999 52.96 8.18399V0.735994C52.9608 0.691733 52.9525 0.64778 52.9356 0.606846C52.9188 0.565912 52.8937 0.528865 52.862 0.497993C52.8311 0.466266 52.7941 0.441202 52.7532 0.424347C52.7122 0.407492 52.6683 0.399203 52.624 0.399994H49.348C49.3037 0.399203 49.2598 0.407492 49.2189 0.424347C49.1779 0.441202 49.1409 0.466266 49.11 0.497993C49.0783 0.528865 49.0532 0.565912 49.0364 0.606846C49.0195 0.64778 49.0112 0.691733 49.012 0.735994V19.664C49.012 19.757 49.045 19.837 49.11 19.902C49.1409 19.9337 49.1779 19.9588 49.2189 19.9756C49.2598 19.9925 49.3037 20.0008 49.348 20H52.624ZM7.012 42C7.05626 42.0008 7.10022 41.9925 7.14115 41.9756C7.18208 41.9588 7.21913 41.9337 7.25 41.902C7.28173 41.8711 7.30679 41.8341 7.32365 41.7931C7.3405 41.7522 7.34879 41.7083 7.348 41.664V34.384C7.348 34.291 7.395 34.244 7.488 34.244H10.512C11.632 34.244 12.626 34.001 13.494 33.516C14.352 33.0408 15.0526 32.3256 15.51 31.458C15.986 30.571 16.224 29.549 16.224 28.392C16.224 27.216 15.986 26.171 15.51 25.256C15.0579 24.3666 14.3577 23.6274 13.494 23.128C12.626 22.624 11.632 22.372 10.512 22.372H3.736C3.69174 22.3712 3.64779 22.3795 3.60685 22.3963C3.56592 22.4132 3.52887 22.4383 3.498 22.47C3.46628 22.5009 3.44121 22.5379 3.42435 22.5788C3.4075 22.6198 3.39921 22.6637 3.4 22.708V41.664C3.4 41.757 3.433 41.837 3.498 41.902C3.52887 41.9337 3.56592 41.9588 3.60685 41.9756C3.64779 41.9925 3.69174 42.0008 3.736 42H7.012ZM9.868 31.108H7.488C7.395 31.108 7.348 31.061 7.348 30.968V25.928C7.348 25.835 7.395 25.788 7.488 25.788H9.868C10.596 25.788 11.179 26.031 11.618 26.516C12.057 27.001 12.276 27.655 12.276 28.476C12.276 29.279 12.056 29.918 11.618 30.394C11.179 30.87 10.596 31.108 9.868 31.108ZM21.152 42C21.339 42 21.46 41.907 21.516 41.72L22.16 38.976C22.179 38.901 22.225 38.864 22.3 38.864H27.536C27.611 38.864 27.657 38.901 27.676 38.976L28.32 41.72C28.376 41.907 28.507 42 28.712 42H32.128C32.333 42 32.436 41.916 32.436 41.748L32.408 41.636L27.368 22.68C27.312 22.493 27.181 22.4 26.976 22.4H22.916C22.711 22.4 22.58 22.493 22.524 22.68L17.484 41.636C17.428 41.879 17.521 42 17.764 42H21.152ZM26.752 35.812H23.056C23.0151 35.8107 22.9757 35.7959 22.944 35.77C22.907 35.742 22.897 35.7 22.916 35.644L24.792 27.524C24.811 27.449 24.839 27.412 24.876 27.412C24.913 27.412 24.941 27.449 24.96 27.524L26.892 35.644C26.911 35.7 26.902 35.742 26.864 35.77C26.8323 35.7959 26.7929 35.8107 26.752 35.812ZM38.036 42C38.0803 42.0008 38.1242 41.9925 38.1651 41.9756C38.2061 41.9588 38.2431 41.9337 38.274 41.902C38.3057 41.8711 38.3308 41.8341 38.3477 41.7931C38.3645 41.7522 38.3728 41.7083 38.372 41.664V34.384C38.372 34.291 38.419 34.244 38.512 34.244H41.536C42.656 34.244 43.65 34.001 44.518 33.516C45.376 33.0408 46.0766 32.3256 46.534 31.458C47.01 30.571 47.248 29.549 47.248 28.392C47.248 27.216 47.01 26.171 46.534 25.256C46.0819 24.3666 45.3817 23.6274 44.518 23.128C43.65 22.624 42.656 22.372 41.536 22.372H34.76C34.7157 22.3712 34.6718 22.3795 34.6309 22.3963C34.5899 22.4132 34.5529 22.4383 34.522 22.47C34.4903 22.5009 34.4652 22.5379 34.4484 22.5788C34.4315 22.6198 34.4232 22.6637 34.424 22.708V41.664C34.424 41.757 34.457 41.837 34.522 41.902C34.5529 41.9337 34.5899 41.9588 34.6309 41.9756C34.6718 41.9925 34.7157 42.0008 34.76 42H38.036ZM40.892 31.108H38.512C38.419 31.108 38.372 31.061 38.372 30.968V25.928C38.372 25.835 38.419 25.788 38.512 25.788H40.892C41.62 25.788 42.203 26.031 42.642 26.516C43.081 27.001 43.3 27.655 43.3 28.476C43.3 29.279 43.08 29.918 42.642 30.394C42.203 30.87 41.62 31.108 40.892 31.108ZM60.968 42C61.0123 42.0008 61.0562 41.9925 61.0972 41.9756C61.1381 41.9588 61.1751 41.9337 61.206 41.902C61.2377 41.8711 61.2628 41.8341 61.2797 41.7931C61.2965 41.7522 61.3048 41.7083 61.304 41.664V38.948C61.3048 38.9037 61.2965 38.8598 61.2797 38.8188C61.2628 38.7779 61.2377 38.7409 61.206 38.71C61.1751 38.6783 61.1381 38.6532 61.0972 38.6363C61.0562 38.6195 61.0123 38.6112 60.968 38.612H53.464C53.371 38.612 53.324 38.565 53.324 38.472V33.964C53.324 33.871 53.371 33.824 53.464 33.824H58.14C58.1843 33.8248 58.2282 33.8165 58.2692 33.7996C58.3101 33.7828 58.3471 33.7577 58.378 33.726C58.4097 33.6951 58.4348 33.6581 58.4516 33.6171C58.4685 33.5762 58.4768 33.5323 58.476 33.488V30.772C58.4768 30.7277 58.4685 30.6838 58.4516 30.6428C58.4348 30.6019 58.4097 30.5649 58.378 30.534C58.3471 30.5023 58.3101 30.4772 58.2692 30.4603C58.2282 30.4435 58.1843 30.4352 58.14 30.436H53.464C53.371 30.436 53.324 30.389 53.324 30.296V25.928C53.324 25.835 53.371 25.788 53.464 25.788H60.968C61.0123 25.7888 61.0562 25.7805 61.0972 25.7636C61.1381 25.7468 61.1751 25.7217 61.206 25.69C61.2377 25.6591 61.2628 25.6221 61.2797 25.5811C61.2965 25.5402 61.3048 25.4963 61.304 25.452V22.736C61.3048 22.6917 61.2965 22.6478 61.2797 22.6068C61.2628 22.5659 61.2377 22.5289 61.206 22.498C61.1751 22.4663 61.1381 22.4412 61.0972 22.4243C61.0562 22.4075 61.0123 22.3992 60.968 22.4H49.712C49.6677 22.3992 49.6238 22.4075 49.5829 22.4243C49.5419 22.4412 49.5049 22.4663 49.474 22.498C49.4423 22.5289 49.4172 22.5659 49.4004 22.6068C49.3835 22.6478 49.3752 22.6917 49.376 22.736V41.664C49.376 41.757 49.409 41.837 49.474 41.902C49.5049 41.9337 49.5419 41.9588 49.5829 41.9756C49.6238 41.9925 49.6677 42.0008 49.712 42H60.968ZM67.296 42C67.3403 42.0008 67.3842 41.9925 67.4251 41.9756C67.4661 41.9588 67.5031 41.9337 67.534 41.902C67.5657 41.8711 67.5908 41.8341 67.6077 41.7931C67.6245 41.7522 67.6328 41.7083 67.632 41.664V34.02C67.632 33.927 67.679 33.88 67.772 33.88H69.536C69.592 33.88 69.639 33.917 69.676 33.992L72.504 41.72C72.56 41.907 72.691 42 72.896 42H76.312C76.517 42 76.62 41.916 76.62 41.748C76.6216 41.6998 76.612 41.6519 76.592 41.608L73.4 33.572C73.363 33.479 73.39 33.413 73.484 33.376C74.4087 32.9709 75.1825 32.2852 75.696 31.416C76.219 30.539 76.48 29.503 76.48 28.308C76.48 27.151 76.247 26.124 75.78 25.228C75.3344 24.3541 74.6435 23.6291 73.792 23.142C72.933 22.647 71.953 22.4 70.852 22.4H64.02C63.9757 22.3992 63.9318 22.4075 63.8909 22.4243C63.8499 22.4412 63.8129 22.4663 63.782 22.498C63.7503 22.5289 63.7252 22.5659 63.7084 22.6068C63.6915 22.6478 63.6832 22.6917 63.684 22.736V41.664C63.684 41.757 63.717 41.837 63.782 41.902C63.8129 41.9337 63.8499 41.9588 63.8909 41.9756C63.9318 41.9925 63.9757 42.0008 64.02 42H67.296ZM70.208 30.856H67.772C67.679 30.856 67.632 30.809 67.632 30.716V25.928C67.632 25.835 67.679 25.788 67.772 25.788H70.208C70.898 25.788 71.458 26.017 71.888 26.474C72.318 26.931 72.532 27.552 72.532 28.336C72.532 29.101 72.317 29.713 71.888 30.17C71.458 30.627 70.898 30.856 70.208 30.856ZM9.364 64.224C11.268 64.224 12.794 63.724 13.942 62.726C15.09 61.727 15.664 60.379 15.664 58.68C15.664 57.728 15.459 56.916 15.048 56.244C14.6559 55.5922 14.137 55.0257 13.522 54.578C12.915 54.139 12.071 53.621 10.988 53.024L10.4 52.688C9.448 52.221 8.739 51.843 8.272 51.554C7.805 51.264 7.46 50.961 7.236 50.644C7.00855 50.3155 6.89093 49.9234 6.9 49.524C6.9 48.908 7.091 48.427 7.474 48.082C7.857 47.737 8.384 47.564 9.056 47.564C9.859 47.564 10.493 47.788 10.96 48.236C11.427 48.684 11.66 49.244 11.66 49.916V50.42C11.66 50.513 11.693 50.593 11.758 50.658C11.7889 50.6897 11.8259 50.7148 11.8669 50.7316C11.9078 50.7485 11.9517 50.7568 11.996 50.756H15.216C15.2603 50.7568 15.3042 50.7485 15.3452 50.7316C15.3861 50.7148 15.4231 50.6897 15.454 50.658C15.4857 50.6271 15.5108 50.5901 15.5277 50.5491C15.5445 50.5082 15.5528 50.4643 15.552 50.42V49.86C15.552 48.74 15.282 47.75 14.74 46.892C14.199 46.033 13.443 45.366 12.472 44.89C11.502 44.414 10.391 44.176 9.14 44.176C7.945 44.176 6.881 44.396 5.948 44.834C5.015 45.273 4.291 45.898 3.778 46.71C3.265 47.522 3.008 48.47 3.008 49.552C3.008 50.635 3.26 51.559 3.764 52.324C4.24191 53.0625 4.8603 53.6999 5.584 54.2C6.294 54.685 7.208 55.208 8.328 55.768C9.243 56.235 9.919 56.603 10.358 56.874C10.797 57.144 11.138 57.434 11.38 57.742C11.623 58.05 11.744 58.419 11.744 58.848C11.744 59.427 11.553 59.903 11.17 60.276C10.787 60.649 10.232 60.836 9.504 60.836C8.683 60.836 8.029 60.616 7.544 60.178C7.31028 59.9748 7.12396 59.7228 6.99818 59.4398C6.8724 59.1568 6.81021 58.8496 6.816 58.54V58.008C6.81679 57.9637 6.80851 57.9198 6.79165 57.8788C6.7748 57.8379 6.74973 57.8009 6.718 57.77C6.68713 57.7383 6.65009 57.7132 6.60915 57.6963C6.56822 57.6795 6.52426 57.6712 6.48 57.672H3.26C3.21574 57.6712 3.17179 57.6795 3.13085 57.6963C3.08992 57.7132 3.05287 57.7383 3.022 57.77C2.99027 57.8009 2.96521 57.8379 2.94835 57.8788C2.9315 57.9198 2.92321 57.9637 2.924 58.008V58.736C2.924 59.819 3.19 60.776 3.722 61.606C4.254 62.436 5.005 63.081 5.976 63.538C6.946 63.995 8.076 64.224 9.364 64.224ZM24.12 64.224C25.39 64.224 26.51 63.977 27.48 63.482C28.4225 63.0138 29.2064 62.2786 29.734 61.368C30.266 60.453 30.532 59.398 30.532 58.204V58.12C30.5328 58.0757 30.5245 58.0318 30.5077 57.9908C30.4908 57.9499 30.4657 57.9129 30.434 57.882C30.4031 57.8503 30.3661 57.8252 30.3252 57.8083C30.2842 57.7915 30.2403 57.7832 30.196 57.784L26.92 57.644C26.696 57.644 26.584 57.747 26.584 57.952V58.316C26.584 59.081 26.36 59.693 25.912 60.15C25.464 60.607 24.867 60.836 24.12 60.836C23.373 60.836 22.776 60.607 22.328 60.15C21.88 59.693 21.656 59.081 21.656 58.316V50.112C21.656 49.347 21.88 48.731 22.328 48.264C22.776 47.797 23.373 47.564 24.12 47.564C24.867 47.564 25.464 47.797 25.912 48.264C26.36 48.731 26.584 49.347 26.584 50.112V50.476C26.584 50.681 26.696 50.784 26.92 50.784L30.196 50.644C30.2415 50.6443 30.2865 50.6343 30.3277 50.615C30.3689 50.5956 30.4052 50.5672 30.434 50.532C30.497 50.4632 30.532 50.3733 30.532 50.28V50.14C30.532 48.945 30.266 47.9 29.734 47.004C29.202 46.108 28.451 45.413 27.48 44.918C26.51 44.423 25.39 44.176 24.12 44.176C22.85 44.176 21.73 44.428 20.76 44.932C19.8158 45.4108 19.0323 46.1554 18.506 47.074C17.974 47.998 17.708 49.067 17.708 50.28V58.064C17.708 59.296 17.974 60.379 18.506 61.312C19.029 62.2367 19.813 62.9866 20.76 63.468C21.73 63.972 22.85 64.224 24.12 64.224ZM36.664 64C36.7083 64.0008 36.7522 63.9925 36.7932 63.9756C36.8341 63.9588 36.8711 63.9337 36.902 63.902C36.9337 63.8711 36.9588 63.8341 36.9757 63.7931C36.9925 63.7522 37.0008 63.7083 37 63.664V44.736C37.0008 44.6917 36.9925 44.6478 36.9757 44.6068C36.9588 44.5659 36.9337 44.5289 36.902 44.498C36.8711 44.4663 36.8341 44.4412 36.7932 44.4243C36.7522 44.4075 36.7083 44.3992 36.664 44.4H33.388C33.3437 44.3992 33.2998 44.4075 33.2589 44.4243C33.2179 44.4412 33.1809 44.4663 33.15 44.498C33.1183 44.5289 33.0932 44.5659 33.0764 44.6068C33.0595 44.6478 33.0512 44.6917 33.052 44.736V63.664C33.052 63.757 33.085 63.837 33.15 63.902C33.1809 63.9337 33.2179 63.9588 33.2589 63.9756C33.2998 63.9925 33.3437 64.0008 33.388 64H36.664ZM45.82 64.224C47.724 64.224 49.25 63.724 50.398 62.726C51.546 61.727 52.12 60.379 52.12 58.68C52.12 57.728 51.915 56.916 51.504 56.244C51.1119 55.5922 50.593 55.0257 49.978 54.578C49.371 54.139 48.527 53.621 47.444 53.024L46.856 52.688C45.904 52.221 45.195 51.843 44.728 51.554C44.261 51.264 43.916 50.961 43.692 50.644C43.4646 50.3155 43.3469 49.9234 43.356 49.524C43.356 48.908 43.547 48.427 43.93 48.082C44.313 47.737 44.84 47.564 45.512 47.564C46.315 47.564 46.949 47.788 47.416 48.236C47.883 48.684 48.116 49.244 48.116 49.916V50.42C48.116 50.513 48.149 50.593 48.214 50.658C48.2449 50.6897 48.2819 50.7148 48.3229 50.7316C48.3638 50.7485 48.4077 50.7568 48.452 50.756H51.672C51.7163 50.7568 51.7602 50.7485 51.8012 50.7316C51.8421 50.7148 51.8791 50.6897 51.91 50.658C51.9417 50.6271 51.9668 50.5901 51.9837 50.5491C52.0005 50.5082 52.0088 50.4643 52.008 50.42V49.86C52.008 48.74 51.738 47.75 51.196 46.892C50.655 46.033 49.899 45.366 48.928 44.89C47.958 44.414 46.847 44.176 45.596 44.176C44.401 44.176 43.337 44.396 42.404 44.834C41.471 45.273 40.747 45.898 40.234 46.71C39.721 47.522 39.464 48.47 39.464 49.552C39.464 50.635 39.716 51.559 40.22 52.324C40.6979 53.0625 41.3163 53.6999 42.04 54.2C42.75 54.685 43.664 55.208 44.784 55.768C45.699 56.235 46.375 56.603 46.814 56.874C47.253 57.144 47.594 57.434 47.836 57.742C48.079 58.05 48.2 58.419 48.2 58.848C48.2 59.427 48.009 59.903 47.626 60.276C47.243 60.649 46.688 60.836 45.96 60.836C45.139 60.836 44.485 60.616 44 60.178C43.7663 59.9748 43.58 59.7228 43.4542 59.4398C43.3284 59.1568 43.2662 58.8496 43.272 58.54V58.008C43.2728 57.9637 43.2645 57.9198 43.2477 57.8788C43.2308 57.8379 43.2057 57.8009 43.174 57.77C43.1431 57.7383 43.1061 57.7132 43.0652 57.6963C43.0242 57.6795 42.9803 57.6712 42.936 57.672H39.716C39.6717 57.6712 39.6278 57.6795 39.5869 57.6963C39.5459 57.7132 39.5089 57.7383 39.478 57.77C39.4463 57.8009 39.4212 57.8379 39.4044 57.8788C39.3875 57.9198 39.3792 57.9637 39.38 58.008V58.736C39.38 59.819 39.646 60.776 40.178 61.606C40.71 62.436 41.461 63.081 42.432 63.538C43.402 63.995 44.532 64.224 45.82 64.224ZM60.38 64.224C62.284 64.224 63.81 63.724 64.958 62.726C66.106 61.727 66.68 60.379 66.68 58.68C66.68 57.728 66.475 56.916 66.064 56.244C65.6719 55.5922 65.153 55.0257 64.538 54.578C63.931 54.139 63.087 53.621 62.004 53.024L61.416 52.688C60.464 52.221 59.755 51.843 59.288 51.554C58.821 51.264 58.476 50.961 58.252 50.644C58.0246 50.3155 57.9069 49.9234 57.916 49.524C57.916 48.908 58.107 48.427 58.49 48.082C58.873 47.737 59.4 47.564 60.072 47.564C60.875 47.564 61.509 47.788 61.976 48.236C62.443 48.684 62.676 49.244 62.676 49.916V50.42C62.676 50.513 62.709 50.593 62.774 50.658C62.8049 50.6897 62.8419 50.7148 62.8829 50.7316C62.9238 50.7485 62.9677 50.7568 63.012 50.756H66.232C66.2763 50.7568 66.3202 50.7485 66.3612 50.7316C66.4021 50.7148 66.4391 50.6897 66.47 50.658C66.5017 50.6271 66.5268 50.5901 66.5437 50.5491C66.5605 50.5082 66.5688 50.4643 66.568 50.42V49.86C66.568 48.74 66.298 47.75 65.756 46.892C65.215 46.033 64.459 45.366 63.488 44.89C62.518 44.414 61.407 44.176 60.156 44.176C58.961 44.176 57.897 44.396 56.964 44.834C56.031 45.273 55.307 45.898 54.794 46.71C54.281 47.522 54.024 48.47 54.024 49.552C54.024 50.635 54.276 51.559 54.78 52.324C55.2579 53.0625 55.8763 53.6999 56.6 54.2C57.31 54.685 58.224 55.208 59.344 55.768C60.259 56.235 60.935 56.603 61.374 56.874C61.813 57.144 62.154 57.434 62.396 57.742C62.639 58.05 62.76 58.419 62.76 58.848C62.76 59.427 62.569 59.903 62.186 60.276C61.803 60.649 61.248 60.836 60.52 60.836C59.699 60.836 59.045 60.616 58.56 60.178C58.3263 59.9748 58.14 59.7228 58.0142 59.4398C57.8884 59.1568 57.8262 58.8496 57.832 58.54V58.008C57.8328 57.9637 57.8245 57.9198 57.8077 57.8788C57.7908 57.8379 57.7657 57.8009 57.734 57.77C57.7031 57.7383 57.6661 57.7132 57.6252 57.6963C57.5842 57.6795 57.5403 57.6712 57.496 57.672H54.276C54.2317 57.6712 54.1878 57.6795 54.1469 57.6963C54.1059 57.7132 54.0689 57.7383 54.038 57.77C54.0063 57.8009 53.9812 57.8379 53.9644 57.8788C53.9475 57.9198 53.9392 57.9637 53.94 58.008V58.736C53.94 59.819 54.206 60.776 54.738 61.606C55.27 62.436 56.021 63.081 56.992 63.538C57.962 63.995 59.092 64.224 60.38 64.224ZM75.22 64.252C76.508 64.252 77.647 63.991 78.636 63.468C79.6002 62.9696 80.3981 62.2009 80.932 61.256C81.473 60.304 81.744 59.193 81.744 57.924V50.476C81.744 49.226 81.474 48.124 80.932 47.172C80.3981 46.2271 79.6002 45.4583 78.636 44.96C77.646 44.437 76.508 44.176 75.22 44.176C73.932 44.176 72.798 44.437 71.818 44.96C70.8597 45.4616 70.0672 46.2298 69.536 47.172C68.995 48.124 68.724 49.225 68.724 50.476V57.924C68.724 59.194 68.994 60.304 69.536 61.256C70.0672 62.1982 70.8597 62.9664 71.818 63.468C72.798 63.991 73.932 64.252 75.22 64.252ZM75.22 60.864C74.455 60.864 73.839 60.607 73.372 60.094C72.905 59.581 72.672 58.914 72.672 58.092V50.364C72.672 49.524 72.905 48.847 73.372 48.334C73.839 47.821 74.455 47.564 75.22 47.564C76.004 47.564 76.63 47.821 77.096 48.334C77.563 48.847 77.796 49.524 77.796 50.364V58.092C77.796 58.913 77.563 59.581 77.096 60.094C76.629 60.607 76.004 60.864 75.22 60.864ZM87.988 64C88.0323 64.0008 88.0762 63.9925 88.1171 63.9756C88.1581 63.9588 88.1951 63.9337 88.226 63.902C88.2577 63.8711 88.2828 63.8341 88.2996 63.7931C88.3165 63.7522 88.3248 63.7083 88.324 63.664V56.02C88.324 55.927 88.371 55.88 88.464 55.88H90.228C90.284 55.88 90.331 55.917 90.368 55.992L93.196 63.72C93.252 63.907 93.383 64 93.588 64H97.004C97.209 64 97.312 63.916 97.312 63.748C97.3136 63.6998 97.304 63.6519 97.284 63.608L94.092 55.572C94.055 55.479 94.082 55.413 94.176 55.376C95.1007 54.9709 95.8745 54.2852 96.388 53.416C96.911 52.539 97.172 51.503 97.172 50.308C97.172 49.151 96.939 48.124 96.472 47.228C96.0264 46.3541 95.3355 45.6291 94.484 45.142C93.625 44.647 92.645 44.4 91.544 44.4H84.712C84.6677 44.3992 84.6238 44.4075 84.5828 44.4243C84.5419 44.4412 84.5049 44.4663 84.474 44.498C84.4423 44.5289 84.4172 44.5659 84.4004 44.6068C84.3835 44.6478 84.3752 44.6917 84.376 44.736V63.664C84.376 63.757 84.409 63.837 84.474 63.902C84.5049 63.9337 84.5419 63.9588 84.5828 63.9756C84.6238 63.9925 84.6677 64.0008 84.712 64H87.988ZM90.9 52.856H88.464C88.371 52.856 88.324 52.809 88.324 52.716V47.928C88.324 47.835 88.371 47.788 88.464 47.788H90.9C91.59 47.788 92.15 48.017 92.58 48.474C93.01 48.931 93.224 49.552 93.224 50.336C93.224 51.101 93.009 51.713 92.58 52.17C92.15 52.627 91.59 52.856 90.9 52.856ZM105.46 64.224C107.364 64.224 108.89 63.724 110.038 62.726C111.186 61.727 111.76 60.379 111.76 58.68C111.76 57.728 111.555 56.916 111.144 56.244C110.752 55.5922 110.233 55.0257 109.618 54.578C109.011 54.139 108.167 53.621 107.084 53.024L106.496 52.688C105.544 52.221 104.835 51.843 104.368 51.554C103.901 51.264 103.556 50.961 103.332 50.644C103.105 50.3155 102.987 49.9234 102.996 49.524C102.996 48.908 103.187 48.427 103.57 48.082C103.953 47.737 104.48 47.564 105.152 47.564C105.955 47.564 106.589 47.788 107.056 48.236C107.523 48.684 107.756 49.244 107.756 49.916V50.42C107.756 50.513 107.789 50.593 107.854 50.658C107.885 50.6897 107.922 50.7148 107.963 50.7316C108.004 50.7485 108.048 50.7568 108.092 50.756H111.312C111.356 50.7568 111.4 50.7485 111.441 50.7316C111.482 50.7148 111.519 50.6897 111.55 50.658C111.582 50.6271 111.607 50.5901 111.624 50.5491C111.64 50.5082 111.649 50.4643 111.648 50.42V49.86C111.648 48.74 111.378 47.75 110.836 46.892C110.295 46.033 109.539 45.366 108.568 44.89C107.598 44.414 106.487 44.176 105.236 44.176C104.041 44.176 102.977 44.396 102.044 44.834C101.111 45.273 100.387 45.898 99.874 46.71C99.361 47.522 99.104 48.47 99.104 49.552C99.104 50.635 99.356 51.559 99.86 52.324C100.338 53.0625 100.956 53.6999 101.68 54.2C102.39 54.685 103.304 55.208 104.424 55.768C105.339 56.235 106.015 56.603 106.454 56.874C106.893 57.144 107.234 57.434 107.476 57.742C107.719 58.05 107.84 58.419 107.84 58.848C107.84 59.427 107.649 59.903 107.266 60.276C106.883 60.649 106.328 60.836 105.6 60.836C104.779 60.836 104.125 60.616 103.64 60.178C103.406 59.9748 103.22 59.7228 103.094 59.4398C102.968 59.1568 102.906 58.8496 102.912 58.54V58.008C102.913 57.9637 102.905 57.9198 102.888 57.8788C102.871 57.8379 102.846 57.8009 102.814 57.77C102.783 57.7383 102.746 57.7132 102.705 57.6963C102.664 57.6795 102.62 57.6712 102.576 57.672H99.356C99.3117 57.6712 99.2678 57.6795 99.2269 57.6963C99.1859 57.7132 99.1489 57.7383 99.118 57.77C99.0863 57.8009 99.0612 57.8379 99.0444 57.8788C99.0275 57.9198 99.0192 57.9637 99.02 58.008V58.736C99.02 59.819 99.286 60.776 99.818 61.606C100.35 62.436 101.101 63.081 102.072 63.538C103.042 63.995 104.172 64.224 105.46 64.224ZM15.076 86C15.1203 86.0008 15.1642 85.9925 15.2052 85.9756C15.2461 85.9588 15.2831 85.9337 15.314 85.902C15.3457 85.8711 15.3708 85.8341 15.3876 85.7931C15.4045 85.7522 15.4128 85.7083 15.412 85.664V82.948C15.4128 82.9037 15.4045 82.8598 15.3876 82.8188C15.3708 82.7779 15.3457 82.7409 15.314 82.71C15.2831 82.6783 15.2461 82.6532 15.2052 82.6363C15.1642 82.6195 15.1203 82.6112 15.076 82.612H7.572C7.479 82.612 7.432 82.565 7.432 82.472V66.736C7.43279 66.6917 7.4245 66.6478 7.40765 66.6068C7.39079 66.5659 7.36573 66.5289 7.334 66.498C7.30313 66.4663 7.26608 66.4412 7.22515 66.4243C7.18422 66.4075 7.14026 66.3992 7.096 66.4H3.82C3.77574 66.3992 3.73179 66.4075 3.69085 66.4243C3.64992 66.4412 3.61287 66.4663 3.582 66.498C3.55028 66.5289 3.52521 66.5659 3.50836 66.6068C3.4915 66.6478 3.48321 66.6917 3.484 66.736V85.664C3.484 85.757 3.517 85.837 3.582 85.902C3.61287 85.9337 3.64992 85.9588 3.69085 85.9756C3.73179 85.9925 3.77574 86.0008 3.82 86H15.076ZM21.068 86C21.1123 86.0008 21.1562 85.9925 21.1971 85.9756C21.2381 85.9588 21.2751 85.9337 21.306 85.902C21.3377 85.8711 21.3628 85.8341 21.3796 85.7931C21.3965 85.7522 21.4048 85.7083 21.404 85.664V66.736C21.4048 66.6917 21.3965 66.6478 21.3796 66.6068C21.3628 66.5659 21.3377 66.5289 21.306 66.498C21.2751 66.4663 21.2381 66.4412 21.1971 66.4243C21.1562 66.4075 21.1123 66.3992 21.068 66.4H17.792C17.7477 66.3992 17.7038 66.4075 17.6629 66.4243C17.6219 66.4412 17.5849 66.4663 17.554 66.498C17.5223 66.5289 17.4972 66.5659 17.4804 66.6068C17.4635 66.6478 17.4552 66.6917 17.456 66.736V85.664C17.456 85.757 17.489 85.837 17.554 85.902C17.5849 85.9337 17.6219 85.9588 17.6629 85.9756C17.7038 85.9925 17.7477 86.0008 17.792 86H21.068ZM35.236 86C35.2803 86.0008 35.3242 85.9925 35.3652 85.9756C35.4061 85.9588 35.4431 85.9337 35.474 85.902C35.5057 85.8711 35.5308 85.8341 35.5476 85.7931C35.5645 85.7522 35.5728 85.7083 35.572 85.664V82.948C35.5728 82.9037 35.5645 82.8598 35.5476 82.8188C35.5308 82.7779 35.5057 82.7409 35.474 82.71C35.4431 82.6783 35.4061 82.6532 35.3652 82.6363C35.3242 82.6195 35.2803 82.6112 35.236 82.612H28.04C27.928 82.612 27.9 82.556 27.956 82.444L35.46 70.096C35.5338 69.9684 35.5725 69.8234 35.572 69.676V66.736C35.5728 66.6917 35.5645 66.6478 35.5476 66.6068C35.5308 66.5659 35.5057 66.5289 35.474 66.498C35.4431 66.4663 35.4061 66.4412 35.3652 66.4243C35.3242 66.4075 35.2803 66.3992 35.236 66.4H23.924C23.8797 66.3992 23.8358 66.4075 23.7949 66.4243C23.7539 66.4412 23.7169 66.4663 23.686 66.498C23.6543 66.5289 23.6292 66.5659 23.6124 66.6068C23.5955 66.6478 23.5872 66.6917 23.588 66.736V69.452C23.588 69.545 23.621 69.625 23.686 69.69C23.7169 69.7217 23.7539 69.7468 23.7949 69.7636C23.8358 69.7805 23.8797 69.7888 23.924 69.788H31.12C31.232 69.788 31.26 69.844 31.204 69.956L23.7 82.304C23.6262 82.4316 23.5875 82.5765 23.588 82.724V85.664C23.588 85.757 23.621 85.837 23.686 85.902C23.7169 85.9337 23.7539 85.9588 23.7949 85.9756C23.8358 85.9925 23.8797 86.0008 23.924 86H35.236ZM40.724 86C40.911 86 41.032 85.907 41.088 85.72L41.732 82.976C41.751 82.901 41.797 82.864 41.872 82.864H47.108C47.183 82.864 47.229 82.901 47.248 82.976L47.892 85.72C47.948 85.907 48.079 86 48.284 86H51.7C51.905 86 52.008 85.916 52.008 85.748L51.98 85.636L46.94 66.68C46.884 66.493 46.753 66.4 46.548 66.4H42.488C42.283 66.4 42.152 66.493 42.096 66.68L37.056 85.636C37 85.879 37.093 86 37.336 86H40.724ZM46.324 79.812H42.628C42.5871 79.8107 42.5477 79.7959 42.516 79.77C42.479 79.742 42.469 79.7 42.488 79.644L44.364 71.524C44.383 71.449 44.411 71.412 44.448 71.412C44.485 71.412 44.513 71.449 44.532 71.524L46.464 79.644C46.483 79.7 46.474 79.742 46.436 79.77C46.4043 79.7959 46.3649 79.8107 46.324 79.812ZM57.692 86C57.7363 86.0008 57.7802 85.9925 57.8212 85.9756C57.8621 85.9588 57.8991 85.9337 57.93 85.902C57.9617 85.8711 57.9868 85.8341 58.0037 85.7931C58.0205 85.7522 58.0288 85.7083 58.028 85.664V78.02C58.028 77.927 58.075 77.88 58.168 77.88H59.932C59.988 77.88 60.035 77.917 60.072 77.992L62.9 85.72C62.956 85.907 63.087 86 63.292 86H66.708C66.913 86 67.016 85.916 67.016 85.748C67.0176 85.6998 67.008 85.6519 66.988 85.608L63.796 77.572C63.759 77.479 63.786 77.413 63.88 77.376C64.8047 76.9709 65.5785 76.2852 66.092 75.416C66.615 74.539 66.876 73.503 66.876 72.308C66.876 71.151 66.643 70.124 66.176 69.228C65.7304 68.3541 65.0395 67.6291 64.188 67.142C63.329 66.647 62.349 66.4 61.248 66.4H54.416C54.3717 66.3992 54.3278 66.4075 54.2869 66.4243C54.2459 66.4412 54.2089 66.4663 54.178 66.498C54.1463 66.5289 54.1212 66.5659 54.1044 66.6068C54.0875 66.6478 54.0792 66.6917 54.08 66.736V85.664C54.08 85.757 54.113 85.837 54.178 85.902C54.2089 85.9337 54.2459 85.9588 54.2869 85.9756C54.3278 85.9925 54.3717 86.0008 54.416 86H57.692ZM60.604 74.856H58.168C58.075 74.856 58.028 74.809 58.028 74.716V69.928C58.028 69.835 58.075 69.788 58.168 69.788H60.604C61.294 69.788 61.854 70.017 62.284 70.474C62.714 70.931 62.928 71.552 62.928 72.336C62.928 73.101 62.713 73.713 62.284 74.17C61.854 74.627 61.294 74.856 60.604 74.856ZM75.64 86C76.89 86 77.997 85.767 78.958 85.3C79.919 84.833 80.661 84.17 81.184 83.312C81.707 82.453 81.968 81.455 81.968 80.316V72.084C81.968 70.945 81.707 69.947 81.184 69.088C80.661 68.229 79.919 67.567 78.958 67.1C77.997 66.633 76.891 66.4 75.64 66.4H69.62C69.5757 66.3992 69.5318 66.4075 69.4909 66.4243C69.4499 66.4412 69.4129 66.4663 69.382 66.498C69.3503 66.5289 69.3252 66.5659 69.3083 66.6068C69.2915 66.6478 69.2832 66.6917 69.284 66.736V85.664C69.284 85.757 69.317 85.837 69.382 85.902C69.4129 85.9337 69.4499 85.9588 69.4909 85.9756C69.5318 85.9925 69.5757 86.0008 69.62 86H75.64ZM73.372 82.612C73.279 82.612 73.232 82.565 73.232 82.472V69.928C73.232 69.835 73.279 69.788 73.372 69.788H75.668C76.378 69.788 76.947 70.035 77.376 70.53C77.806 71.025 78.02 71.692 78.02 72.532V79.868C78.001 80.689 77.777 81.348 77.348 81.842C76.918 82.337 76.358 82.584 75.668 82.584L73.372 82.612ZM9.364 108.224C11.268 108.224 12.794 107.724 13.942 106.726C15.09 105.727 15.664 104.379 15.664 102.68C15.664 101.728 15.459 100.916 15.048 100.244C14.6559 99.5922 14.137 99.0257 13.522 98.578C12.915 98.139 12.071 97.621 10.988 97.024L10.4 96.688C9.448 96.221 8.739 95.843 8.272 95.554C7.805 95.264 7.46 94.961 7.236 94.644C7.00855 94.3155 6.89093 93.9234 6.9 93.524C6.9 92.908 7.091 92.427 7.474 92.082C7.857 91.737 8.384 91.564 9.056 91.564C9.859 91.564 10.493 91.788 10.96 92.236C11.427 92.684 11.66 93.244 11.66 93.916V94.42C11.66 94.513 11.693 94.593 11.758 94.658C11.7889 94.6897 11.8259 94.7148 11.8669 94.7316C11.9078 94.7485 11.9517 94.7568 11.996 94.756H15.216C15.2603 94.7568 15.3042 94.7485 15.3452 94.7316C15.3861 94.7148 15.4231 94.6897 15.454 94.658C15.4857 94.6271 15.5108 94.5901 15.5277 94.5491C15.5445 94.5082 15.5528 94.4642 15.552 94.42V93.86C15.552 92.74 15.282 91.75 14.74 90.892C14.199 90.033 13.443 89.366 12.472 88.89C11.502 88.414 10.391 88.176 9.14 88.176C7.945 88.176 6.881 88.396 5.948 88.834C5.015 89.273 4.291 89.898 3.778 90.71C3.265 91.522 3.008 92.47 3.008 93.552C3.008 94.635 3.26 95.559 3.764 96.324C4.24191 97.0625 4.8603 97.6999 5.584 98.2C6.294 98.685 7.208 99.208 8.328 99.768C9.243 100.235 9.919 100.603 10.358 100.874C10.797 101.144 11.138 101.434 11.38 101.742C11.623 102.05 11.744 102.419 11.744 102.848C11.744 103.427 11.553 103.903 11.17 104.276C10.787 104.649 10.232 104.836 9.504 104.836C8.683 104.836 8.029 104.616 7.544 104.178C7.31028 103.975 7.12396 103.723 6.99818 103.44C6.8724 103.157 6.81021 102.85 6.816 102.54V102.008C6.81679 101.964 6.80851 101.92 6.79165 101.879C6.7748 101.838 6.74973 101.801 6.718 101.77C6.68713 101.738 6.65009 101.713 6.60915 101.696C6.56822 101.679 6.52426 101.671 6.48 101.672H3.26C3.21574 101.671 3.17179 101.679 3.13085 101.696C3.08992 101.713 3.05287 101.738 3.022 101.77C2.99027 101.801 2.96521 101.838 2.94835 101.879C2.9315 101.92 2.92321 101.964 2.924 102.008V102.736C2.924 103.819 3.19 104.776 3.722 105.606C4.254 106.436 5.005 107.081 5.976 107.538C6.946 107.995 8.076 108.224 9.364 108.224ZM21.572 108C21.6163 108.001 21.6602 107.992 21.7012 107.976C21.7421 107.959 21.7791 107.934 21.81 107.902C21.8417 107.871 21.8668 107.834 21.8836 107.793C21.9005 107.752 21.9088 107.708 21.908 107.664V100.384C21.908 100.291 21.955 100.244 22.048 100.244H25.072C26.192 100.244 27.186 100.001 28.054 99.516C28.912 99.0408 29.6126 98.3256 30.07 97.458C30.546 96.571 30.784 95.549 30.784 94.392C30.784 93.216 30.546 92.171 30.07 91.256C29.6179 90.3666 28.9177 89.6274 28.054 89.128C27.186 88.624 26.192 88.372 25.072 88.372H18.296C18.2517 88.3712 18.2078 88.3795 18.1669 88.3963C18.1259 88.4132 18.0889 88.4383 18.058 88.47C18.0263 88.5009 18.0012 88.5379 17.9844 88.5788C17.9675 88.6198 17.9592 88.6637 17.96 88.708V107.664C17.96 107.757 17.993 107.837 18.058 107.902C18.0889 107.934 18.1259 107.959 18.1669 107.976C18.2078 107.992 18.2517 108.001 18.296 108H21.572ZM24.428 97.108H22.048C21.955 97.108 21.908 97.061 21.908 96.968V91.928C21.908 91.835 21.955 91.788 22.048 91.788H24.428C25.156 91.788 25.739 92.031 26.178 92.516C26.617 93.001 26.836 93.655 26.836 94.476C26.836 95.279 26.616 95.918 26.178 96.394C25.739 96.87 25.156 97.108 24.428 97.108ZM39.072 108.252C40.36 108.252 41.499 107.991 42.488 107.468C43.4522 106.97 44.2501 106.201 44.784 105.256C45.325 104.304 45.596 103.193 45.596 101.924V94.476C45.596 93.226 45.326 92.124 44.784 91.172C44.2501 90.2271 43.4522 89.4583 42.488 88.96C41.498 88.437 40.36 88.176 39.072 88.176C37.784 88.176 36.65 88.437 35.67 88.96C34.7117 89.4616 33.9192 90.2298 33.388 91.172C32.847 92.124 32.576 93.225 32.576 94.476V101.924C32.576 103.194 32.846 104.304 33.388 105.256C33.9192 106.198 34.7117 106.966 35.67 107.468C36.65 107.991 37.784 108.252 39.072 108.252ZM39.072 104.864C38.307 104.864 37.691 104.607 37.224 104.094C36.757 103.581 36.524 102.914 36.524 102.092V94.364C36.524 93.524 36.757 92.847 37.224 92.334C37.691 91.821 38.307 91.564 39.072 91.564C39.856 91.564 40.482 91.821 40.948 92.334C41.415 92.847 41.648 93.524 41.648 94.364V102.092C41.648 102.913 41.415 103.581 40.948 104.094C40.481 104.607 39.856 104.864 39.072 104.864ZM54.304 108.224C55.574 108.224 56.694 107.977 57.664 107.482C58.6065 107.014 59.3904 106.279 59.918 105.368C60.45 104.453 60.716 103.398 60.716 102.204V102.12C60.7168 102.076 60.7085 102.032 60.6917 101.991C60.6748 101.95 60.6497 101.913 60.618 101.882C60.5871 101.85 60.5501 101.825 60.5092 101.808C60.4682 101.791 60.4243 101.783 60.38 101.784L57.104 101.644C56.88 101.644 56.768 101.747 56.768 101.952V102.316C56.768 103.081 56.544 103.693 56.096 104.15C55.648 104.607 55.051 104.836 54.304 104.836C53.557 104.836 52.96 104.607 52.512 104.15C52.064 103.693 51.84 103.081 51.84 102.316V94.112C51.84 93.347 52.064 92.731 52.512 92.264C52.96 91.797 53.557 91.564 54.304 91.564C55.051 91.564 55.648 91.797 56.096 92.264C56.544 92.731 56.768 93.347 56.768 94.112V94.476C56.768 94.681 56.88 94.784 57.104 94.784L60.38 94.644C60.4255 94.6443 60.4705 94.6343 60.5117 94.615C60.5529 94.5956 60.5892 94.5672 60.618 94.532C60.681 94.4632 60.716 94.3733 60.716 94.28V94.14C60.716 92.945 60.45 91.9 59.918 91.004C59.386 90.108 58.635 89.413 57.664 88.918C56.694 88.423 55.574 88.176 54.304 88.176C53.034 88.176 51.914 88.428 50.944 88.932C49.9998 89.4108 49.2163 90.1554 48.69 91.074C48.158 91.998 47.892 93.067 47.892 94.28V102.064C47.892 103.296 48.158 104.379 48.69 105.312C49.213 106.237 49.997 106.987 50.944 107.468C51.914 107.972 53.034 108.224 54.304 108.224ZM66.848 108C66.8923 108.001 66.9362 107.992 66.9771 107.976C67.0181 107.959 67.0551 107.934 67.086 107.902C67.1177 107.871 67.1428 107.834 67.1596 107.793C67.1765 107.752 67.1848 107.708 67.184 107.664V102.064C67.1908 102.005 67.2099 101.948 67.24 101.896L68.5 100.076C68.537 100.02 68.575 99.992 68.612 99.992C68.649 99.992 68.677 100.02 68.696 100.076L72.672 107.748C72.765 107.916 72.896 108 73.064 108H76.648C76.853 108 76.956 107.925 76.956 107.776C76.9492 107.717 76.9301 107.66 76.9 107.608L71.412 97.024C71.3932 96.96 71.3932 96.892 71.412 96.828L76.592 88.792C76.667 88.68 76.681 88.587 76.634 88.512C76.587 88.437 76.499 88.4 76.368 88.4H72.756C72.6765 88.3983 72.598 88.4183 72.529 88.4577C72.46 88.4972 72.4029 88.5547 72.364 88.624L67.352 96.24C67.333 96.296 67.301 96.315 67.254 96.296C67.207 96.277 67.184 96.24 67.184 96.184V88.736C67.1848 88.6917 67.1765 88.6478 67.1596 88.6068C67.1428 88.5659 67.1177 88.5289 67.086 88.498C67.0551 88.4663 67.0181 88.4412 66.9771 88.4243C66.9362 88.4075 66.8923 88.3992 66.848 88.4H63.572C63.5277 88.3992 63.4838 88.4075 63.4429 88.4243C63.4019 88.4412 63.3649 88.4663 63.334 88.498C63.3023 88.5289 63.2772 88.5659 63.2604 88.6068C63.2435 88.6478 63.2352 88.6917 63.236 88.736V107.664C63.236 107.757 63.269 107.837 63.334 107.902C63.3649 107.934 63.4019 107.959 63.4429 107.976C63.4838 107.992 63.5277 108.001 63.572 108H66.848Z" fill="white"/>
</g>
<defs>
<filter id="filter0_d_1_50" x="-0.0760498" y="0.175995" width="114.836" height="114.076" filterUnits="userSpaceOnUse" color-interpolation-filters="sRGB">
<feFlood flood-opacity="0" result="BackgroundImageFix"/>
<feColorMatrix in="SourceAlpha" type="matrix" values="0 0 0 0 0 0 0 0 0 0 0 0 0 0 0 0 0 0 127 0" result="hardAlpha"/>
<feOffset dy="3"/>
<feGaussianBlur stdDeviation="1.5"/>
<feColorMatrix type="matrix" values="0 0 0 0 0 0 0 0 0 0 0 0 0 0 0 0 0 0 0.196706 0"/>
<feBlend mode="normal" in2="BackgroundImageFix" result="effect1_dropShadow_1_50"/>
<feBlend mode="normal" in="SourceGraphic" in2="effect1_dropShadow_1_50" result="shape"/>
</filter>
<clipPath id="clip0_1_50">
<rect width="115" height="114" fill="white"/>
</clipPath>
</defs>
</svg>
