<svg width="340" height="330" viewBox="0 0 340 330" fill="none" xmlns="http://www.w3.org/2000/svg">
<path d="M284.5 192.344C312.943 192.344 336 169.881 336 142.172C336 114.463 312.943 92 284.5 92C256.057 92 233 114.463 233 142.172C233 169.881 256.057 192.344 284.5 192.344Z" fill="#B1B4C5"/>
<path d="M284.5 192.344C312.943 192.344 336 169.881 336 142.172C336 114.463 312.943 92 284.5 92C256.057 92 233 114.463 233 142.172C233 169.881 256.057 192.344 284.5 192.344Z" fill="url(#paint0_linear_1_60)"/>
<path d="M284.5 182.517C306.335 182.517 324.035 164.917 324.035 143.207C324.035 121.497 306.335 103.897 284.5 103.897C262.665 103.897 244.965 121.497 244.965 143.207C244.965 164.917 262.665 182.517 284.5 182.517Z" fill="#E1E4ED"/>
<path d="M299.861 133.03C299.583 132.921 299.285 132.873 298.987 132.89C298.582 132.918 298.255 133.082 298.062 133.35C296.922 134.945 295.988 137.957 295.235 140.378C294.89 141.497 294.425 142.994 294.09 143.705C293.74 141.714 294.135 134.418 294.289 131.609L294.291 131.563C294.398 129.611 294.412 129.269 294.389 129.119C294.219 128.049 293.79 127.345 293.111 127.031C292.425 126.711 291.534 126.853 290.574 127.43C290.093 127.72 289.96 128.718 289.546 133.24L289.545 133.26C289.317 135.745 288.794 141.466 288.15 142.419C287.423 141.086 286.422 133.512 285.99 130.234C285.689 127.938 285.513 126.62 285.394 126.222C285.145 125.388 284.094 124.678 283.054 124.639C282.187 124.596 281.476 125.036 281.137 125.801C280.502 126.506 280.727 128.846 281.427 134.387C281.762 137.024 282.451 142.471 282.017 143.082C281.152 142.988 279.667 139.576 277.603 132.938C277.023 131.078 276.844 130.52 276.666 130.275C276.316 129.422 275.124 128.765 274.056 128.839C273.964 128.845 273.876 128.857 273.788 128.874C273.228 128.984 271.952 129.499 272.224 131.872C272.978 135.162 273.797 137.577 274.591 139.922L274.607 139.968C275.083 141.372 275.532 142.699 275.95 144.172C276.934 147.648 276.551 149.805 276.546 149.83C276.514 150.052 276.446 150.187 276.342 150.235C276.298 150.254 276.251 150.264 276.203 150.266C275.892 150.288 275.423 150.081 275.183 149.947C274.632 148.896 271.89 143.885 269.405 143.19L269.315 143.164L269.225 143.172C268.314 143.258 267.644 143.602 267.234 144.195C266.585 145.132 266.854 146.325 266.919 146.564L266.955 146.65C266.975 146.686 268.968 150.314 269.277 152.002C269.543 153.449 270.919 155.017 272.025 156.277L272.071 156.328C272.431 156.741 272.743 157.097 272.988 157.427C276.198 160.77 281.275 163.583 281.316 163.606C281.949 164.072 282.301 164.523 282.339 164.912C282.356 165.058 282.315 165.205 282.225 165.322L282.115 165.438L282.817 166.119L296.209 165.179L296.78 162.566C298.546 155.186 298.177 148.894 298.171 148.852C298.178 148.62 298.673 146.382 299.071 144.572L299.082 144.526C299.876 140.923 300.862 136.439 301.052 134.733C301.134 134.003 300.666 133.334 299.862 133.03H299.861Z" fill="#8A90AC"/>
<path d="M51.5 197C79.9427 197 103 173.495 103 144.5C103 115.505 79.9427 92 51.5 92C23.0573 92 0 115.505 0 144.5C0 173.495 23.0573 197 51.5 197Z" fill="#B1B4C5"/>
<path d="M51.5 192.344C79.9427 192.344 103 169.881 103 142.172C103 114.463 79.9427 92 51.5 92C23.0573 92 0 114.463 0 142.172C0 169.881 23.0573 192.344 51.5 192.344Z" fill="url(#paint1_linear_1_60)"/>
<path d="M51.5 182.517C73.3346 182.517 91.035 164.917 91.035 143.207C91.035 121.497 73.3346 103.897 51.5 103.897C29.6654 103.897 11.965 121.497 11.965 143.207C11.965 164.917 29.6654 182.517 51.5 182.517Z" fill="#E1E4ED"/>
<path d="M68.933 146.218L68.32 145.608C66.855 144.152 64.46 143.834 62.673 144.856L58.853 147.026L59.65 129.644C59.6473 128.941 59.3659 128.268 58.8673 127.772C58.3688 127.276 57.694 126.999 56.991 127C56.674 127 56.37 127.056 56.087 127.158L56.182 126.225C56.182 124.751 54.971 123.552 53.484 123.552C52.109 123.552 50.956 124.577 50.81 125.892L48.36 140.613C48.328 140.813 47.979 140.793 47.942 140.667L45.047 128.865C44.8889 128.328 44.5614 127.856 44.1132 127.519C43.665 127.183 43.1202 127.001 42.56 127C41.766 127 41.027 127.356 40.533 127.975C40.29 128.278 40.1196 128.632 40.0346 129.011C39.9497 129.39 39.9526 129.783 40.043 130.161L40.606 132.537C40.2848 132.512 39.9619 132.553 39.657 132.657C39.1046 132.838 38.635 133.21 38.3322 133.707C38.0295 134.203 37.9135 134.791 38.005 135.365L39.708 145.104C39.708 148.946 40.386 151.789 40.954 153.496C41.278 154.47 41.442 155.495 41.442 156.541C41.442 157.452 41.315 158.359 41.062 159.234L39.742 163.833C39.7056 163.962 39.6996 164.097 39.7244 164.228C39.7491 164.359 39.8041 164.483 39.8848 164.59C39.9656 164.696 40.07 164.782 40.1897 164.842C40.3095 164.901 40.4414 164.931 40.575 164.931H56.182C56.3188 164.931 56.4536 164.899 56.5754 164.836C56.6972 164.774 56.8026 164.684 56.8829 164.573C56.9632 164.463 57.0161 164.334 57.0373 164.199C57.0586 164.064 57.0475 163.926 57.005 163.796C56.996 163.774 56.271 161.548 56.957 158.52C57.827 157.817 60.874 155.354 61.968 154.36C63.777 152.718 68.732 147.644 68.942 147.428C69.1007 147.266 69.1888 147.048 69.1871 146.821C69.1854 146.594 69.0941 146.378 68.933 146.218Z" fill="#8A90AC"/>
<path d="M168.5 105C196.943 105 220 81.4949 220 52.5C220 23.5051 196.943 0 168.5 0C140.057 0 117 23.5051 117 52.5C117 81.4949 140.057 105 168.5 105Z" fill="#B1B4C5"/>
<path d="M168.5 100.344C196.943 100.344 220 77.8812 220 50.172C220 22.4628 196.943 0 168.5 0C140.057 0 117 22.4628 117 50.172C117 77.8812 140.057 100.344 168.5 100.344Z" fill="url(#paint2_linear_1_60)"/>
<path d="M168.5 90.517C190.335 90.517 208.035 72.9173 208.035 51.207C208.035 29.4967 190.335 11.897 168.5 11.897C146.665 11.897 128.965 29.4967 128.965 51.207C128.965 72.9173 146.665 90.517 168.5 90.517Z" fill="#E1E4ED"/>
<path d="M158.179 50.871L162.45 44.901C160.675 44.606 157.415 44.541 154.745 47.196C150.537 51.38 148.832 60.421 148.477 62.609L159.173 73.245C161.099 73.081 169.625 71.949 177.84 63.781C177.927 63.604 179.928 62.134 178.292 60.507C177.512 59.731 176.219 59.745 175.421 60.539C175.328 60.6349 175.217 60.7113 175.094 60.764C174.971 60.8166 174.84 60.8444 174.706 60.8457C174.572 60.847 174.44 60.8218 174.316 60.7716C174.192 60.7213 174.08 60.647 173.985 60.553C173.891 60.4593 173.816 60.3475 173.765 60.2244C173.715 60.1012 173.689 59.9692 173.69 59.8361C173.692 59.7029 173.72 59.5714 173.773 59.4493C173.826 59.3272 173.903 59.2169 173.999 59.125L176.902 56.239C178.378 54.772 176.987 52.298 174.928 52.892L172.551 54.915C172.347 55.0909 172.082 55.1792 171.813 55.1607C171.544 55.1422 171.294 55.0183 171.116 54.816C170.747 54.392 170.826 53.749 171.246 53.387C179.547 46.145 178.336 47.017 183.676 42.04C185.672 40.388 183.161 37.465 181.195 39.139L168.275 50.691C168.09 50.848 167.854 50.9329 167.611 50.9304C167.369 50.9278 167.135 50.8379 166.953 50.677C166.526 50.31 166.516 49.782 166.795 49.365L175.807 35.434C177.125 33.66 174.532 31.69 173.144 33.478L159.819 52.008C159.743 52.1171 159.646 52.21 159.534 52.2814C159.421 52.3529 159.296 52.4014 159.165 52.4243C159.034 52.4472 158.9 52.4439 158.77 52.4147C158.64 52.3854 158.518 52.3308 158.409 52.254C158.301 52.1797 158.21 52.0844 158.14 51.974C158.07 51.8636 158.023 51.7402 158.001 51.6112C157.98 51.4822 157.984 51.3502 158.015 51.2231C158.046 51.0959 158.101 50.9762 158.179 50.871Z" fill="#8A90AC"/>
<path d="M238.5 330C266.943 330 290 306.495 290 277.5C290 248.505 266.943 225 238.5 225C210.057 225 187 248.505 187 277.5C187 306.495 210.057 330 238.5 330Z" fill="#B1B4C5"/>
<path d="M238.5 325.344C266.943 325.344 290 302.881 290 275.172C290 247.463 266.943 225 238.5 225C210.057 225 187 247.463 187 275.172C187 302.881 210.057 325.344 238.5 325.344Z" fill="url(#paint3_linear_1_60)"/>
<path d="M238.5 315.517C260.335 315.517 278.035 297.917 278.035 276.207C278.035 254.497 260.335 236.897 238.5 236.897C216.665 236.897 198.965 254.497 198.965 276.207C198.965 297.917 216.665 315.517 238.5 315.517Z" fill="#E1E4ED"/>
<path d="M253.815 270.562C253.36 264.818 246.901 265.405 246.901 265.405C244.175 260.605 239.917 264.082 239.917 264.082C236.645 259.378 232.543 263.737 232.543 263.737C225.471 262.975 225.745 268.75 225.745 268.75C225.578 270.586 226.741 276.265 226.741 276.265C225.692 272.992 223.416 275.709 223.416 275.709C220.619 280.021 222.725 282.382 222.725 282.382C226.51 286.813 234.579 292.132 234.579 292.132C237.499 293.803 236.264 295.293 236.264 295.293L253.934 292.377L254.341 289.031C257.027 280.917 253.816 270.561 253.816 270.561L253.815 270.562Z" fill="#8A90AC"/>
<path d="M97.5 330C125.943 330 149 306.495 149 277.5C149 248.505 125.943 225 97.5 225C69.0573 225 46 248.505 46 277.5C46 306.495 69.0573 330 97.5 330Z" fill="#B1B4C5"/>
<path d="M97.5 325.344C125.943 325.344 149 302.881 149 275.172C149 247.463 125.943 225 97.5 225C69.0573 225 46 247.463 46 275.172C46 302.881 69.0573 325.344 97.5 325.344Z" fill="url(#paint4_linear_1_60)"/>
<path d="M97.5 315.517C119.335 315.517 137.035 297.917 137.035 276.207C137.035 254.497 119.335 236.897 97.5 236.897C75.6654 236.897 57.965 254.497 57.965 276.207C57.965 297.917 75.6654 315.517 97.5 315.517Z" fill="#E1E4ED"/>
<path d="M110.275 258.413C112.569 256.994 114.767 256.687 116.465 257.548C120.271 259.478 119.72 266.661 118.163 269.774C117.283 271.531 115.725 272.814 113.526 273.595C112.674 276.29 111.478 278.606 109.951 280.522C110.963 281.367 112.24 281.828 113.558 281.826H113.622L115.768 279.71C116.029 279.454 116.38 279.311 116.746 279.311C117.112 279.311 117.463 279.454 117.724 279.71C117.852 279.836 117.954 279.986 118.024 280.151C118.094 280.317 118.129 280.495 118.129 280.674C118.129 280.854 118.094 281.032 118.024 281.198C117.954 281.363 117.852 281.513 117.724 281.639L117.534 281.826H117.965C118.729 281.826 119.348 282.436 119.348 283.19C119.348 283.943 118.728 284.553 117.965 284.553H117.533L117.723 284.741C117.851 284.867 117.953 285.017 118.023 285.182C118.092 285.348 118.128 285.525 118.128 285.705C118.128 285.885 118.092 286.062 118.023 286.228C117.953 286.393 117.851 286.543 117.723 286.669C117.453 286.936 117.099 287.069 116.745 287.069C116.391 287.069 116.037 286.936 115.767 286.669L113.621 284.553H113.557C111.544 284.556 109.597 283.837 108.07 282.526C107.775 282.794 107.471 283.051 107.157 283.296C104.507 285.366 101.265 286.571 97.477 286.9C97.955 288.335 98.048 289.89 97.721 291.407L97.708 291.47L99.359 294.068C99.5588 294.382 99.6269 294.762 99.5486 295.126C99.4704 295.49 99.2522 295.808 98.941 296.012C98.7872 296.111 98.6151 296.179 98.4349 296.212C98.2547 296.244 98.0698 296.241 97.8909 296.201C97.712 296.162 97.5427 296.088 97.3927 295.983C97.2427 295.877 97.115 295.744 97.017 295.589L96.871 295.359L96.778 295.789C96.7399 295.968 96.6668 296.138 96.5629 296.289C96.4591 296.441 96.3265 296.57 96.1727 296.669C96.0189 296.769 95.847 296.838 95.6667 296.871C95.4864 296.905 95.3013 296.902 95.122 296.864C94.7594 296.782 94.4438 296.56 94.2442 296.247C94.0447 295.933 93.9774 295.553 94.057 295.19L94.15 294.76L93.922 294.908C93.275 295.328 92.414 295.139 91.998 294.485C91.7984 294.171 91.7304 293.791 91.8088 293.427C91.8873 293.063 92.1057 292.745 92.417 292.541L94.987 290.871L95.001 290.808C95.2805 289.512 95.1013 288.159 94.494 286.981C93.3541 286.948 92.2168 286.853 91.087 286.698C87.759 286.248 85.872 287.714 85.373 288.174C81.453 291.787 80.694 298.172 80.687 298.236C80.6487 298.578 80.4858 298.895 80.2292 299.125C79.9727 299.355 79.6405 299.482 79.296 299.483C79.0675 299.483 78.8424 299.427 78.6406 299.319C78.4387 299.212 78.2662 299.057 78.138 298.868C78.075 298.775 76.6 296.573 75.953 293.465C75.074 289.245 76.122 285.372 78.983 282.268C80.6808 280.434 82.818 279.062 85.193 278.283L84.901 278.359C84.1502 278.01 83.3321 277.829 82.504 277.829H82.44L80.286 279.945C80.015 280.212 79.659 280.345 79.304 280.345C78.949 280.345 78.594 280.212 78.322 279.945C78.1935 279.82 78.0913 279.67 78.0215 279.504C77.9518 279.338 77.9158 279.161 77.9158 278.981C77.9158 278.801 77.9518 278.624 78.0215 278.458C78.0913 278.292 78.1935 278.142 78.322 278.017L78.513 277.829H78.08C77.313 277.829 76.691 277.219 76.691 276.466C76.691 275.712 77.313 275.102 78.08 275.102H78.513L78.323 274.914C78.1945 274.789 78.0923 274.639 78.0225 274.473C77.9528 274.307 77.9168 274.13 77.9168 273.95C77.9168 273.77 77.9528 273.593 78.0225 273.427C78.0923 273.261 78.1945 273.111 78.323 272.986C78.5856 272.73 78.9378 272.587 79.3045 272.587C79.6712 272.587 80.0234 272.73 80.286 272.986L82.44 275.102H82.504C84.849 275.102 87.072 276.062 88.656 277.745L88.502 277.587C89.7676 277.461 91.0436 277.483 92.304 277.654C95.817 278.129 98.69 277.641 100.908 276.198C99.6586 274.652 98.9792 272.723 98.984 270.735V270.67L96.86 268.48C96.6029 268.212 96.4593 267.854 96.4593 267.483C96.4593 267.111 96.6029 266.753 96.86 266.485C96.9851 266.354 97.1354 266.25 97.3017 266.179C97.4681 266.108 97.6471 266.072 97.828 266.072C98.0089 266.072 98.188 266.108 98.3543 266.179C98.5207 266.25 98.6709 266.354 98.796 266.485L98.983 266.679V266.239C98.983 265.459 99.596 264.828 100.353 264.828C101.108 264.828 101.721 265.459 101.721 266.238V266.679L101.909 266.485C102.034 266.354 102.184 266.251 102.351 266.18C102.517 266.109 102.696 266.072 102.877 266.072C103.057 266.072 103.236 266.109 103.402 266.18C103.569 266.251 103.719 266.354 103.844 266.485C104.659 267.325 104.071 268.247 103.844 268.481L101.721 270.67V270.735C101.721 272.067 102.171 273.341 102.98 274.353C103.982 273.155 104.77 271.65 105.34 269.839C104.923 268.686 104.275 265.957 105.929 262.861C106.795 261.239 108.46 259.535 110.274 258.413H110.275Z" fill="#8A90AC"/>
<path d="M104.26 68.0706L81.2587 87.3709C80.6947 87.8442 80.6212 88.685 81.0944 89.2489L81.095 89.2497C81.5682 89.8136 82.409 89.8872 82.973 89.414L105.974 70.1136C106.538 69.6404 106.612 68.7996 106.139 68.2357L106.138 68.2349C105.665 67.6709 104.824 67.5974 104.26 68.0706Z" fill="#B1B4C5"/>
<path fill-rule="evenodd" clip-rule="evenodd" d="M97.8333 66.5132L105.877 67.3603C106.55 67.4312 107.043 68.026 106.991 68.702C106.978 68.86 106.934 69.0138 106.861 69.1544C106.788 69.295 106.688 69.4196 106.566 69.5208C106.444 69.622 106.303 69.6978 106.151 69.7436C105.999 69.7895 105.84 69.8046 105.683 69.7879L97.6394 68.9408C97.3153 68.9067 97.0175 68.7473 96.8093 68.4966C96.6012 68.2459 96.4993 67.9238 96.5252 67.599C96.5379 67.4411 96.582 67.2873 96.655 67.1467C96.728 67.0061 96.8284 66.8815 96.9503 66.7803C97.0722 66.6791 97.2131 66.6033 97.3648 66.5575C97.5165 66.5116 97.6758 66.4965 97.8333 66.5132Z" fill="#B1B4C5"/>
<path fill-rule="evenodd" clip-rule="evenodd" d="M103.967 76.4818L104.529 68.4129C104.54 68.2548 104.582 68.1006 104.654 67.9592C104.726 67.8179 104.825 67.6923 104.946 67.5899C105.067 67.4875 105.207 67.4103 105.358 67.3629C105.509 67.3155 105.668 67.2989 105.826 67.314C106.5 67.3787 107.002 67.9684 106.954 68.6442L106.392 76.7131C106.381 76.8711 106.338 77.0254 106.267 77.1667C106.195 77.3081 106.096 77.4336 105.975 77.5361C105.854 77.6385 105.714 77.7156 105.563 77.763C105.412 77.8104 105.253 77.8271 105.095 77.812C104.771 77.7812 104.471 77.6248 104.26 77.3763C104.05 77.1278 103.944 76.8068 103.967 76.4818Z" fill="#B1B4C5"/>
<path d="M252.26 87.9298L229.258 68.6294C228.694 68.1562 228.621 67.3154 229.094 66.7515L229.095 66.7507C229.568 66.1868 230.409 66.1132 230.973 66.5864L253.974 85.8868C254.538 86.36 254.611 87.2008 254.138 87.7647L254.137 87.7655C253.664 88.3294 252.823 88.403 252.26 87.9298Z" fill="#B1B4C5"/>
<path fill-rule="evenodd" clip-rule="evenodd" d="M245.833 89.4872L253.876 88.6401C254.549 88.5692 255.043 87.9744 254.99 87.2983C254.978 87.1404 254.934 86.9866 254.861 86.846C254.788 86.7054 254.687 86.5808 254.565 86.4796C254.443 86.3784 254.302 86.3026 254.151 86.2568C253.999 86.2109 253.84 86.1958 253.682 86.2125L245.639 87.0596C245.315 87.0937 245.017 87.2531 244.809 87.5038C244.601 87.7545 244.499 88.0766 244.525 88.4013C244.537 88.5593 244.582 88.7131 244.655 88.8537C244.728 88.9943 244.828 89.1189 244.95 89.2201C245.072 89.3213 245.213 89.3971 245.364 89.4429C245.516 89.4888 245.675 89.5039 245.833 89.4872Z" fill="#B1B4C5"/>
<path fill-rule="evenodd" clip-rule="evenodd" d="M251.967 79.5186L252.528 87.5875C252.539 87.7456 252.582 87.8998 252.654 88.0412C252.725 88.1825 252.824 88.3081 252.945 88.4105C253.066 88.5129 253.206 88.5901 253.358 88.6375C253.509 88.6849 253.668 88.7015 253.826 88.6864C254.5 88.6217 255.001 88.032 254.953 87.3562L254.392 79.2873C254.381 79.1292 254.338 78.975 254.266 78.8337C254.195 78.6923 254.096 78.5668 253.975 78.4643C253.854 78.3619 253.714 78.2848 253.563 78.2374C253.411 78.19 253.252 78.1733 253.094 78.1884C252.77 78.2192 252.471 78.3756 252.26 78.6241C252.049 78.8726 251.944 79.1936 251.967 79.5186Z" fill="#B1B4C5"/>
<path d="M281.224 229.871L299.294 205.891C299.737 205.303 299.62 204.467 299.032 204.024L299.031 204.024C298.443 203.58 297.607 203.698 297.164 204.286L279.094 228.266C278.651 228.854 278.769 229.689 279.357 230.133L279.357 230.133C279.945 230.576 280.781 230.459 281.224 229.871Z" fill="#B1B4C5"/>
<path fill-rule="evenodd" clip-rule="evenodd" d="M287.837 229.943L279.809 230.927C279.137 231.009 278.522 230.54 278.421 229.87C278.398 229.713 278.407 229.553 278.446 229.4C278.486 229.246 278.555 229.102 278.651 228.976C278.747 228.85 278.868 228.745 279.005 228.666C279.143 228.587 279.294 228.537 279.452 228.518L287.479 227.534C287.803 227.494 288.129 227.582 288.388 227.78C288.647 227.977 288.819 228.268 288.867 228.59C288.89 228.747 288.882 228.907 288.842 229.06C288.803 229.214 288.733 229.358 288.637 229.484C288.541 229.61 288.42 229.715 288.283 229.794C288.146 229.873 287.994 229.923 287.837 229.943Z" fill="#B1B4C5"/>
<path fill-rule="evenodd" clip-rule="evenodd" d="M279.618 221.609L280.885 229.598C280.91 229.754 280.903 229.914 280.865 230.068C280.827 230.222 280.759 230.366 280.664 230.493C280.569 230.62 280.45 230.727 280.314 230.807C280.177 230.888 280.026 230.94 279.869 230.96C279.197 231.049 278.576 230.587 278.47 229.918L277.203 221.929C277.178 221.773 277.185 221.613 277.223 221.459C277.261 221.305 277.329 221.161 277.424 221.034C277.518 220.907 277.638 220.8 277.774 220.72C277.911 220.64 278.062 220.588 278.219 220.567C278.542 220.524 278.869 220.609 279.131 220.804C279.392 220.998 279.567 221.288 279.618 221.609Z" fill="#B1B4C5"/>
<path d="M154.641 303.667H184.667C185.403 303.667 186 304.264 186 305V305.001C186 305.737 185.403 306.334 184.667 306.334H154.641C153.905 306.334 153.308 305.737 153.308 305.001V305C153.308 304.264 153.905 303.667 154.641 303.667Z" fill="#B1B4C5"/>
<path fill-rule="evenodd" clip-rule="evenodd" d="M158.563 298.343L152.946 304.162C152.476 304.649 152.48 305.422 152.955 305.906C153.066 306.019 153.199 306.108 153.345 306.169C153.491 306.23 153.648 306.261 153.807 306.26C153.965 306.259 154.122 306.227 154.268 306.164C154.413 306.102 154.545 306.011 154.655 305.897L160.272 300.078C160.498 299.844 160.624 299.53 160.622 299.204C160.621 298.878 160.492 298.566 160.263 298.334C160.152 298.221 160.019 298.132 159.873 298.071C159.727 298.01 159.57 297.979 159.411 297.98C159.253 297.981 159.096 298.013 158.95 298.076C158.805 298.138 158.673 298.229 158.563 298.343Z" fill="#B1B4C5"/>
<path fill-rule="evenodd" clip-rule="evenodd" d="M160.272 309.922L154.655 304.102C154.545 303.988 154.413 303.897 154.268 303.835C154.122 303.773 153.965 303.74 153.807 303.74C153.648 303.739 153.491 303.77 153.345 303.831C153.199 303.892 153.066 303.981 152.955 304.094C152.48 304.577 152.475 305.351 152.946 305.838L158.563 311.658C158.673 311.772 158.805 311.863 158.951 311.925C159.096 311.987 159.253 312.02 159.411 312.02C159.57 312.021 159.727 311.99 159.873 311.929C160.019 311.868 160.152 311.779 160.263 311.666C160.492 311.434 160.621 311.122 160.622 310.796C160.624 310.47 160.498 310.156 160.272 309.922Z" fill="#B1B4C5"/>
<path d="M40.2243 206.129L58.2944 230.109C58.7375 230.697 58.62 231.533 58.032 231.976L58.0312 231.976C57.4433 232.419 56.6075 232.302 56.1644 231.714L38.0943 207.734C37.6513 207.146 37.7687 206.31 38.3567 205.867L38.3575 205.867C38.9455 205.424 39.7812 205.541 40.2243 206.129Z" fill="#B1B4C5"/>
<path fill-rule="evenodd" clip-rule="evenodd" d="M46.8365 206.057L38.8088 205.073C38.1371 204.991 37.5221 205.46 37.4214 206.13C37.3982 206.287 37.4066 206.447 37.4461 206.6C37.4856 206.754 37.5554 206.898 37.6514 207.024C37.7475 207.15 37.8677 207.255 38.0052 207.334C38.1426 207.413 38.2944 207.463 38.4517 207.482L46.4794 208.466C46.8028 208.506 47.1289 208.418 47.3881 208.22C47.6473 208.023 47.819 207.732 47.8668 207.41C47.89 207.253 47.8816 207.093 47.8421 206.94C47.8026 206.786 47.7328 206.642 47.6368 206.516C47.5408 206.39 47.4205 206.285 47.283 206.206C47.1456 206.127 46.9938 206.077 46.8365 206.057Z" fill="#B1B4C5"/>
<path fill-rule="evenodd" clip-rule="evenodd" d="M38.6176 214.391L39.8853 206.402C39.9101 206.246 39.9033 206.086 39.8653 205.932C39.8274 205.778 39.759 205.634 39.6642 205.507C39.5695 205.38 39.4503 205.273 39.3136 205.193C39.177 205.112 39.0257 205.06 38.8686 205.04C38.197 204.951 37.5758 205.413 37.4703 206.082L36.2027 214.071C36.1779 214.227 36.1847 214.387 36.2226 214.541C36.2606 214.695 36.329 214.839 36.4237 214.966C36.5185 215.093 36.6377 215.2 36.7743 215.28C36.911 215.36 37.0623 215.412 37.2194 215.433C37.5424 215.476 37.8693 215.391 38.1306 215.196C38.3918 215.002 38.5666 214.712 38.6176 214.391Z" fill="#B1B4C5"/>
<path d="M127.641 137.667H209.975C210.711 137.667 211.308 138.264 211.308 139V139.001C211.308 139.737 210.711 140.334 209.975 140.334H127.641C126.905 140.334 126.308 139.737 126.308 139.001V139C126.308 138.264 126.905 137.667 127.641 137.667Z" fill="#B1B4C5"/>
<path fill-rule="evenodd" clip-rule="evenodd" d="M131.563 132.343L125.946 138.162C125.476 138.649 125.48 139.422 125.955 139.906C126.066 140.019 126.199 140.108 126.345 140.169C126.491 140.23 126.648 140.261 126.807 140.26C126.965 140.259 127.122 140.227 127.268 140.164C127.413 140.102 127.545 140.011 127.655 139.897L133.272 134.078C133.498 133.844 133.624 133.53 133.622 133.204C133.621 132.878 133.492 132.566 133.263 132.334C133.152 132.221 133.019 132.132 132.873 132.071C132.727 132.01 132.57 131.979 132.411 131.98C132.253 131.981 132.096 132.013 131.95 132.076C131.805 132.138 131.673 132.229 131.563 132.343Z" fill="#B1B4C5"/>
<path fill-rule="evenodd" clip-rule="evenodd" d="M133.272 143.922L127.655 138.102C127.545 137.988 127.413 137.897 127.268 137.835C127.122 137.773 126.965 137.74 126.807 137.74C126.648 137.739 126.491 137.77 126.345 137.831C126.199 137.892 126.066 137.981 125.955 138.094C125.48 138.577 125.475 139.351 125.946 139.838L131.563 145.658C131.673 145.772 131.805 145.863 131.951 145.925C132.096 145.987 132.253 146.02 132.411 146.02C132.57 146.021 132.727 145.99 132.873 145.929C133.019 145.868 133.152 145.779 133.263 145.666C133.492 145.434 133.621 145.122 133.622 144.796C133.624 144.47 133.498 144.156 133.272 143.922Z" fill="#B1B4C5"/>
<path d="M161.316 148.81C161.296 148.818 161.296 148.828 161.316 148.84C161.504 148.932 161.648 149.064 161.748 149.236C161.852 149.408 161.906 149.616 161.91 149.86C161.91 150.22 161.802 150.5 161.586 150.7C161.374 150.9 161.092 151 160.74 151H159.558C159.518 151 159.498 150.98 159.498 150.94V146.86C159.498 146.82 159.518 146.8 159.558 146.8H160.692C161.06 146.8 161.348 146.896 161.556 147.088C161.764 147.276 161.868 147.546 161.868 147.898C161.868 148.122 161.82 148.31 161.724 148.462C161.632 148.614 161.496 148.73 161.316 148.81ZM159.948 147.172C159.932 147.172 159.924 147.18 159.924 147.196V148.642C159.924 148.658 159.932 148.666 159.948 148.666H160.698C160.93 148.666 161.112 148.6 161.244 148.468C161.38 148.336 161.448 148.158 161.448 147.934C161.448 147.698 161.38 147.512 161.244 147.376C161.112 147.24 160.93 147.172 160.698 147.172H159.948ZM160.728 150.622C160.96 150.622 161.144 150.55 161.28 150.406C161.416 150.262 161.484 150.066 161.484 149.818C161.484 149.566 161.414 149.368 161.274 149.224C161.138 149.08 160.952 149.008 160.716 149.008H159.948C159.932 149.008 159.924 149.016 159.924 149.032V150.598C159.924 150.614 159.932 150.622 159.948 150.622H160.728ZM165.013 147.112C165.013 147.152 164.993 147.172 164.953 147.172H163.153C163.137 147.172 163.129 147.18 163.129 147.196V148.684C163.129 148.7 163.137 148.708 163.153 148.708H164.365C164.405 148.708 164.425 148.728 164.425 148.768V149.02C164.425 149.06 164.405 149.08 164.365 149.08H163.153C163.137 149.08 163.129 149.088 163.129 149.104V150.604C163.129 150.62 163.137 150.628 163.153 150.628H164.953C164.993 150.628 165.013 150.648 165.013 150.688V150.94C165.013 150.98 164.993 151 164.953 151H162.763C162.723 151 162.703 150.98 162.703 150.94V146.86C162.703 146.82 162.723 146.8 162.763 146.8H164.953C164.993 146.8 165.013 146.82 165.013 146.86V147.112ZM167.907 151C167.871 151 167.849 150.982 167.841 150.946L167.643 150.196C167.639 150.184 167.629 150.178 167.613 150.178H166.179C166.163 150.178 166.153 150.184 166.149 150.196L165.951 150.946C165.943 150.982 165.921 151 165.885 151H165.573C165.553 151 165.537 150.994 165.525 150.982C165.517 150.97 165.515 150.954 165.519 150.934L166.641 146.854C166.649 146.818 166.671 146.8 166.707 146.8H167.091C167.127 146.8 167.149 146.818 167.157 146.854L168.279 150.934L168.285 150.952C168.285 150.984 168.265 151 168.225 151H167.907ZM166.251 149.806C166.247 149.81 166.247 149.816 166.251 149.824C166.259 149.828 166.267 149.83 166.275 149.83H167.517C167.525 149.83 167.531 149.828 167.535 149.824C167.543 149.816 167.545 149.81 167.541 149.806L166.905 147.394C166.901 147.386 166.897 147.382 166.893 147.382C166.889 147.382 166.885 147.386 166.881 147.394L166.251 149.806ZM170.735 146.8C170.775 146.8 170.795 146.82 170.795 146.86V147.112C170.795 147.152 170.775 147.172 170.735 147.172H169.757C169.741 147.172 169.733 147.18 169.733 147.196V150.94C169.733 150.98 169.713 151 169.673 151H169.367C169.327 151 169.307 150.98 169.307 150.94V147.196C169.307 147.18 169.299 147.172 169.283 147.172H168.341C168.301 147.172 168.281 147.152 168.281 147.112V146.86C168.281 146.82 168.301 146.8 168.341 146.8H170.735ZM172.535 151.048C172.159 151.048 171.859 150.95 171.635 150.754C171.415 150.554 171.305 150.288 171.305 149.956V149.794C171.305 149.754 171.325 149.734 171.365 149.734H171.659C171.699 149.734 171.719 149.754 171.719 149.794V149.932C171.719 150.156 171.795 150.336 171.947 150.472C172.099 150.608 172.301 150.676 172.553 150.676C172.789 150.676 172.975 150.612 173.111 150.484C173.247 150.356 173.315 150.188 173.315 149.98C173.315 149.844 173.283 149.726 173.219 149.626C173.155 149.526 173.061 149.434 172.937 149.35C172.813 149.266 172.635 149.16 172.403 149.032C172.155 148.9 171.959 148.784 171.815 148.684C171.675 148.584 171.561 148.462 171.473 148.318C171.385 148.174 171.341 147.998 171.341 147.79C171.341 147.466 171.445 147.212 171.653 147.028C171.861 146.844 172.139 146.752 172.487 146.752C172.859 146.752 173.155 146.854 173.375 147.058C173.595 147.262 173.705 147.532 173.705 147.868V148.006C173.705 148.046 173.685 148.066 173.645 148.066H173.345C173.305 148.066 173.285 148.046 173.285 148.006V147.874C173.285 147.65 173.213 147.47 173.069 147.334C172.925 147.194 172.727 147.124 172.475 147.124C172.251 147.124 172.075 147.182 171.947 147.298C171.823 147.414 171.761 147.578 171.761 147.79C171.761 147.926 171.791 148.04 171.851 148.132C171.911 148.224 171.997 148.308 172.109 148.384C172.225 148.46 172.401 148.562 172.637 148.69C172.909 148.842 173.117 148.972 173.261 149.08C173.409 149.184 173.525 149.306 173.609 149.446C173.697 149.582 173.741 149.75 173.741 149.95C173.741 150.286 173.633 150.554 173.417 150.754C173.201 150.95 172.907 151.048 172.535 151.048Z" fill="#B1B4C5"/>
<path d="M179.846 226.219L116.774 173.296C116.21 172.823 115.369 172.896 114.896 173.46L114.896 173.461C114.422 174.025 114.496 174.866 115.06 175.339L178.131 228.262C178.695 228.735 179.536 228.662 180.009 228.098L180.01 228.097C180.483 227.533 180.41 226.692 179.846 226.219Z" fill="#B1B4C5"/>
<path fill-rule="evenodd" clip-rule="evenodd" d="M180.264 219.62L180.826 227.688C180.873 228.363 180.373 228.953 179.698 229.018C179.54 229.033 179.381 229.016 179.23 228.969C179.079 228.921 178.939 228.844 178.818 228.742C178.697 228.639 178.598 228.514 178.527 228.372C178.455 228.231 178.413 228.077 178.402 227.919L177.839 219.85C177.816 219.525 177.922 219.204 178.132 218.956C178.343 218.707 178.643 218.551 178.967 218.52C179.125 218.505 179.284 218.522 179.435 218.569C179.586 218.617 179.726 218.694 179.847 218.797C179.968 218.899 180.067 219.025 180.139 219.166C180.21 219.307 180.253 219.462 180.264 219.62Z" fill="#B1B4C5"/>
<path fill-rule="evenodd" clip-rule="evenodd" d="M171.511 227.391L179.555 226.543C179.713 226.527 179.872 226.542 180.024 226.588C180.175 226.634 180.316 226.71 180.438 226.811C180.56 226.912 180.66 227.037 180.733 227.178C180.806 227.318 180.85 227.472 180.863 227.63C180.916 228.305 180.423 228.902 179.749 228.972L171.705 229.82C171.547 229.836 171.388 229.821 171.236 229.775C171.085 229.729 170.944 229.653 170.822 229.552C170.7 229.451 170.6 229.326 170.527 229.185C170.454 229.045 170.41 228.891 170.397 228.733C170.371 228.408 170.473 228.086 170.681 227.836C170.89 227.585 171.187 227.425 171.511 227.391Z" fill="#B1B4C5"/>
<path d="M149.502 189.196C149.481 189.189 149.475 189.197 149.483 189.219C149.567 189.41 149.593 189.604 149.559 189.8C149.528 189.999 149.436 190.193 149.282 190.382C149.051 190.658 148.788 190.803 148.494 190.817C148.203 190.834 147.923 190.73 147.653 190.503L146.747 189.744C146.717 189.718 146.714 189.69 146.74 189.659L149.363 186.534C149.388 186.503 149.416 186.501 149.447 186.526L150.316 187.255C150.598 187.492 150.757 187.75 150.793 188.031C150.831 188.309 150.737 188.583 150.511 188.852C150.367 189.024 150.209 189.137 150.038 189.192C149.87 189.249 149.691 189.25 149.502 189.196ZM149.507 187.062C149.495 187.052 149.483 187.053 149.473 187.065L148.543 188.173C148.533 188.185 148.534 188.196 148.546 188.206L149.121 188.688C149.299 188.838 149.481 188.904 149.667 188.888C149.856 188.874 150.022 188.781 150.166 188.61C150.318 188.429 150.385 188.243 150.368 188.051C150.355 187.862 150.259 187.693 150.081 187.544L149.507 187.062ZM147.887 190.206C148.064 190.355 148.252 190.418 148.448 190.395C148.645 190.373 148.823 190.266 148.983 190.076C149.145 189.883 149.218 189.686 149.204 189.486C149.192 189.288 149.096 189.114 148.915 188.962L148.327 188.468C148.314 188.458 148.303 188.459 148.293 188.471L147.286 189.671C147.276 189.683 147.277 189.694 147.289 189.705L147.887 190.206ZM153.425 190.272C153.4 190.302 153.372 190.305 153.341 190.279L151.962 189.122C151.95 189.112 151.938 189.113 151.928 189.125L150.972 190.265C150.961 190.277 150.962 190.288 150.975 190.299L151.903 191.078C151.934 191.103 151.936 191.132 151.911 191.162L151.749 191.355C151.723 191.386 151.695 191.388 151.664 191.363L150.736 190.584C150.723 190.573 150.712 190.574 150.702 190.587L149.738 191.736C149.727 191.748 149.728 191.759 149.741 191.77L151.119 192.927C151.15 192.952 151.153 192.98 151.127 193.011L150.965 193.204C150.939 193.235 150.911 193.237 150.88 193.211L149.203 191.804C149.172 191.778 149.17 191.75 149.195 191.719L151.818 188.594C151.844 188.563 151.872 188.561 151.902 188.586L153.58 189.994C153.611 190.02 153.613 190.048 153.587 190.079L153.425 190.272ZM153.143 195.11C153.116 195.087 153.11 195.059 153.127 195.026L153.458 194.325C153.462 194.313 153.459 194.302 153.446 194.292L152.348 193.37C152.336 193.36 152.324 193.358 152.313 193.364L151.679 193.812C151.65 193.834 151.622 193.834 151.594 193.811L151.355 193.61C151.34 193.597 151.331 193.582 151.33 193.565C151.332 193.551 151.34 193.537 151.356 193.525L154.838 191.12C154.868 191.098 154.896 191.098 154.924 191.122L155.218 191.368C155.245 191.391 155.251 191.419 155.234 191.452L153.471 195.299L153.464 195.316C153.443 195.341 153.417 195.34 153.387 195.315L153.143 195.11ZM152.642 193.131C152.636 193.132 152.633 193.136 152.63 193.145C152.634 193.153 152.639 193.16 152.645 193.165L153.596 193.963C153.603 193.968 153.608 193.971 153.614 193.97C153.625 193.969 153.631 193.966 153.63 193.96L154.693 191.704C154.696 191.695 154.695 191.689 154.692 191.687C154.689 191.684 154.683 191.685 154.675 191.688L152.642 193.131ZM158.009 193.71C158.04 193.736 158.042 193.764 158.016 193.795L157.854 193.988C157.829 194.019 157.801 194.021 157.77 193.995L157.021 193.367C157.008 193.357 156.997 193.358 156.987 193.37L154.58 196.238C154.555 196.268 154.526 196.271 154.496 196.245L154.261 196.049C154.231 196.023 154.228 195.995 154.254 195.964L156.661 193.096C156.671 193.084 156.67 193.072 156.658 193.062L155.936 192.457C155.905 192.431 155.903 192.403 155.929 192.372L156.091 192.179C156.116 192.148 156.144 192.146 156.175 192.172L158.009 193.71ZM156.658 198.122C156.37 197.88 156.203 197.613 156.157 197.318C156.117 197.024 156.204 196.749 156.418 196.495L156.522 196.371C156.547 196.34 156.576 196.338 156.606 196.363L156.831 196.552C156.862 196.578 156.865 196.606 156.839 196.637L156.75 196.743C156.606 196.914 156.549 197.101 156.578 197.303C156.607 197.505 156.718 197.687 156.911 197.849C157.092 198 157.275 198.071 157.462 198.06C157.648 198.05 157.808 197.965 157.942 197.805C158.029 197.701 158.081 197.59 158.096 197.472C158.111 197.355 158.098 197.224 158.057 197.08C158.016 196.936 157.948 196.74 157.853 196.493C157.747 196.232 157.672 196.018 157.626 195.848C157.583 195.682 157.574 195.515 157.599 195.348C157.624 195.181 157.704 195.018 157.837 194.859C158.046 194.611 158.289 194.483 158.566 194.476C158.844 194.468 159.116 194.577 159.383 194.8C159.667 195.039 159.829 195.308 159.866 195.606C159.903 195.903 159.814 196.181 159.598 196.438L159.509 196.544C159.484 196.575 159.456 196.577 159.425 196.551L159.195 196.358C159.165 196.333 159.162 196.305 159.188 196.274L159.273 196.173C159.417 196.001 159.477 195.817 159.454 195.62C159.434 195.42 159.327 195.24 159.134 195.078C158.963 194.934 158.791 194.865 158.618 194.871C158.448 194.881 158.295 194.966 158.159 195.129C158.072 195.233 158.021 195.34 158.008 195.449C157.995 195.558 158.007 195.677 158.044 195.808C158.084 195.94 158.153 196.132 158.252 196.381C158.362 196.673 158.438 196.906 158.479 197.081C158.526 197.256 158.536 197.424 158.51 197.585C158.49 197.746 158.416 197.903 158.287 198.056C158.072 198.314 157.817 198.449 157.522 198.464C157.231 198.475 156.943 198.361 156.658 198.122Z" fill="#B1B4C5"/>
<path d="M217.988 174.335L154.916 227.258C154.352 227.731 154.279 228.572 154.752 229.136L154.752 229.137C155.226 229.701 156.067 229.774 156.63 229.301L219.702 176.378C220.266 175.905 220.339 175.064 219.866 174.5L219.866 174.499C219.392 173.935 218.552 173.862 217.988 174.335Z" fill="#B1B4C5"/>
<path fill-rule="evenodd" clip-rule="evenodd" d="M211.561 172.777L219.604 173.624C220.277 173.695 220.771 174.29 220.718 174.966C220.706 175.124 220.662 175.278 220.589 175.419C220.516 175.559 220.415 175.684 220.293 175.785C220.171 175.886 220.031 175.962 219.879 176.008C219.727 176.054 219.568 176.069 219.41 176.052L211.367 175.205C211.043 175.171 210.745 175.011 210.537 174.761C210.329 174.51 210.227 174.188 210.253 173.863C210.266 173.705 210.31 173.551 210.383 173.411C210.456 173.27 210.556 173.146 210.678 173.044C210.8 172.943 210.941 172.867 211.093 172.822C211.244 172.776 211.403 172.761 211.561 172.777Z" fill="#B1B4C5"/>
<path fill-rule="evenodd" clip-rule="evenodd" d="M217.695 182.746L218.257 174.677C218.268 174.519 218.31 174.365 218.382 174.223C218.453 174.082 218.553 173.956 218.673 173.854C218.794 173.752 218.934 173.674 219.086 173.627C219.237 173.58 219.396 173.563 219.554 173.578C220.228 173.643 220.729 174.232 220.682 174.908L220.12 182.977C220.109 183.135 220.066 183.29 219.995 183.431C219.923 183.572 219.824 183.698 219.703 183.8C219.582 183.903 219.442 183.98 219.291 184.027C219.139 184.075 218.98 184.091 218.823 184.076C218.498 184.045 218.199 183.889 217.988 183.64C217.777 183.392 217.672 183.071 217.695 182.746Z" fill="#B1B4C5"/>
<path d="M176.258 197.789C176.247 197.808 176.254 197.815 176.277 197.812C176.48 197.761 176.675 197.77 176.862 197.837C177.053 197.902 177.228 198.027 177.388 198.211C177.619 198.487 177.716 198.771 177.679 199.063C177.645 199.353 177.494 199.61 177.224 199.837L176.319 200.596C176.288 200.622 176.26 200.62 176.234 200.589L173.611 197.464C173.586 197.433 173.588 197.405 173.619 197.379L174.488 196.65C174.769 196.414 175.052 196.302 175.335 196.315C175.615 196.326 175.868 196.466 176.094 196.735C176.238 196.907 176.322 197.082 176.346 197.26C176.374 197.436 176.344 197.612 176.258 197.789ZM174.157 197.413C174.144 197.424 174.143 197.435 174.154 197.447L175.083 198.555C175.094 198.567 175.105 198.568 175.117 198.558L175.692 198.076C175.869 197.927 175.966 197.759 175.983 197.573C176.002 197.385 175.94 197.205 175.796 197.033C175.644 196.852 175.472 196.753 175.281 196.737C175.092 196.717 174.909 196.782 174.731 196.931L174.157 197.413ZM176.972 199.555C177.15 199.406 177.244 199.232 177.256 199.035C177.267 198.837 177.194 198.643 177.034 198.453C176.872 198.26 176.691 198.153 176.491 198.133C176.295 198.11 176.106 198.174 175.925 198.326L175.337 198.82C175.325 198.83 175.324 198.841 175.334 198.854L176.341 200.053C176.351 200.066 176.362 200.067 176.374 200.056L176.972 199.555ZM177.998 194.112C178.024 194.142 178.021 194.17 177.991 194.196L176.612 195.353C176.6 195.363 176.599 195.375 176.609 195.387L177.565 196.527C177.576 196.539 177.587 196.54 177.599 196.53L178.528 195.751C178.558 195.725 178.587 195.728 178.612 195.758L178.774 195.951C178.8 195.982 178.797 196.01 178.767 196.036L177.838 196.815C177.826 196.825 177.825 196.836 177.835 196.849L178.8 197.998C178.81 198.01 178.821 198.011 178.833 198.001L180.212 196.844C180.243 196.818 180.271 196.82 180.297 196.851L180.459 197.044C180.485 197.075 180.482 197.103 180.451 197.129L178.774 198.536C178.743 198.562 178.715 198.56 178.689 198.529L176.067 195.403C176.041 195.373 176.043 195.345 176.074 195.319L177.752 193.911C177.782 193.885 177.811 193.888 177.836 193.919L177.998 194.112ZM182.714 195.23C182.687 195.253 182.658 195.253 182.629 195.231L181.995 194.784C181.984 194.777 181.973 194.779 181.961 194.789L180.862 195.711C180.85 195.721 180.846 195.732 180.851 195.744L181.181 196.446C181.198 196.478 181.193 196.506 181.165 196.53L180.926 196.73C180.911 196.743 180.895 196.749 180.878 196.747C180.864 196.743 180.852 196.732 180.843 196.714L179.079 192.868C179.062 192.835 179.068 192.807 179.095 192.784L179.389 192.537C179.417 192.514 179.445 192.513 179.475 192.536L182.957 194.94L182.973 194.95C182.994 194.975 182.988 195 182.958 195.025L182.714 195.23ZM180.678 195.38C180.678 195.385 180.682 195.39 180.69 195.393C180.698 195.391 180.706 195.388 180.712 195.383L181.663 194.584C181.67 194.579 181.673 194.574 181.673 194.568C181.674 194.557 181.672 194.551 181.666 194.55L179.629 193.112C179.621 193.108 179.615 193.108 179.612 193.11C179.609 193.113 179.608 193.118 179.61 193.127L180.678 195.38ZM182.181 190.195C182.211 190.169 182.24 190.172 182.265 190.202L182.427 190.395C182.453 190.426 182.45 190.454 182.42 190.48L181.671 191.108C181.658 191.119 181.657 191.13 181.668 191.142L184.074 194.01C184.1 194.041 184.098 194.069 184.067 194.095L183.832 194.292C183.802 194.317 183.774 194.315 183.748 194.284L181.341 191.416C181.331 191.404 181.32 191.403 181.308 191.413L180.586 192.019C180.555 192.044 180.527 192.042 180.501 192.011L180.339 191.818C180.314 191.788 180.316 191.759 180.347 191.734L182.181 190.195ZM186.291 192.292C186.003 192.533 185.71 192.651 185.412 192.645C185.115 192.633 184.86 192.5 184.647 192.246L184.542 192.122C184.517 192.091 184.519 192.063 184.55 192.037L184.775 191.848C184.806 191.822 184.834 191.825 184.86 191.855L184.948 191.961C185.092 192.133 185.266 192.222 185.47 192.228C185.674 192.235 185.872 192.157 186.065 191.995C186.246 191.843 186.347 191.675 186.369 191.489C186.391 191.304 186.335 191.131 186.202 190.972C186.114 190.868 186.014 190.798 185.901 190.763C185.787 190.727 185.656 190.717 185.507 190.732C185.358 190.748 185.154 190.781 184.894 190.832C184.619 190.89 184.394 190.927 184.22 190.943C184.048 190.957 183.882 190.937 183.722 190.883C183.562 190.829 183.416 190.723 183.282 190.563C183.074 190.315 182.99 190.054 183.031 189.779C183.072 189.504 183.226 189.255 183.493 189.031C183.777 188.792 184.07 188.68 184.369 188.695C184.669 188.71 184.927 188.846 185.143 189.103L185.232 189.209C185.257 189.24 185.255 189.268 185.224 189.294L184.994 189.487C184.964 189.512 184.936 189.51 184.91 189.479L184.825 189.378C184.681 189.206 184.51 189.115 184.312 189.103C184.112 189.088 183.915 189.162 183.722 189.324C183.551 189.468 183.453 189.626 183.43 189.797C183.409 189.965 183.467 190.131 183.604 190.293C183.691 190.397 183.787 190.465 183.892 190.497C183.997 190.529 184.117 190.538 184.252 190.525C184.39 190.508 184.59 190.473 184.853 190.42C185.159 190.361 185.402 190.327 185.582 190.317C185.762 190.302 185.929 190.321 186.084 190.374C186.239 190.422 186.38 190.522 186.509 190.675C186.725 190.933 186.814 191.207 186.777 191.499C186.738 191.788 186.576 192.052 186.291 192.292Z" fill="#B1B4C5"/>
<path d="M184.763 127.505L212.923 204.874C213.175 205.565 213.94 205.922 214.632 205.67L214.633 205.67C215.324 205.418 215.681 204.653 215.429 203.961L187.27 126.593C187.018 125.901 186.253 125.544 185.561 125.796L185.56 125.796C184.868 126.048 184.512 126.813 184.763 127.505Z" fill="#B1B4C5"/>
<path fill-rule="evenodd" clip-rule="evenodd" d="M181.102 133.011L184.649 125.743C184.946 125.135 185.673 124.874 186.291 125.155C186.435 125.221 186.564 125.315 186.671 125.431C186.779 125.548 186.861 125.685 186.915 125.834C186.968 125.983 186.991 126.142 186.982 126.3C186.974 126.458 186.933 126.613 186.864 126.755L183.317 134.024C183.174 134.317 182.922 134.542 182.615 134.652C182.309 134.762 181.971 134.747 181.675 134.612C181.531 134.546 181.401 134.452 181.294 134.335C181.187 134.219 181.104 134.082 181.051 133.932C180.997 133.783 180.974 133.625 180.983 133.467C180.992 133.308 181.032 133.154 181.102 133.011Z" fill="#B1B4C5"/>
<path fill-rule="evenodd" clip-rule="evenodd" d="M192.567 130.657L185.177 127.369C185.032 127.305 184.902 127.212 184.793 127.096C184.685 126.981 184.601 126.845 184.546 126.696C184.491 126.547 184.467 126.389 184.474 126.231C184.481 126.073 184.52 125.918 184.588 125.775C184.879 125.163 185.605 124.894 186.224 125.17L193.614 128.457C193.759 128.522 193.889 128.614 193.997 128.73C194.106 128.846 194.19 128.982 194.245 129.13C194.3 129.279 194.324 129.437 194.317 129.595C194.31 129.754 194.271 129.909 194.203 130.052C194.063 130.346 193.814 130.574 193.508 130.687C193.202 130.8 192.865 130.789 192.567 130.657Z" fill="#B1B4C5"/>
<path d="M192.188 173.8C192.202 173.816 192.211 173.813 192.216 173.79C192.238 173.582 192.313 173.401 192.44 173.248C192.566 173.092 192.743 172.97 192.971 172.883C193.309 172.76 193.61 172.765 193.871 172.9C194.132 173.031 194.322 173.262 194.443 173.592L194.847 174.703C194.861 174.741 194.849 174.766 194.811 174.78L190.977 176.175C190.939 176.189 190.914 176.177 190.9 176.14L190.512 175.074C190.386 174.728 190.378 174.425 190.487 174.164C190.593 173.904 190.811 173.714 191.142 173.593C191.352 173.517 191.545 173.497 191.721 173.536C191.895 173.57 192.051 173.658 192.188 173.8ZM191.116 175.646C191.122 175.661 191.132 175.666 191.147 175.66L192.506 175.166C192.521 175.16 192.526 175.15 192.52 175.135L192.264 174.43C192.184 174.212 192.06 174.064 191.891 173.985C191.72 173.902 191.53 173.899 191.319 173.976C191.098 174.056 190.946 174.184 190.865 174.358C190.782 174.529 190.78 174.723 190.86 174.941L191.116 175.646ZM194.091 173.733C194.012 173.515 193.882 173.367 193.7 173.288C193.518 173.21 193.31 173.213 193.077 173.297C192.841 173.384 192.678 173.517 192.591 173.698C192.502 173.875 192.498 174.074 192.579 174.296L192.842 175.018C192.847 175.033 192.857 175.038 192.872 175.032L194.344 174.497C194.359 174.491 194.364 174.481 194.358 174.466L194.091 173.733ZM189.328 170.907C189.365 170.893 189.391 170.905 189.404 170.943L190.02 172.634C190.026 172.649 190.036 172.654 190.051 172.648L191.449 172.139C191.464 172.134 191.469 172.124 191.463 172.109L191.049 170.97C191.035 170.932 191.047 170.907 191.085 170.893L191.322 170.807C191.359 170.793 191.385 170.805 191.399 170.843L191.813 171.981C191.819 171.996 191.829 172.001 191.844 171.996L193.253 171.483C193.268 171.477 193.273 171.467 193.268 171.452L192.652 169.761C192.638 169.723 192.65 169.697 192.688 169.684L192.925 169.597C192.962 169.584 192.988 169.596 193.002 169.633L193.751 171.691C193.764 171.729 193.752 171.754 193.715 171.768L189.881 173.164C189.843 173.177 189.818 173.165 189.804 173.128L189.055 171.07C189.041 171.032 189.053 171.007 189.091 170.993L189.328 170.907ZM191.991 166.858C192.004 166.891 191.994 166.918 191.963 166.938L191.326 167.381C191.316 167.388 191.314 167.4 191.319 167.415L191.81 168.762C191.815 168.778 191.824 168.785 191.837 168.785L192.61 168.714C192.646 168.709 192.671 168.724 192.683 168.758L192.79 169.051C192.796 169.07 192.796 169.087 192.789 169.102C192.781 169.114 192.766 169.121 192.746 169.124L188.528 169.465C188.492 169.47 188.467 169.455 188.455 169.422L188.324 169.061C188.311 169.027 188.321 169 188.352 168.98L191.802 166.531L191.817 166.519C191.847 166.508 191.869 166.521 191.883 166.559L191.991 166.858ZM191.436 168.822C191.441 168.824 191.446 168.822 191.453 168.816C191.454 168.807 191.453 168.799 191.45 168.791L191.025 167.624C191.023 167.617 191.019 167.612 191.013 167.609C191.003 167.605 190.997 167.605 190.995 167.61L188.945 169.032C188.939 169.039 188.937 169.044 188.938 169.048C188.94 169.052 188.945 169.054 188.954 169.055L191.436 168.822ZM187.077 165.637C187.064 165.599 187.076 165.574 187.113 165.56L187.35 165.474C187.388 165.46 187.413 165.472 187.427 165.51L187.762 166.429C187.767 166.444 187.777 166.448 187.792 166.443L191.31 165.162C191.348 165.149 191.374 165.161 191.387 165.198L191.492 165.486C191.506 165.523 191.494 165.549 191.456 165.563L187.938 166.843C187.923 166.849 187.918 166.859 187.924 166.874L188.246 167.759C188.26 167.797 188.248 167.822 188.21 167.836L187.973 167.922C187.936 167.936 187.91 167.924 187.896 167.886L187.077 165.637ZM190.453 162.492C190.582 162.845 190.593 163.161 190.485 163.438C190.372 163.713 190.16 163.908 189.848 164.021L189.696 164.077C189.658 164.09 189.632 164.078 189.619 164.041L189.518 163.764C189.505 163.727 189.517 163.701 189.554 163.688L189.684 163.64C189.894 163.564 190.037 163.431 190.113 163.241C190.189 163.052 190.184 162.839 190.098 162.602C190.017 162.38 189.893 162.227 189.726 162.143C189.56 162.059 189.378 162.053 189.183 162.124C189.055 162.171 188.955 162.241 188.883 162.335C188.811 162.43 188.757 162.55 188.72 162.695C188.684 162.84 188.645 163.044 188.604 163.305C188.565 163.584 188.523 163.807 188.478 163.977C188.432 164.143 188.356 164.292 188.251 164.423C188.146 164.555 187.996 164.657 187.8 164.728C187.496 164.839 187.222 164.828 186.978 164.696C186.733 164.563 186.552 164.333 186.433 164.006C186.306 163.657 186.3 163.344 186.417 163.067C186.533 162.791 186.749 162.595 187.065 162.48L187.195 162.433C187.232 162.419 187.258 162.431 187.272 162.469L187.374 162.751C187.388 162.788 187.376 162.814 187.338 162.827L187.214 162.873C187.004 162.949 186.859 163.078 186.781 163.26C186.698 163.443 186.7 163.653 186.787 163.89C186.863 164.101 186.978 164.246 187.131 164.327C187.282 164.404 187.457 164.406 187.657 164.333C187.784 164.287 187.881 164.22 187.947 164.132C188.013 164.044 188.063 163.935 188.096 163.803C188.128 163.668 188.163 163.468 188.203 163.202C188.253 162.895 188.304 162.655 188.356 162.483C188.403 162.308 188.478 162.157 188.581 162.031C188.678 161.901 188.821 161.802 189.009 161.734C189.325 161.619 189.614 161.629 189.875 161.764C190.134 161.9 190.326 162.142 190.453 162.492Z" fill="#B1B4C5"/>
<path d="M123.63 203.355L151.79 125.987C152.041 125.295 151.685 124.53 150.993 124.278L150.992 124.278C150.3 124.026 149.535 124.383 149.283 125.075L121.124 202.443C120.872 203.135 121.228 203.9 121.92 204.152L121.921 204.152C122.613 204.404 123.378 204.047 123.63 203.355Z" fill="#B1B4C5"/>
<path fill-rule="evenodd" clip-rule="evenodd" d="M129.974 201.491L122.585 204.779C121.966 205.054 121.241 204.786 120.949 204.174C120.881 204.031 120.842 203.876 120.835 203.717C120.828 203.559 120.853 203.401 120.908 203.252C120.963 203.104 121.047 202.968 121.155 202.852C121.264 202.737 121.394 202.644 121.539 202.58L128.928 199.291C129.226 199.159 129.563 199.148 129.869 199.261C130.175 199.374 130.424 199.602 130.564 199.896C130.632 200.039 130.671 200.195 130.678 200.353C130.685 200.511 130.66 200.669 130.605 200.818C130.55 200.967 130.466 201.103 130.358 201.218C130.249 201.334 130.119 201.426 129.974 201.491Z" fill="#B1B4C5"/>
<path fill-rule="evenodd" clip-rule="evenodd" d="M119.678 195.925L123.226 203.193C123.295 203.336 123.335 203.491 123.344 203.649C123.353 203.807 123.33 203.965 123.276 204.115C123.223 204.264 123.14 204.401 123.033 204.517C122.925 204.634 122.796 204.728 122.652 204.794C122.035 205.075 121.306 204.815 121.01 204.206L117.462 196.937C117.393 196.794 117.352 196.64 117.344 196.481C117.335 196.323 117.358 196.165 117.412 196.016C117.465 195.867 117.548 195.73 117.655 195.613C117.762 195.496 117.892 195.402 118.036 195.337C118.332 195.201 118.67 195.187 118.976 195.297C119.283 195.406 119.535 195.632 119.678 195.925Z" fill="#B1B4C5"/>
<path d="M148.727 160.299C148.726 160.277 148.717 160.274 148.699 160.289C148.548 160.434 148.375 160.524 148.179 160.559C147.982 160.598 147.768 160.578 147.537 160.498C147.199 160.375 146.972 160.178 146.858 159.906C146.743 159.639 146.745 159.339 146.866 159.009L147.27 157.898C147.284 157.86 147.309 157.848 147.347 157.862L151.181 159.258C151.219 159.271 151.231 159.297 151.217 159.334L150.829 160.4C150.703 160.746 150.514 160.984 150.263 161.113C150.015 161.245 149.726 161.25 149.395 161.13C149.184 161.053 149.024 160.944 148.914 160.801C148.803 160.663 148.74 160.495 148.727 160.299ZM150.734 159.574C150.739 159.559 150.735 159.548 150.72 159.543L149.361 159.048C149.346 159.043 149.335 159.048 149.33 159.063L149.073 159.767C148.994 159.985 148.994 160.179 149.073 160.348C149.15 160.521 149.294 160.646 149.505 160.723C149.727 160.803 149.925 160.803 150.099 160.722C150.272 160.644 150.398 160.496 150.477 160.278L150.734 159.574ZM147.225 159.127C147.146 159.345 147.151 159.542 147.239 159.719C147.328 159.896 147.489 160.027 147.722 160.112C147.959 160.198 148.169 160.2 148.352 160.118C148.534 160.039 148.665 159.889 148.746 159.667L149.009 158.946C149.014 158.931 149.009 158.92 148.994 158.915L147.523 158.379C147.508 158.374 147.497 158.379 147.492 158.394L147.225 159.127ZM149.058 164.354C149.02 164.34 149.008 164.315 149.022 164.277L149.638 162.585C149.643 162.57 149.638 162.56 149.623 162.555L148.225 162.046C148.21 162.04 148.2 162.045 148.194 162.06L147.78 163.199C147.766 163.237 147.74 163.249 147.703 163.235L147.466 163.149C147.428 163.135 147.417 163.109 147.43 163.072L147.845 161.933C147.85 161.918 147.845 161.908 147.83 161.902L146.421 161.389C146.406 161.384 146.396 161.388 146.39 161.403L145.774 163.095C145.761 163.132 145.735 163.144 145.698 163.131L145.461 163.045C145.423 163.031 145.411 163.005 145.425 162.968L146.174 160.91C146.188 160.872 146.213 160.86 146.251 160.874L150.085 162.269C150.122 162.283 150.134 162.309 150.121 162.346L149.372 164.404C149.358 164.442 149.332 164.454 149.295 164.44L149.058 164.354ZM144.415 165.743C144.427 165.71 144.451 165.695 144.488 165.7L145.26 165.77C145.273 165.771 145.282 165.763 145.288 165.748L145.778 164.401C145.784 164.386 145.781 164.374 145.771 164.366L145.134 163.924C145.103 163.904 145.094 163.877 145.106 163.843L145.213 163.55C145.22 163.531 145.231 163.518 145.246 163.511C145.26 163.508 145.276 163.511 145.293 163.522L148.744 165.972C148.775 165.992 148.784 166.018 148.772 166.052L148.64 166.413C148.628 166.447 148.604 166.461 148.567 166.457L144.349 166.116L144.33 166.115C144.3 166.104 144.292 166.08 144.306 166.042L144.415 165.743ZM146.103 164.596C146.101 164.591 146.095 164.589 146.086 164.59C146.08 164.596 146.075 164.603 146.072 164.61L145.647 165.777C145.645 165.785 145.645 165.791 145.647 165.796C145.652 165.806 145.657 165.81 145.662 165.808L148.146 166.035C148.155 166.034 148.16 166.032 148.161 166.028C148.163 166.024 148.16 166.019 148.154 166.013L146.103 164.596ZM147.394 169.837C147.38 169.875 147.355 169.887 147.317 169.873L147.08 169.787C147.043 169.773 147.031 169.747 147.045 169.71L147.379 168.791C147.385 168.776 147.38 168.766 147.365 168.76L143.847 167.48C143.809 167.466 143.797 167.44 143.811 167.403L143.915 167.115C143.929 167.078 143.955 167.066 143.992 167.079L147.51 168.36C147.525 168.365 147.536 168.36 147.541 168.345L147.863 167.46C147.877 167.423 147.903 167.411 147.94 167.424L148.177 167.511C148.215 167.524 148.227 167.55 148.213 167.588L147.394 169.837ZM142.786 170.076C142.915 169.723 143.11 169.475 143.371 169.331C143.634 169.193 143.921 169.18 144.233 169.294L144.386 169.349C144.423 169.363 144.435 169.389 144.421 169.426L144.321 169.703C144.307 169.74 144.282 169.752 144.244 169.738L144.114 169.691C143.904 169.615 143.709 169.624 143.529 169.721C143.349 169.817 143.216 169.984 143.13 170.22C143.049 170.442 143.046 170.639 143.119 170.81C143.193 170.982 143.328 171.103 143.523 171.175C143.651 171.221 143.773 171.231 143.889 171.205C144.005 171.179 144.123 171.123 144.245 171.035C144.366 170.947 144.526 170.816 144.726 170.642C144.935 170.454 145.111 170.309 145.254 170.208C145.396 170.111 145.55 170.046 145.715 170.012C145.88 169.979 146.061 169.998 146.256 170.069C146.561 170.179 146.764 170.364 146.866 170.622C146.967 170.881 146.959 171.174 146.84 171.501C146.713 171.85 146.515 172.093 146.249 172.23C145.982 172.367 145.69 172.378 145.375 172.263L145.245 172.216C145.207 172.203 145.195 172.177 145.209 172.139L145.312 171.857C145.325 171.82 145.351 171.808 145.388 171.822L145.513 171.867C145.723 171.943 145.917 171.937 146.094 171.848C146.275 171.761 146.408 171.599 146.494 171.362C146.571 171.152 146.577 170.966 146.511 170.806C146.445 170.65 146.312 170.536 146.113 170.463C145.985 170.417 145.868 170.406 145.761 170.431C145.654 170.456 145.545 170.508 145.436 170.587C145.324 170.67 145.168 170.801 144.967 170.979C144.732 171.182 144.538 171.333 144.387 171.432C144.239 171.535 144.085 171.602 143.925 171.633C143.767 171.67 143.594 171.654 143.406 171.585C143.09 171.47 142.875 171.277 142.761 171.006C142.651 170.736 142.659 170.426 142.786 170.076Z" fill="#B1B4C5"/>
<path d="M256.246 59.985C256.209 59.9997 256.209 60.018 256.246 60.04C256.591 60.2087 256.855 60.4507 257.038 60.766C257.229 61.0813 257.328 61.4627 257.335 61.91C257.335 62.57 257.137 63.0833 256.741 63.45C256.352 63.8167 255.835 64 255.19 64H253.023C252.95 64 252.913 63.9633 252.913 63.89V56.41C252.913 56.3367 252.95 56.3 253.023 56.3H255.102C255.777 56.3 256.305 56.476 256.686 56.828C257.067 57.1727 257.258 57.6677 257.258 58.313C257.258 58.7237 257.17 59.0683 256.994 59.347C256.825 59.6257 256.576 59.8383 256.246 59.985ZM253.738 56.982C253.709 56.982 253.694 56.9967 253.694 57.026V59.677C253.694 59.7063 253.709 59.721 253.738 59.721H255.113C255.538 59.721 255.872 59.6 256.114 59.358C256.363 59.116 256.488 58.7897 256.488 58.379C256.488 57.9463 256.363 57.6053 256.114 57.356C255.872 57.1067 255.538 56.982 255.113 56.982H253.738ZM255.168 63.307C255.593 63.307 255.931 63.175 256.18 62.911C256.429 62.647 256.554 62.2877 256.554 61.833C256.554 61.371 256.426 61.008 256.169 60.744C255.92 60.48 255.579 60.348 255.146 60.348H253.738C253.709 60.348 253.694 60.3627 253.694 60.392V63.263C253.694 63.2923 253.709 63.307 253.738 63.307H255.168ZM263.024 56.872C263.024 56.9453 262.987 56.982 262.914 56.982H259.614C259.585 56.982 259.57 56.9967 259.57 57.026V59.754C259.57 59.7833 259.585 59.798 259.614 59.798H261.836C261.909 59.798 261.946 59.8347 261.946 59.908V60.37C261.946 60.4433 261.909 60.48 261.836 60.48H259.614C259.585 60.48 259.57 60.4947 259.57 60.524V63.274C259.57 63.3033 259.585 63.318 259.614 63.318H262.914C262.987 63.318 263.024 63.3547 263.024 63.428V63.89C263.024 63.9633 262.987 64 262.914 64H258.899C258.826 64 258.789 63.9633 258.789 63.89V56.41C258.789 56.3367 258.826 56.3 258.899 56.3H262.914C262.987 56.3 263.024 56.3367 263.024 56.41V56.872ZM268.33 64C268.264 64 268.223 63.967 268.209 63.901L267.846 62.526C267.838 62.504 267.82 62.493 267.791 62.493H265.162C265.132 62.493 265.114 62.504 265.107 62.526L264.744 63.901C264.729 63.967 264.689 64 264.623 64H264.05C264.014 64 263.985 63.989 263.963 63.967C263.948 63.945 263.944 63.9157 263.952 63.879L266.009 56.399C266.023 56.333 266.064 56.3 266.13 56.3H266.834C266.9 56.3 266.94 56.333 266.955 56.399L269.012 63.879L269.023 63.912C269.023 63.9707 268.986 64 268.913 64H268.33ZM265.294 61.811C265.286 61.8183 265.286 61.8293 265.294 61.844C265.308 61.8513 265.323 61.855 265.338 61.855H267.615C267.629 61.855 267.64 61.8513 267.648 61.844C267.662 61.8293 267.666 61.8183 267.659 61.811L266.493 57.389C266.485 57.3743 266.478 57.367 266.471 57.367C266.463 57.367 266.456 57.3743 266.449 57.389L265.294 61.811ZM273.514 56.3C273.587 56.3 273.624 56.3367 273.624 56.41V56.872C273.624 56.9453 273.587 56.982 273.514 56.982H271.721C271.691 56.982 271.677 56.9967 271.677 57.026V63.89C271.677 63.9633 271.64 64 271.567 64H271.006C270.932 64 270.896 63.9633 270.896 63.89V57.026C270.896 56.9967 270.881 56.982 270.852 56.982H269.125C269.051 56.982 269.015 56.9453 269.015 56.872V56.41C269.015 56.3367 269.051 56.3 269.125 56.3H273.514ZM276.815 64.088C276.126 64.088 275.576 63.9083 275.165 63.549C274.762 63.1823 274.56 62.6947 274.56 62.086V61.789C274.56 61.7157 274.597 61.679 274.67 61.679H275.209C275.282 61.679 275.319 61.7157 275.319 61.789V62.042C275.319 62.4527 275.458 62.7827 275.737 63.032C276.016 63.2813 276.386 63.406 276.848 63.406C277.281 63.406 277.622 63.2887 277.871 63.054C278.12 62.8193 278.245 62.5113 278.245 62.13C278.245 61.8807 278.186 61.6643 278.069 61.481C277.952 61.2977 277.779 61.129 277.552 60.975C277.325 60.821 276.998 60.6267 276.573 60.392C276.118 60.15 275.759 59.9373 275.495 59.754C275.238 59.5707 275.029 59.347 274.868 59.083C274.707 58.819 274.626 58.4963 274.626 58.115C274.626 57.521 274.817 57.0553 275.198 56.718C275.579 56.3807 276.089 56.212 276.727 56.212C277.409 56.212 277.952 56.399 278.355 56.773C278.758 57.147 278.96 57.642 278.96 58.258V58.511C278.96 58.5843 278.923 58.621 278.85 58.621H278.3C278.227 58.621 278.19 58.5843 278.19 58.511V58.269C278.19 57.8583 278.058 57.5283 277.794 57.279C277.53 57.0223 277.167 56.894 276.705 56.894C276.294 56.894 275.972 57.0003 275.737 57.213C275.51 57.4257 275.396 57.7263 275.396 58.115C275.396 58.3643 275.451 58.5733 275.561 58.742C275.671 58.9107 275.829 59.0647 276.034 59.204C276.247 59.3433 276.569 59.5303 277.002 59.765C277.501 60.0437 277.882 60.282 278.146 60.48C278.417 60.6707 278.63 60.8943 278.784 61.151C278.945 61.4003 279.026 61.7083 279.026 62.075C279.026 62.691 278.828 63.1823 278.432 63.549C278.036 63.9083 277.497 64.088 276.815 64.088Z" fill="#B1B4C5"/>
<path d="M59.246 59.985C59.2093 59.9997 59.2093 60.018 59.246 60.04C59.5907 60.2087 59.8547 60.4507 60.038 60.766C60.2287 61.0813 60.3277 61.4627 60.335 61.91C60.335 62.57 60.137 63.0833 59.741 63.45C59.3523 63.8167 58.8353 64 58.19 64H56.023C55.9497 64 55.913 63.9633 55.913 63.89V56.41C55.913 56.3367 55.9497 56.3 56.023 56.3H58.102C58.7767 56.3 59.3047 56.476 59.686 56.828C60.0673 57.1727 60.258 57.6677 60.258 58.313C60.258 58.7237 60.17 59.0683 59.994 59.347C59.8253 59.6257 59.576 59.8383 59.246 59.985ZM56.738 56.982C56.7087 56.982 56.694 56.9967 56.694 57.026V59.677C56.694 59.7063 56.7087 59.721 56.738 59.721H58.113C58.5383 59.721 58.872 59.6 59.114 59.358C59.3633 59.116 59.488 58.7897 59.488 58.379C59.488 57.9463 59.3633 57.6053 59.114 57.356C58.872 57.1067 58.5383 56.982 58.113 56.982H56.738ZM58.168 63.307C58.5933 63.307 58.9307 63.175 59.18 62.911C59.4293 62.647 59.554 62.2877 59.554 61.833C59.554 61.371 59.4257 61.008 59.169 60.744C58.9197 60.48 58.5787 60.348 58.146 60.348H56.738C56.7087 60.348 56.694 60.3627 56.694 60.392V63.263C56.694 63.2923 56.7087 63.307 56.738 63.307H58.168ZM66.024 56.872C66.024 56.9453 65.9873 56.982 65.914 56.982H62.614C62.5846 56.982 62.57 56.9967 62.57 57.026V59.754C62.57 59.7833 62.5846 59.798 62.614 59.798H64.836C64.9093 59.798 64.946 59.8347 64.946 59.908V60.37C64.946 60.4433 64.9093 60.48 64.836 60.48H62.614C62.5846 60.48 62.57 60.4947 62.57 60.524V63.274C62.57 63.3033 62.5846 63.318 62.614 63.318H65.914C65.9873 63.318 66.024 63.3547 66.024 63.428V63.89C66.024 63.9633 65.9873 64 65.914 64H61.899C61.8256 64 61.789 63.9633 61.789 63.89V56.41C61.789 56.3367 61.8256 56.3 61.899 56.3H65.914C65.9873 56.3 66.024 56.3367 66.024 56.41V56.872ZM71.3295 64C71.2635 64 71.2232 63.967 71.2085 63.901L70.8455 62.526C70.8382 62.504 70.8198 62.493 70.7905 62.493H68.1615C68.1322 62.493 68.1138 62.504 68.1065 62.526L67.7435 63.901C67.7288 63.967 67.6885 64 67.6225 64H67.0505C67.0138 64 66.9845 63.989 66.9625 63.967C66.9478 63.945 66.9442 63.9157 66.9515 63.879L69.0085 56.399C69.0232 56.333 69.0635 56.3 69.1295 56.3H69.8335C69.8995 56.3 69.9398 56.333 69.9545 56.399L72.0115 63.879L72.0225 63.912C72.0225 63.9707 71.9858 64 71.9125 64H71.3295ZM68.2935 61.811C68.2862 61.8183 68.2862 61.8293 68.2935 61.844C68.3082 61.8513 68.3228 61.855 68.3375 61.855H70.6145C70.6292 61.855 70.6402 61.8513 70.6475 61.844C70.6622 61.8293 70.6658 61.8183 70.6585 61.811L69.4925 57.389C69.4852 57.3743 69.4778 57.367 69.4705 57.367C69.4632 57.367 69.4558 57.3743 69.4485 57.389L68.2935 61.811ZM76.5137 56.3C76.587 56.3 76.6237 56.3367 76.6237 56.41V56.872C76.6237 56.9453 76.587 56.982 76.5137 56.982H74.7207C74.6913 56.982 74.6767 56.9967 74.6767 57.026V63.89C74.6767 63.9633 74.64 64 74.5667 64H74.0057C73.9323 64 73.8957 63.9633 73.8957 63.89V57.026C73.8957 56.9967 73.881 56.982 73.8517 56.982H72.1247C72.0513 56.982 72.0147 56.9453 72.0147 56.872V56.41C72.0147 56.3367 72.0513 56.3 72.1247 56.3H76.5137ZM79.815 64.088C79.1256 64.088 78.5756 63.9083 78.165 63.549C77.7616 63.1823 77.56 62.6947 77.56 62.086V61.789C77.56 61.7157 77.5966 61.679 77.67 61.679H78.209C78.2823 61.679 78.319 61.7157 78.319 61.789V62.042C78.319 62.4527 78.4583 62.7827 78.737 63.032C79.0156 63.2813 79.386 63.406 79.848 63.406C80.2806 63.406 80.6216 63.2887 80.871 63.054C81.1203 62.8193 81.245 62.5113 81.245 62.13C81.245 61.8807 81.1863 61.6643 81.069 61.481C80.9516 61.2977 80.7793 61.129 80.552 60.975C80.3246 60.821 79.9983 60.6267 79.573 60.392C79.1183 60.15 78.759 59.9373 78.495 59.754C78.2383 59.5707 78.0293 59.347 77.868 59.083C77.7066 58.819 77.626 58.4963 77.626 58.115C77.626 57.521 77.8166 57.0553 78.198 56.718C78.5793 56.3807 79.089 56.212 79.727 56.212C80.409 56.212 80.9516 56.399 81.355 56.773C81.7583 57.147 81.96 57.642 81.96 58.258V58.511C81.96 58.5843 81.9233 58.621 81.85 58.621H81.3C81.2266 58.621 81.19 58.5843 81.19 58.511V58.269C81.19 57.8583 81.058 57.5283 80.794 57.279C80.53 57.0223 80.167 56.894 79.705 56.894C79.2943 56.894 78.9716 57.0003 78.737 57.213C78.5096 57.4257 78.396 57.7263 78.396 58.115C78.396 58.3643 78.451 58.5733 78.561 58.742C78.671 58.9107 78.8286 59.0647 79.034 59.204C79.2466 59.3433 79.5693 59.5303 80.002 59.765C80.5006 60.0437 80.882 60.282 81.146 60.48C81.4173 60.6707 81.63 60.8943 81.784 61.151C81.9453 61.4003 82.026 61.7083 82.026 62.075C82.026 62.691 81.828 63.1823 81.432 63.549C81.036 63.9083 80.497 64.088 79.815 64.088Z" fill="#B1B4C5"/>
<path d="M309.246 220.985C309.209 221 309.209 221.018 309.246 221.04C309.591 221.209 309.855 221.451 310.038 221.766C310.229 222.081 310.328 222.463 310.335 222.91C310.335 223.57 310.137 224.083 309.741 224.45C309.352 224.817 308.835 225 308.19 225H306.023C305.95 225 305.913 224.963 305.913 224.89V217.41C305.913 217.337 305.95 217.3 306.023 217.3H308.102C308.777 217.3 309.305 217.476 309.686 217.828C310.067 218.173 310.258 218.668 310.258 219.313C310.258 219.724 310.17 220.068 309.994 220.347C309.825 220.626 309.576 220.838 309.246 220.985ZM306.738 217.982C306.709 217.982 306.694 217.997 306.694 218.026V220.677C306.694 220.706 306.709 220.721 306.738 220.721H308.113C308.538 220.721 308.872 220.6 309.114 220.358C309.363 220.116 309.488 219.79 309.488 219.379C309.488 218.946 309.363 218.605 309.114 218.356C308.872 218.107 308.538 217.982 308.113 217.982H306.738ZM308.168 224.307C308.593 224.307 308.931 224.175 309.18 223.911C309.429 223.647 309.554 223.288 309.554 222.833C309.554 222.371 309.426 222.008 309.169 221.744C308.92 221.48 308.579 221.348 308.146 221.348H306.738C306.709 221.348 306.694 221.363 306.694 221.392V224.263C306.694 224.292 306.709 224.307 306.738 224.307H308.168ZM316.024 217.872C316.024 217.945 315.987 217.982 315.914 217.982H312.614C312.585 217.982 312.57 217.997 312.57 218.026V220.754C312.57 220.783 312.585 220.798 312.614 220.798H314.836C314.909 220.798 314.946 220.835 314.946 220.908V221.37C314.946 221.443 314.909 221.48 314.836 221.48H312.614C312.585 221.48 312.57 221.495 312.57 221.524V224.274C312.57 224.303 312.585 224.318 312.614 224.318H315.914C315.987 224.318 316.024 224.355 316.024 224.428V224.89C316.024 224.963 315.987 225 315.914 225H311.899C311.826 225 311.789 224.963 311.789 224.89V217.41C311.789 217.337 311.826 217.3 311.899 217.3H315.914C315.987 217.3 316.024 217.337 316.024 217.41V217.872ZM321.33 225C321.264 225 321.223 224.967 321.209 224.901L320.846 223.526C320.838 223.504 320.82 223.493 320.791 223.493H318.162C318.132 223.493 318.114 223.504 318.107 223.526L317.744 224.901C317.729 224.967 317.689 225 317.623 225H317.05C317.014 225 316.985 224.989 316.963 224.967C316.948 224.945 316.944 224.916 316.952 224.879L319.009 217.399C319.023 217.333 319.064 217.3 319.13 217.3H319.834C319.9 217.3 319.94 217.333 319.955 217.399L322.012 224.879L322.023 224.912C322.023 224.971 321.986 225 321.913 225H321.33ZM318.294 222.811C318.286 222.818 318.286 222.829 318.294 222.844C318.308 222.851 318.323 222.855 318.338 222.855H320.615C320.629 222.855 320.64 222.851 320.648 222.844C320.662 222.829 320.666 222.818 320.659 222.811L319.493 218.389C319.485 218.374 319.478 218.367 319.471 218.367C319.463 218.367 319.456 218.374 319.449 218.389L318.294 222.811ZM326.514 217.3C326.587 217.3 326.624 217.337 326.624 217.41V217.872C326.624 217.945 326.587 217.982 326.514 217.982H324.721C324.691 217.982 324.677 217.997 324.677 218.026V224.89C324.677 224.963 324.64 225 324.567 225H324.006C323.932 225 323.896 224.963 323.896 224.89V218.026C323.896 217.997 323.881 217.982 323.852 217.982H322.125C322.051 217.982 322.015 217.945 322.015 217.872V217.41C322.015 217.337 322.051 217.3 322.125 217.3H326.514ZM329.815 225.088C329.126 225.088 328.576 224.908 328.165 224.549C327.762 224.182 327.56 223.695 327.56 223.086V222.789C327.56 222.716 327.597 222.679 327.67 222.679H328.209C328.282 222.679 328.319 222.716 328.319 222.789V223.042C328.319 223.453 328.458 223.783 328.737 224.032C329.016 224.281 329.386 224.406 329.848 224.406C330.281 224.406 330.622 224.289 330.871 224.054C331.12 223.819 331.245 223.511 331.245 223.13C331.245 222.881 331.186 222.664 331.069 222.481C330.952 222.298 330.779 222.129 330.552 221.975C330.325 221.821 329.998 221.627 329.573 221.392C329.118 221.15 328.759 220.937 328.495 220.754C328.238 220.571 328.029 220.347 327.868 220.083C327.707 219.819 327.626 219.496 327.626 219.115C327.626 218.521 327.817 218.055 328.198 217.718C328.579 217.381 329.089 217.212 329.727 217.212C330.409 217.212 330.952 217.399 331.355 217.773C331.758 218.147 331.96 218.642 331.96 219.258V219.511C331.96 219.584 331.923 219.621 331.85 219.621H331.3C331.227 219.621 331.19 219.584 331.19 219.511V219.269C331.19 218.858 331.058 218.528 330.794 218.279C330.53 218.022 330.167 217.894 329.705 217.894C329.294 217.894 328.972 218 328.737 218.213C328.51 218.426 328.396 218.726 328.396 219.115C328.396 219.364 328.451 219.573 328.561 219.742C328.671 219.911 328.829 220.065 329.034 220.204C329.247 220.343 329.569 220.53 330.002 220.765C330.501 221.044 330.882 221.282 331.146 221.48C331.417 221.671 331.63 221.894 331.784 222.151C331.945 222.4 332.026 222.708 332.026 223.075C332.026 223.691 331.828 224.182 331.432 224.549C331.036 224.908 330.497 225.088 329.815 225.088Z" fill="#B1B4C5"/>
<path d="M5.246 220.985C5.20933 221 5.20933 221.018 5.246 221.04C5.59067 221.209 5.85467 221.451 6.038 221.766C6.22867 222.081 6.32767 222.463 6.335 222.91C6.335 223.57 6.137 224.083 5.741 224.45C5.35233 224.817 4.83533 225 4.19 225H2.023C1.94967 225 1.913 224.963 1.913 224.89V217.41C1.913 217.337 1.94967 217.3 2.023 217.3H4.102C4.77667 217.3 5.30467 217.476 5.686 217.828C6.06733 218.173 6.258 218.668 6.258 219.313C6.258 219.724 6.17 220.068 5.994 220.347C5.82533 220.626 5.576 220.838 5.246 220.985ZM2.738 217.982C2.70867 217.982 2.694 217.997 2.694 218.026V220.677C2.694 220.706 2.70867 220.721 2.738 220.721H4.113C4.53833 220.721 4.872 220.6 5.114 220.358C5.36333 220.116 5.488 219.79 5.488 219.379C5.488 218.946 5.36333 218.605 5.114 218.356C4.872 218.107 4.53833 217.982 4.113 217.982H2.738ZM4.168 224.307C4.59333 224.307 4.93067 224.175 5.18 223.911C5.42933 223.647 5.554 223.288 5.554 222.833C5.554 222.371 5.42567 222.008 5.169 221.744C4.91967 221.48 4.57867 221.348 4.146 221.348H2.738C2.70867 221.348 2.694 221.363 2.694 221.392V224.263C2.694 224.292 2.70867 224.307 2.738 224.307H4.168ZM12.024 217.872C12.024 217.945 11.9873 217.982 11.914 217.982H8.61398C8.58464 217.982 8.56998 217.997 8.56998 218.026V220.754C8.56998 220.783 8.58464 220.798 8.61398 220.798H10.836C10.9093 220.798 10.946 220.835 10.946 220.908V221.37C10.946 221.443 10.9093 221.48 10.836 221.48H8.61398C8.58464 221.48 8.56998 221.495 8.56998 221.524V224.274C8.56998 224.303 8.58464 224.318 8.61398 224.318H11.914C11.9873 224.318 12.024 224.355 12.024 224.428V224.89C12.024 224.963 11.9873 225 11.914 225H7.89898C7.82564 225 7.78898 224.963 7.78898 224.89V217.41C7.78898 217.337 7.82564 217.3 7.89898 217.3H11.914C11.9873 217.3 12.024 217.337 12.024 217.41V217.872ZM17.3295 225C17.2635 225 17.2232 224.967 17.2085 224.901L16.8455 223.526C16.8382 223.504 16.8198 223.493 16.7905 223.493H14.1615C14.1322 223.493 14.1138 223.504 14.1065 223.526L13.7435 224.901C13.7288 224.967 13.6885 225 13.6225 225H13.0505C13.0138 225 12.9845 224.989 12.9625 224.967C12.9478 224.945 12.9442 224.916 12.9515 224.879L15.0085 217.399C15.0232 217.333 15.0635 217.3 15.1295 217.3H15.8335C15.8995 217.3 15.9398 217.333 15.9545 217.399L18.0115 224.879L18.0225 224.912C18.0225 224.971 17.9858 225 17.9125 225H17.3295ZM14.2935 222.811C14.2862 222.818 14.2862 222.829 14.2935 222.844C14.3082 222.851 14.3228 222.855 14.3375 222.855H16.6145C16.6292 222.855 16.6402 222.851 16.6475 222.844C16.6622 222.829 16.6658 222.818 16.6585 222.811L15.4925 218.389C15.4852 218.374 15.4778 218.367 15.4705 218.367C15.4632 218.367 15.4558 218.374 15.4485 218.389L14.2935 222.811ZM22.5137 217.3C22.587 217.3 22.6237 217.337 22.6237 217.41V217.872C22.6237 217.945 22.587 217.982 22.5137 217.982H20.7207C20.6913 217.982 20.6767 217.997 20.6767 218.026V224.89C20.6767 224.963 20.64 225 20.5667 225H20.0057C19.9323 225 19.8957 224.963 19.8957 224.89V218.026C19.8957 217.997 19.881 217.982 19.8517 217.982H18.1247C18.0513 217.982 18.0147 217.945 18.0147 217.872V217.41C18.0147 217.337 18.0513 217.3 18.1247 217.3H22.5137ZM25.815 225.088C25.1256 225.088 24.5756 224.908 24.165 224.549C23.7616 224.182 23.56 223.695 23.56 223.086V222.789C23.56 222.716 23.5966 222.679 23.67 222.679H24.209C24.2823 222.679 24.319 222.716 24.319 222.789V223.042C24.319 223.453 24.4583 223.783 24.737 224.032C25.0156 224.281 25.386 224.406 25.848 224.406C26.2806 224.406 26.6216 224.289 26.871 224.054C27.1203 223.819 27.245 223.511 27.245 223.13C27.245 222.881 27.1863 222.664 27.069 222.481C26.9516 222.298 26.7793 222.129 26.552 221.975C26.3246 221.821 25.9983 221.627 25.573 221.392C25.1183 221.15 24.759 220.937 24.495 220.754C24.2383 220.571 24.0293 220.347 23.868 220.083C23.7066 219.819 23.626 219.496 23.626 219.115C23.626 218.521 23.8166 218.055 24.198 217.718C24.5793 217.381 25.089 217.212 25.727 217.212C26.409 217.212 26.9516 217.399 27.355 217.773C27.7583 218.147 27.96 218.642 27.96 219.258V219.511C27.96 219.584 27.9233 219.621 27.85 219.621H27.3C27.2266 219.621 27.19 219.584 27.19 219.511V219.269C27.19 218.858 27.058 218.528 26.794 218.279C26.53 218.022 26.167 217.894 25.705 217.894C25.2943 217.894 24.9716 218 24.737 218.213C24.5096 218.426 24.396 218.726 24.396 219.115C24.396 219.364 24.451 219.573 24.561 219.742C24.671 219.911 24.8286 220.065 25.034 220.204C25.2466 220.343 25.5693 220.53 26.002 220.765C26.5006 221.044 26.882 221.282 27.146 221.48C27.4173 221.671 27.63 221.894 27.784 222.151C27.9453 222.4 28.026 222.708 28.026 223.075C28.026 223.691 27.828 224.182 27.432 224.549C27.036 224.908 26.497 225.088 25.815 225.088Z" fill="#B1B4C5"/>
<path d="M158.246 323.985C158.209 324 158.209 324.018 158.246 324.04C158.591 324.209 158.855 324.451 159.038 324.766C159.229 325.081 159.328 325.463 159.335 325.91C159.335 326.57 159.137 327.083 158.741 327.45C158.352 327.817 157.835 328 157.19 328H155.023C154.95 328 154.913 327.963 154.913 327.89V320.41C154.913 320.337 154.95 320.3 155.023 320.3H157.102C157.777 320.3 158.305 320.476 158.686 320.828C159.067 321.173 159.258 321.668 159.258 322.313C159.258 322.724 159.17 323.068 158.994 323.347C158.825 323.626 158.576 323.838 158.246 323.985ZM155.738 320.982C155.709 320.982 155.694 320.997 155.694 321.026V323.677C155.694 323.706 155.709 323.721 155.738 323.721H157.113C157.538 323.721 157.872 323.6 158.114 323.358C158.363 323.116 158.488 322.79 158.488 322.379C158.488 321.946 158.363 321.605 158.114 321.356C157.872 321.107 157.538 320.982 157.113 320.982H155.738ZM157.168 327.307C157.593 327.307 157.931 327.175 158.18 326.911C158.429 326.647 158.554 326.288 158.554 325.833C158.554 325.371 158.426 325.008 158.169 324.744C157.92 324.48 157.579 324.348 157.146 324.348H155.738C155.709 324.348 155.694 324.363 155.694 324.392V327.263C155.694 327.292 155.709 327.307 155.738 327.307H157.168ZM165.024 320.872C165.024 320.945 164.987 320.982 164.914 320.982H161.614C161.585 320.982 161.57 320.997 161.57 321.026V323.754C161.57 323.783 161.585 323.798 161.614 323.798H163.836C163.909 323.798 163.946 323.835 163.946 323.908V324.37C163.946 324.443 163.909 324.48 163.836 324.48H161.614C161.585 324.48 161.57 324.495 161.57 324.524V327.274C161.57 327.303 161.585 327.318 161.614 327.318H164.914C164.987 327.318 165.024 327.355 165.024 327.428V327.89C165.024 327.963 164.987 328 164.914 328H160.899C160.826 328 160.789 327.963 160.789 327.89V320.41C160.789 320.337 160.826 320.3 160.899 320.3H164.914C164.987 320.3 165.024 320.337 165.024 320.41V320.872ZM170.33 328C170.264 328 170.223 327.967 170.209 327.901L169.846 326.526C169.838 326.504 169.82 326.493 169.791 326.493H167.162C167.132 326.493 167.114 326.504 167.107 326.526L166.744 327.901C166.729 327.967 166.689 328 166.623 328H166.05C166.014 328 165.985 327.989 165.963 327.967C165.948 327.945 165.944 327.916 165.952 327.879L168.009 320.399C168.023 320.333 168.064 320.3 168.13 320.3H168.834C168.9 320.3 168.94 320.333 168.955 320.399L171.012 327.879L171.023 327.912C171.023 327.971 170.986 328 170.913 328H170.33ZM167.294 325.811C167.286 325.818 167.286 325.829 167.294 325.844C167.308 325.851 167.323 325.855 167.338 325.855H169.615C169.629 325.855 169.64 325.851 169.648 325.844C169.662 325.829 169.666 325.818 169.659 325.811L168.493 321.389C168.485 321.374 168.478 321.367 168.471 321.367C168.463 321.367 168.456 321.374 168.449 321.389L167.294 325.811ZM175.514 320.3C175.587 320.3 175.624 320.337 175.624 320.41V320.872C175.624 320.945 175.587 320.982 175.514 320.982H173.721C173.691 320.982 173.677 320.997 173.677 321.026V327.89C173.677 327.963 173.64 328 173.567 328H173.006C172.932 328 172.896 327.963 172.896 327.89V321.026C172.896 320.997 172.881 320.982 172.852 320.982H171.125C171.051 320.982 171.015 320.945 171.015 320.872V320.41C171.015 320.337 171.051 320.3 171.125 320.3H175.514ZM178.815 328.088C178.126 328.088 177.576 327.908 177.165 327.549C176.762 327.182 176.56 326.695 176.56 326.086V325.789C176.56 325.716 176.597 325.679 176.67 325.679H177.209C177.282 325.679 177.319 325.716 177.319 325.789V326.042C177.319 326.453 177.458 326.783 177.737 327.032C178.016 327.281 178.386 327.406 178.848 327.406C179.281 327.406 179.622 327.289 179.871 327.054C180.12 326.819 180.245 326.511 180.245 326.13C180.245 325.881 180.186 325.664 180.069 325.481C179.952 325.298 179.779 325.129 179.552 324.975C179.325 324.821 178.998 324.627 178.573 324.392C178.118 324.15 177.759 323.937 177.495 323.754C177.238 323.571 177.029 323.347 176.868 323.083C176.707 322.819 176.626 322.496 176.626 322.115C176.626 321.521 176.817 321.055 177.198 320.718C177.579 320.381 178.089 320.212 178.727 320.212C179.409 320.212 179.952 320.399 180.355 320.773C180.758 321.147 180.96 321.642 180.96 322.258V322.511C180.96 322.584 180.923 322.621 180.85 322.621H180.3C180.227 322.621 180.19 322.584 180.19 322.511V322.269C180.19 321.858 180.058 321.528 179.794 321.279C179.53 321.022 179.167 320.894 178.705 320.894C178.294 320.894 177.972 321 177.737 321.213C177.51 321.426 177.396 321.726 177.396 322.115C177.396 322.364 177.451 322.573 177.561 322.742C177.671 322.911 177.829 323.065 178.034 323.204C178.247 323.343 178.569 323.53 179.002 323.765C179.501 324.044 179.882 324.282 180.146 324.48C180.417 324.671 180.63 324.894 180.784 325.151C180.945 325.4 181.026 325.708 181.026 326.075C181.026 326.691 180.828 327.182 180.432 327.549C180.036 327.908 179.497 328.088 178.815 328.088Z" fill="#B1B4C5"/>
<defs>
<linearGradient id="paint0_linear_1_60" x1="284.5" y1="92" x2="284.5" y2="192.344" gradientUnits="userSpaceOnUse">
<stop stop-color="white" stop-opacity="0.097"/>
<stop offset="1" stop-color="white" stop-opacity="0"/>
</linearGradient>
<linearGradient id="paint1_linear_1_60" x1="51.5" y1="92" x2="51.5" y2="192.344" gradientUnits="userSpaceOnUse">
<stop stop-color="white" stop-opacity="0.097"/>
<stop offset="1" stop-color="white" stop-opacity="0"/>
</linearGradient>
<linearGradient id="paint2_linear_1_60" x1="168.5" y1="0" x2="168.5" y2="100.344" gradientUnits="userSpaceOnUse">
<stop stop-color="white" stop-opacity="0.097"/>
<stop offset="1" stop-color="white" stop-opacity="0"/>
</linearGradient>
<linearGradient id="paint3_linear_1_60" x1="238.5" y1="225" x2="238.5" y2="325.344" gradientUnits="userSpaceOnUse">
<stop stop-color="white" stop-opacity="0.097"/>
<stop offset="1" stop-color="white" stop-opacity="0"/>
</linearGradient>
<linearGradient id="paint4_linear_1_60" x1="97.5" y1="225" x2="97.5" y2="325.344" gradientUnits="userSpaceOnUse">
<stop stop-color="white" stop-opacity="0.097"/>
<stop offset="1" stop-color="white" stop-opacity="0"/>
</linearGradient>
</defs>
</svg>
