<svg width="45" height="59" viewBox="0 0 45 59" fill="none" xmlns="http://www.w3.org/2000/svg">
<path d="M44.042 32.422L43.179 31.562C41.117 29.508 37.746 29.062 35.229 30.502L29.853 33.561L30.973 9.05901C30.973 7.00501 29.295 5.33301 27.23 5.33301C26.784 5.33301 26.355 5.41201 25.957 5.55501L26.091 4.24001C26.091 2.16301 24.386 0.473007 22.293 0.473007C20.357 0.473007 18.734 1.91801 18.529 3.77201L15.079 24.522C15.034 24.804 14.543 24.775 14.491 24.597L10.416 7.96201C10.194 7.20466 9.73298 6.53942 9.10183 6.0656C8.47067 5.59178 7.7032 5.3348 6.91398 5.33301C5.79598 5.33301 4.75698 5.83401 4.06098 6.70801C3.71904 7.13497 3.47913 7.63438 3.35955 8.16816C3.23997 8.70193 3.24388 9.25597 3.37098 9.78801L4.16298 13.138C3.71119 13.1029 3.25698 13.16 2.82798 13.306C2.0498 13.5622 1.38831 14.0871 0.962072 14.7868C0.535834 15.4864 0.372725 16.315 0.501981 17.124L2.89998 30.85C2.89998 36.265 3.85298 40.273 4.65398 42.68C5.11133 44.0643 5.34328 45.5131 5.34098 46.971C5.34098 48.255 5.16198 49.533 4.80698 50.767L2.94698 57.249C2.84298 57.615 2.91698 58.009 3.14498 58.314C3.37698 58.618 3.73698 58.797 4.11998 58.797H26.09C26.283 58.7976 26.4734 58.7522 26.6454 58.6648C26.8175 58.5773 26.9663 58.4502 27.0795 58.2939C27.1928 58.1377 27.2674 57.9567 27.297 57.766C27.3266 57.5753 27.3105 57.3803 27.25 57.197C27.237 57.166 26.217 54.028 27.183 49.76C28.408 48.77 32.697 45.298 34.237 43.898C36.783 41.583 43.758 34.43 44.054 34.126C44.2774 33.8978 44.4016 33.5904 44.3993 33.271C44.3971 32.9516 44.2686 32.6461 44.042 32.421V32.422Z" fill="#3B4262"/>
</svg>
